<svg width="1352" height="1270" viewBox="0 0 1352 1270" fill="none" xmlns="http://www.w3.org/2000/svg">
<path d="M700.063 435.39L376.971 825.177C373.401 829.484 376.464 836 382.057 836H570.079C572.064 836 573.944 835.107 575.199 833.569L893.099 443.782C896.618 439.467 893.548 433 887.979 433H705.149C703.182 433 701.318 433.876 700.063 435.39Z" fill="#F3F4F5"/>
<path d="M743.063 676.392L361.748 1136.68C358.181 1140.99 361.244 1147.5 366.836 1147.5H455.392H554.867C556.85 1147.5 558.728 1146.61 559.982 1145.07L936.079 684.787C939.604 680.472 936.534 674 930.963 674H748.15C746.183 674 744.318 674.877 743.063 676.392Z" fill="#F3F4F5"/>
<path d="M993.018 661.411L594.881 1145.7C591.336 1150.01 594.403 1156.5 599.984 1156.5H688.608H788.069C790.06 1156.5 791.945 1155.6 793.199 1154.06L1186.11 669.769C1189.61 665.451 1186.54 659 1180.98 659H998.121C996.145 659 994.273 659.885 993.018 661.411Z" fill="#F3F4F5"/>
<path d="M1142.02 774.411L743.881 1258.7C740.336 1263.01 743.403 1269.5 748.984 1269.5H837.608H937.069C939.06 1269.5 940.945 1268.6 942.199 1267.06L1335.11 782.769C1338.61 778.451 1335.54 772 1329.98 772H1147.12C1145.15 772 1143.27 772.885 1142.02 774.411Z" fill="#F3F4F5"/>
<path d="M1149.28 181.392L767.965 641.679C764.397 645.985 767.46 652.5 773.052 652.5H861.608H961.083C963.066 652.5 964.944 651.609 966.199 650.074L1342.3 189.787C1345.82 185.472 1342.75 179 1337.18 179H1154.37C1152.4 179 1150.53 179.877 1149.28 181.392Z" fill="#F3F4F5"/>
<path d="M1049.06 6.39047L725.971 396.177C722.401 400.484 725.464 407 731.057 407H919.079C921.064 407 922.944 406.107 924.199 404.569L1242.1 14.7821C1245.62 10.4667 1242.55 4 1236.98 4H1054.15C1052.18 4 1050.32 4.87625 1049.06 6.39047Z" fill="#F3F4F5"/>
<path d="M350.063 863.39L26.9708 1253.18C23.4014 1257.48 26.464 1264 32.0572 1264H220.079C222.064 1264 223.944 1263.11 225.199 1261.57L543.099 871.782C546.618 867.467 543.548 861 537.979 861H355.149C353.182 861 351.318 861.876 350.063 863.39Z" fill="#F3F4F5"/>
<path d="M682.063 432.39L358.971 822.177C355.401 826.484 358.464 833 364.057 833H552.079C554.064 833 555.944 832.107 557.199 830.569L875.099 440.782C878.618 436.467 875.548 430 869.979 430H687.149C685.182 430 683.318 430.876 682.063 432.39Z" stroke="#D0D3D7"/>
<path d="M725.063 673.392L343.748 1133.68C340.181 1137.99 343.244 1144.5 348.836 1144.5H437.392H536.867C538.85 1144.5 540.728 1143.61 541.982 1142.07L918.079 681.787C921.604 677.472 918.534 671 912.963 671H730.15C728.183 671 726.318 671.877 725.063 673.392Z" stroke="#D0D3D7"/>
<path d="M975.018 658.411L576.881 1142.7C573.336 1147.01 576.403 1153.5 581.984 1153.5H670.608H770.069C772.06 1153.5 773.945 1152.6 775.199 1151.06L1168.11 666.769C1171.61 662.451 1168.54 656 1162.98 656H980.121C978.145 656 976.273 656.885 975.018 658.411Z" stroke="#D0D3D7"/>
<path d="M1124.02 771.411L725.881 1255.7C722.336 1260.01 725.403 1266.5 730.984 1266.5H819.608H919.069C921.06 1266.5 922.945 1265.6 924.199 1264.06L1317.11 779.769C1320.61 775.451 1317.54 769 1311.98 769H1129.12C1127.15 769 1125.27 769.885 1124.02 771.411Z" stroke="#D0D3D7"/>
<path d="M1131.28 178.392L749.965 638.679C746.397 642.985 749.46 649.5 755.052 649.5H843.608H943.083C945.066 649.5 946.944 648.609 948.199 647.074L1324.3 186.787C1327.82 182.472 1324.75 176 1319.18 176H1136.37C1134.4 176 1132.53 176.877 1131.28 178.392Z" stroke="#D0D3D7"/>
<path d="M1031.06 3.39047L707.971 393.177C704.401 397.484 707.464 404 713.057 404H901.079C903.064 404 904.944 403.107 906.199 401.569L1224.1 11.7821C1227.62 7.46667 1224.55 1 1218.98 1H1036.15C1034.18 1 1032.32 1.87625 1031.06 3.39047Z" stroke="#D0D3D7"/>
<path d="M332.063 860.39L8.97081 1250.18C5.40144 1254.48 8.46401 1261 14.0572 1261H202.079C204.064 1261 205.944 1260.11 207.199 1258.57L525.099 868.782C528.618 864.467 525.548 858 519.979 858H337.149C335.182 858 333.318 858.876 332.063 860.39Z" stroke="#D0D3D7"/>
</svg>
