<svg width="384" height="440" viewBox="0 0 384 440" fill="none" xmlns="http://www.w3.org/2000/svg">
<g opacity="0.5">
<path d="M261.505 268L259 270.825V268H261.505Z" fill="#CFD5D8"/>
<path d="M274.766 268L259 285.786V279.076L268.818 268H274.766Z" fill="#CFD5D8"/>
<path d="M288.015 268L259 300.733V294.037L282.079 268H288.015Z" fill="#CFD5D8"/>
<path d="M301.264 268L259 315.68V308.984L295.328 268H301.264Z" fill="#CFD5D8"/>
<path d="M314.526 268L259 330.627V323.93L308.577 268H314.526Z" fill="#CFD5D8"/>
<path d="M324.607 268V271.574L262.181 341.999H259V338.877L321.839 268H324.607Z" fill="#CFD5D8"/>
<path d="M324.607 279.825V286.522L275.442 342H269.494L324.607 279.825Z" fill="#CFD5D8"/>
<path d="M324.609 294.771V301.482L288.694 341.999H282.758L324.609 294.771Z" fill="#CFD5D8"/>
<path d="M324.607 309.732V316.429L301.941 341.999H296.005L324.607 309.732Z" fill="#CFD5D8"/>
<path d="M324.608 324.68V331.39L315.191 342H309.255L324.608 324.68Z" fill="#CFD5D8"/>
<path d="M324.606 339.625V341.998H322.502L324.606 339.625Z" fill="#CFD5D8"/>
</g>
<g opacity="0.22">
<path d="M2.50455 366L0 368.825V366H2.50455Z" fill="#CFD5D8"/>
<path d="M15.7661 366L0 383.786V377.076L9.81782 366H15.7661Z" fill="#CFD5D8"/>
<path d="M29.0152 366L0 398.733V392.037L23.0794 366H29.0152Z" fill="#CFD5D8"/>
<path d="M42.2642 366L0 413.68V406.984L36.3284 366H42.2642Z" fill="#CFD5D8"/>
<path d="M55.5258 366L0 428.627V421.93L49.5775 366H55.5258Z" fill="#CFD5D8"/>
<path d="M65.6066 366V369.574L3.18077 439.999H0V436.877L62.8391 366H65.6066Z" fill="#CFD5D8"/>
<path d="M65.6067 377.825V384.522L16.4424 440H10.4941L65.6067 377.825Z" fill="#CFD5D8"/>
<path d="M65.6088 392.771V399.482L29.6936 439.999H23.7578L65.6088 392.771Z" fill="#CFD5D8"/>
<path d="M65.6068 407.732V414.429L42.9407 439.999H37.0049L65.6068 407.732Z" fill="#CFD5D8"/>
<path d="M65.6077 422.68V429.39L56.1907 440H50.2549L65.6077 422.68Z" fill="#CFD5D8"/>
<path d="M65.6058 437.625V439.998H63.502L65.6058 437.625Z" fill="#CFD5D8"/>
</g>
<rect x="383.27" width="4.50765" height="11.2691" transform="rotate(90 383.27 0)" fill="#132239"/>
<rect x="383.27" y="69.1172" width="4.50765" height="11.2691" transform="rotate(90 383.27 69.1172)" fill="#132239"/>
<rect x="383.27" y="154.763" width="4.50765" height="11.2691" transform="rotate(90 383.27 154.763)" fill="#132239"/>
<rect x="383.27" y="292.997" width="4.50765" height="11.2691" transform="rotate(90 383.27 292.997)" fill="#132239"/>
</svg>
