<svg width="79" height="285" viewBox="0 0 79 285" fill="none" xmlns="http://www.w3.org/2000/svg">
<path fill-rule="evenodd" clip-rule="evenodd" d="M73.9575 25.1665L54.1529 4.98909L54.141 4.97601C52.0033 2.61502 49.3436 1.85019 48.3419 1.75438L39.0618 1.75438L6.71667 2.047L6.68852 2.04543C4.77254 1.93855 3.71735 2.45275 3.14439 2.99785C2.55177 3.56165 2.36876 4.25722 2.36876 4.67835L2.36876 124.877L2.36755 124.9C2.31141 125.971 2.4046 126.569 2.5183 126.869C2.53893 126.923 2.55772 126.961 2.57238 126.987C2.58905 126.982 2.60986 126.975 2.63506 126.965C2.72225 126.931 2.83367 126.87 2.96481 126.777C3.22907 126.589 3.50581 126.319 3.74034 126.041L3.76809 126.008L23.3205 106.963L23.331 106.953C25.7302 104.763 27.1203 101.816 27.872 98.9707C28.6241 96.1243 28.7185 93.4489 28.5815 91.8897L28.5781 91.8512L28.5781 33.918C28.5781 31.7302 29.2801 30.2411 30.2726 29.3028C31.2412 28.3871 32.4098 28.0701 33.2376 28.0701L36.441 28.0701C38.1557 28.0701 39.7377 28.6745 40.9932 29.3907C42.2362 30.0998 43.2183 30.9521 43.7682 31.5547L76.4847 63.8375C76.5441 63.5544 76.5942 63.2851 76.6286 63.084L76.6286 32.0966L76.6388 32.0303C76.8345 30.7531 76.4716 29.3556 75.8678 28.0719C75.2717 26.8046 74.485 25.7427 73.9575 25.1665ZM78.3759 32.2281C78.6227 30.4872 78.1164 28.7444 77.4477 27.3227C76.766 25.8733 75.8695 24.6597 75.2321 23.9664L75.2224 23.9558L55.4218 3.78257C52.9266 1.03478 49.8064 0.11625 48.4533 0.00303036L48.4171 3.58013e-07L39.0618 4.69573e-07L39.054 3.60929e-05L6.75673 0.292183C4.49476 0.171818 2.93798 0.77737 1.94259 1.72436C0.962631 2.65666 0.62146 3.83242 0.62146 4.67835L0.621461 124.831C0.563402 125.971 0.643098 126.854 0.885088 127.493C1.01051 127.824 1.19444 128.129 1.46332 128.361C1.7425 128.602 2.07008 128.725 2.40574 128.748C3.02371 128.789 3.58405 128.486 3.97319 128.21C4.37818 127.922 4.75041 127.554 5.04539 127.208L24.5171 108.241C27.2366 105.754 28.7557 102.468 29.5609 99.4205C30.3609 96.3929 30.4746 93.5328 30.3254 91.7747L30.3254 33.918C30.3254 32.1293 30.8855 31.133 31.4704 30.5801C32.0791 30.0046 32.8034 29.8245 33.2376 29.8245L36.441 29.8245C37.7548 29.8245 39.0365 30.2922 40.1301 30.9161C41.2232 31.5397 42.0683 32.2852 42.4925 32.7537L42.509 32.772L77.1642 66.9678L77.7013 65.8892C77.8711 65.5481 78.0118 65.0096 78.1133 64.5687C78.2224 64.0946 78.3131 63.6086 78.364 63.3019L78.3759 63.2303L78.3759 32.2281ZM56.5687 127.629C58.304 125.04 58.1309 123.316 57.9186 121.202C57.7934 119.956 57.6546 118.574 57.8852 116.799L57.8281 116.648L57.8281 104.417L57.8422 104.339C58.0305 103.297 57.7488 102.738 57.4462 102.421C57.1162 102.075 56.6535 101.906 56.3266 101.864L50.2417 101.864L50.2107 101.862C47.2022 101.646 45.2819 102.864 44.7869 103.362L3.20459 145.212L3.17425 145.237C1.99277 146.228 1.74433 147.436 1.74433 147.78L1.74433 170.884C1.74433 171.921 2.00197 172.347 2.15284 172.504C2.30049 172.657 2.44097 172.656 2.47278 172.651L2.54394 172.639L9.29966 172.639C10.7289 172.639 12.1806 172.121 13.4456 171.429C14.7035 170.741 15.7096 169.918 16.2343 169.39L56.5687 127.629ZM59.5717 116.331C59.4685 117.31 59.5643 118.387 59.6669 119.539C59.9095 122.264 60.1897 125.411 57.9664 128.681L57.9242 128.743L17.4758 170.623L17.4714 170.627C16.8326 171.27 15.6904 172.199 14.2782 172.971C12.8698 173.741 11.1251 174.393 9.29966 174.393L2.67619 174.393C2.13772 174.458 1.44998 174.296 0.899935 173.724C0.324328 173.126 0.000787881 172.187 0.000787865 170.884L0.00078759 147.78C0.00078758 146.96 0.443903 145.261 2.02657 143.916L43.554 102.121C44.4124 101.257 46.8196 99.8687 50.3033 100.11L56.4186 100.11L56.4618 100.114C57.1022 100.178 58.0107 100.478 58.7041 101.206C59.4249 101.961 59.8201 103.082 59.5717 104.572L59.5717 116.331ZM76.6543 157.495C76.699 158.338 76.6182 159.802 76.2153 161.356C75.8115 162.914 75.1051 164.482 73.9581 165.62L73.9559 165.622L35.5536 203.112C34.0394 204.312 31.8857 206.57 30.1883 209.547C28.4738 212.554 27.196 216.348 27.5709 220.56L27.5711 220.562C27.6493 221.415 27.8176 222.406 28.1015 223.34C28.3806 224.257 28.7952 225.199 29.4117 225.884C30.0592 226.603 30.9759 227.075 32.116 226.845C33.1548 226.635 34.2087 225.871 35.3072 224.609L40.9165 219.34L40.9388 219.315C41.4348 218.774 42.2082 217.919 42.9183 217.109C43.5606 216.377 44.1973 215.63 44.5047 215.199C46.0308 213.831 50.6823 211.454 57.0619 213.374C57.1166 213.419 57.2477 213.544 57.3835 213.805C57.5579 214.141 57.7285 214.684 57.7285 215.499L57.7285 236.941L57.7321 236.981C57.817 237.907 57.5566 240.133 55.9615 241.516L55.9406 241.535L16.5932 280.254L16.5908 280.256C16.049 280.794 15.0621 281.608 13.9127 282.253C12.7442 282.909 11.5318 283.321 10.4974 283.227L10.4573 283.224L4.16323 283.224L4.11921 283.228C3.80383 283.259 3.27285 283.19 2.81508 282.867C2.39731 282.571 1.94728 281.999 1.84191 280.84L1.84191 204.879L1.83209 204.814C1.58958 203.211 2.31166 198.229 8.06075 192.985L8.07145 192.975L75.5384 127.255L75.5716 127.214C75.7371 127.009 75.9409 126.798 76.1453 126.637C76.2867 126.526 76.3954 126.465 76.4674 126.433C76.5254 126.552 76.6096 126.806 76.653 127.289L76.653 157.472L76.6543 157.495ZM75.2104 166.866C76.6643 165.425 77.485 163.524 77.9336 161.794C78.3797 160.073 78.4783 158.442 78.4272 157.426L78.4272 127.214L78.4242 127.178C78.3602 126.417 78.194 125.768 77.8453 125.307C77.6602 125.062 77.4197 124.866 77.1247 124.751C76.8322 124.638 76.5398 124.626 76.2798 124.667C75.7885 124.743 75.358 125.011 75.0429 125.259C74.7278 125.507 74.4446 125.8 74.2209 126.072L6.84883 191.7C0.838854 197.187 -0.25012 202.662 0.0677286 205.006L0.0677295 280.915L0.0707965 280.951C0.207943 282.583 0.886577 283.664 1.78539 284.299C2.62802 284.895 3.57939 285.038 4.24775 284.983L10.3789 284.983C11.9331 285.11 13.5127 284.499 14.787 283.784C16.0911 283.052 17.2031 282.137 17.8442 281.501L17.8454 281.5L57.1515 242.821C59.297 240.943 59.6041 238.106 59.5026 236.863L59.5026 215.499C59.5026 213.403 58.6147 212.169 57.8295 211.78L57.7648 211.748L57.6957 211.727C50.5056 209.514 45.1118 212.216 43.2228 213.979L43.1489 214.048L43.0927 214.131C42.8946 214.426 42.2978 215.136 41.5793 215.955C40.8904 216.741 40.1386 217.573 39.6482 218.108L34.0206 223.394L33.9906 223.429C32.9711 224.608 32.2312 225.026 31.7623 225.121C31.3851 225.197 31.071 225.086 30.7353 224.713C30.3686 224.305 30.0476 223.646 29.8001 222.832C29.5573 222.034 29.4077 221.163 29.338 220.403C29.0038 216.642 30.1408 213.205 31.7328 210.412C33.3282 207.614 35.3515 205.516 36.6939 204.461L36.7312 204.431L75.2056 166.871L75.2104 166.866Z" fill="#DEE3EB"/>
</svg>
