<svg width="382" height="106" viewBox="0 0 382 106" fill="none" xmlns="http://www.w3.org/2000/svg">
<path fill-rule="evenodd" clip-rule="evenodd" d="M33.6998 6.05409L6.68075 32.8058L6.66324 32.8218C3.50169 35.7093 2.47754 39.3021 2.34924 40.655V53.1904L2.74108 96.8814L2.73897 96.9195C2.59586 99.5075 3.2844 100.933 4.01434 101.707C4.7693 102.507 5.70073 102.755 6.26465 102.755H167.219L167.249 102.756C168.684 102.832 169.485 102.706 169.887 102.553C169.96 102.525 170.01 102.499 170.044 102.479C170.038 102.457 170.029 102.429 170.016 102.395C169.969 102.277 169.888 102.127 169.763 101.949C169.512 101.592 169.151 101.219 168.778 100.902L168.734 100.864L143.231 74.4533L143.218 74.4392C140.285 71.1985 136.339 69.3207 132.529 68.3053C128.717 67.2894 125.135 67.1618 123.047 67.3469L122.995 67.3515H45.4187C42.489 67.3515 40.495 66.4034 39.2385 65.0627C38.0123 63.7543 37.5879 62.1757 37.5879 61.0576V56.7306C37.5879 54.4143 38.3972 52.2774 39.3563 50.5815C40.3059 48.9025 41.4471 47.576 42.254 46.8331L85.483 2.64049C85.104 2.56022 84.7433 2.49251 84.474 2.44603H42.9796L42.8908 2.4323C41.1806 2.16797 39.3092 2.65817 37.5903 3.47377C35.8933 4.27893 34.4713 5.34162 33.6998 6.05409ZM43.1558 0.0858249C40.8246 -0.247503 38.4908 0.436309 36.587 1.33961C34.6462 2.26049 33.0211 3.47148 32.0927 4.33245L32.0786 4.34553L5.06513 31.0917C1.38564 34.4622 0.155667 38.6768 0.00405739 40.5046L0 40.5535V53.1904L4.77021e-05 53.201L0.391254 96.8273C0.230075 99.8827 1.04095 101.986 2.30904 103.33C3.55746 104.654 5.13189 105.115 6.26465 105.115H167.157C168.684 105.193 169.866 105.085 170.722 104.759C171.165 104.589 171.574 104.341 171.885 103.978C172.207 103.6 172.373 103.158 172.402 102.705C172.457 101.87 172.052 101.113 171.682 100.587C171.297 100.04 170.804 99.5374 170.341 99.139L144.943 72.837C141.612 69.1636 137.212 67.1116 133.131 66.024C129.077 64.9434 125.247 64.7898 122.893 64.9913H45.4187C43.0234 64.9913 41.6894 64.2348 40.9489 63.4448C40.1783 62.6224 39.9371 61.6441 39.9371 61.0576V56.7306C39.9371 54.9558 40.5635 53.2246 41.3989 51.7474C42.2339 50.2709 43.2322 49.1293 43.8596 48.5563L43.884 48.534L89.6747 1.72262L88.2304 0.997063C87.7737 0.767658 87.0525 0.577716 86.4622 0.440619C85.8273 0.293183 85.1765 0.170632 84.7658 0.101875L84.6699 0.0858249H43.1558ZM170.895 29.5189C165.384 25.7929 158.903 26.7825 156.394 27.7405L156.191 27.8176H139.813L139.709 27.7987C138.313 27.5442 137.564 27.9248 137.139 28.3336C136.676 28.7794 136.45 29.4042 136.395 29.8459V38.0652L136.392 38.1071C136.102 42.1708 137.733 44.7648 138.4 45.4335L194.44 101.602L194.474 101.643C195.801 103.239 197.418 103.574 197.879 103.574H228.817C230.205 103.574 230.776 103.226 230.986 103.023C231.191 102.823 231.19 102.633 231.182 102.59L231.166 102.494V93.3688C231.166 91.4382 230.473 89.4772 229.547 87.7685C228.625 86.0694 227.523 84.7104 226.817 84.0016L170.895 29.5189ZM155.766 25.4625C158.855 24.3595 166.072 23.3573 172.304 27.6308L172.387 27.6879L228.467 82.3246L228.473 82.3305C229.334 83.1934 230.577 84.7363 231.611 86.6439C232.643 88.5463 233.516 90.903 233.516 93.3688V102.316C233.602 103.043 233.386 103.972 232.62 104.715C231.818 105.492 230.562 105.929 228.817 105.929H197.879C196.781 105.929 194.505 105.331 192.704 103.193L136.739 47.0988C135.582 45.9392 133.722 42.6877 134.045 37.982V29.7216L134.051 29.6632C134.137 28.7983 134.539 27.571 135.512 26.6344C136.524 25.6608 138.025 25.127 140.021 25.4625H155.766ZM210.91 2.41138C212.038 2.35094 213.999 2.46008 216.08 3.00439C218.166 3.54978 220.265 4.50402 221.79 6.0533L221.793 6.05626L271.994 57.9293C273.601 59.9746 276.624 62.8838 280.611 65.1765C284.638 67.4925 289.718 69.2184 295.358 68.712L295.362 68.7118C296.504 68.6061 297.831 68.3788 299.08 67.9954C300.309 67.6183 301.571 67.0583 302.488 66.2255C303.451 65.3509 304.082 64.1127 303.774 62.5727C303.493 61.1694 302.47 59.7458 300.78 58.2621L293.724 50.6851L293.692 50.655C292.967 49.985 291.822 48.9404 290.737 47.9812C289.756 47.1136 288.756 46.2535 288.18 45.8382C286.348 43.7768 283.164 37.4937 285.736 28.8763C285.796 28.8025 285.964 28.6253 286.313 28.4419C286.763 28.2063 287.49 27.9759 288.581 27.9759H317.293L317.347 27.971C318.587 27.8563 321.567 28.208 323.42 30.3626L323.445 30.391L375.293 83.5404L375.296 83.5436C376.015 84.2756 377.106 85.6086 377.97 87.1612C378.848 88.7396 379.399 90.3773 379.274 91.7745L379.27 91.8286V100.331L379.275 100.39C379.317 100.816 379.224 101.533 378.791 102.152C378.396 102.716 377.63 103.324 376.078 103.466H274.36L274.273 103.479C272.126 103.807 265.455 102.832 258.433 95.0659L258.42 95.0514L170.416 3.91865L170.361 3.87387C170.086 3.65029 169.804 3.37492 169.589 3.09886C169.44 2.90789 169.358 2.76103 169.316 2.6638C169.475 2.58542 169.815 2.47176 170.461 2.41303H210.879L210.91 2.41138ZM223.458 4.36167C221.528 2.39781 218.983 1.28925 216.667 0.683331C214.362 0.0806975 212.178 -0.0524799 210.818 0.0165163H170.361L170.313 0.0206554C169.294 0.106993 168.425 0.331562 167.807 0.802606C167.48 1.0526 167.217 1.37742 167.064 1.77592C166.912 2.17104 166.896 2.56602 166.95 2.91722C167.052 3.58082 167.411 4.16235 167.743 4.58804C168.075 5.01359 168.468 5.39619 168.832 5.69832L256.712 96.7029C264.061 104.821 271.391 106.292 274.531 105.863H376.178L376.227 105.859C378.412 105.673 379.859 104.757 380.71 103.543C381.507 102.404 381.699 101.119 381.625 100.216V91.9346C381.795 89.8352 380.978 87.7015 380.02 85.9803C379.039 84.2187 377.814 82.7167 376.963 81.8507L376.962 81.8491L325.168 28.7552C322.652 25.8572 318.854 25.4424 317.19 25.5794H288.581C285.774 25.5794 284.123 26.7788 283.602 27.8394L283.559 27.9268L283.53 28.0202C280.567 37.7324 284.185 45.0182 286.545 47.5699L286.638 47.6696L286.75 47.7456C287.144 48.0131 288.095 48.8193 289.192 49.7898C290.244 50.7204 291.358 51.7359 292.075 52.3982L299.153 59.9999L299.2 60.0404C300.779 61.4176 301.339 62.4171 301.466 63.0504C301.567 63.5599 301.418 63.9842 300.919 64.4377C300.374 64.933 299.49 65.3665 298.4 65.7009C297.331 66.0289 296.165 66.231 295.149 66.3251C290.112 66.7765 285.509 65.2407 281.77 63.0902C278.023 60.9353 275.214 58.2023 273.8 56.3889L273.761 56.3386L223.465 4.36824L223.458 4.36167Z" fill="#CCCED1"/>
</svg>
