<svg width="42" height="42" viewBox="0 0 42 42" fill="none" xmlns="http://www.w3.org/2000/svg">
<path opacity="0.2" d="M41 1H1V41H41V1Z" stroke="#FA0339" stroke-miterlimit="10"/>
<g clip-path="url(#clip0_2061_3346)">
<path d="M20.2545 21.9103C19.9327 22.2011 19.8513 22.7232 20.1576 23.0204C20.3954 23.2518 20.4174 23.4922 20.4006 23.7739C20.4006 23.9148 20.3915 24.0569 20.4031 24.1965C20.4212 24.4253 20.5983 24.5778 20.827 24.5765C21.0545 24.5752 21.2277 24.4188 21.2432 24.1888C21.2535 24.022 21.2535 23.854 21.2445 23.6873C21.2315 23.4456 21.2664 23.2492 21.4629 23.0566C21.773 22.7555 21.7304 22.2528 21.4228 21.9413C21.1075 21.6234 20.5918 21.6092 20.2545 21.9103Z" fill="#FA0339"/>
<path d="M22.8341 16.5007C22.6765 15.5495 21.8041 14.8193 20.8258 14.8193C19.863 14.8193 18.9389 15.5366 18.833 16.4762C18.7451 17.2503 18.7852 18.0373 18.7696 18.8192C18.7683 18.8929 18.7787 18.9665 18.7839 19.0686C20.1512 18.4393 21.5004 18.4444 22.8807 19.0725C22.8807 18.2816 22.882 17.5346 22.8781 16.7876C22.8781 16.6907 22.8509 16.5963 22.8341 16.5007Z" fill="#FA0339"/>
<path d="M10 10V31.6692H31.6679V10H10ZM15.2173 16.1905L11.5922 12.5666L12.4154 11.7434L16.0392 15.3685L15.2173 16.1905ZM25.1246 24.6128C24.5766 26.2179 23.4251 27.2221 21.7619 27.5956C19.3348 28.1397 16.8341 26.5553 16.3585 24.0002C16.0548 22.3757 16.5329 20.9619 17.7387 19.8155C17.8731 19.6876 17.93 19.57 17.9248 19.3878C17.9132 18.9561 17.9209 18.5258 17.9209 18.0941C17.9739 17.4311 17.9003 16.7462 18.0437 16.1039C18.3371 14.7947 19.6346 13.9017 21.0019 13.9715C22.3331 14.0399 23.5182 15.0855 23.6707 16.4179C23.7586 17.1727 23.7534 17.9455 23.7185 18.708C23.6901 19.3089 23.8503 19.7445 24.2678 20.2136C25.4025 21.4853 25.6726 23.0077 25.1246 24.6128ZM29.6311 30.6043L26.006 26.9804L26.8292 26.1572L30.453 29.7823L29.6311 30.6043Z" fill="#FA0339"/>
</g>
<path d="M37.2568 1H41.0004V4.74356" stroke="#FA0339" stroke-width="2" stroke-miterlimit="10"/>
<path d="M1 4.74356V1H4.74356" stroke="#FA0339" stroke-width="2" stroke-miterlimit="10"/>
<path d="M1 37.2559V40.9994H4.74356" stroke="#FA0339" stroke-width="2" stroke-miterlimit="10"/>
<path d="M41.0004 37.2559V40.9994H37.2568" stroke="#FA0339" stroke-width="2" stroke-miterlimit="10"/>
<defs>
<clipPath id="clip0_2061_3346">
<rect width="21.6679" height="21.6692" fill="white" transform="translate(10 10)"/>
</clipPath>
</defs>
</svg>
