<svg width="220" height="51" viewBox="0 0 220 51" fill="none" xmlns="http://www.w3.org/2000/svg">
<path d="M36.1482 38.3322C34.2176 38.3322 32.8058 37.9916 31.9282 37.3143C31.0506 36.6369 30.5813 35.5726 30.5241 34.125C30.4974 33.4709 30.566 32.5574 30.7644 31.3924L34.8815 7.05107C35.2859 4.66686 36.072 2.91354 37.2014 1.79498C38.3308 0.676416 40.1393 0.111328 42.6272 0.111328H58.4506C60.4766 0.111328 61.9189 0.451929 62.7736 1.12926C63.6283 1.80659 64.0861 2.87096 64.1434 4.31852C64.17 4.97264 64.1014 5.88993 63.903 7.05107L59.786 31.3924C59.3853 33.7727 58.5954 35.53 57.4699 36.6485C56.3404 37.767 54.5013 38.3322 51.9716 38.3322H36.1482ZM53.7345 9.78749C53.8107 9.31917 53.8451 9.0405 53.8413 8.9476C53.8145 8.20061 53.1698 7.82517 51.9334 7.82517H46.1947C45.4621 7.82517 44.9433 7.95289 44.6533 8.21221C44.3633 8.46767 44.1916 8.99792 44.058 9.78749L40.8872 28.7295C40.8567 28.9192 40.8186 29.0818 40.8033 29.2212C40.7842 29.3604 40.7804 29.5036 40.7842 29.643C40.811 30.2971 41.3298 30.626 42.3448 30.626H48.0797C48.9076 30.626 49.5029 30.4868 49.8615 30.2042C50.2202 29.9256 50.4491 29.4339 50.5637 28.7334L53.7345 9.78749Z" fill="#190134"/>
<path d="M6.77318 38.4015C4.42658 38.4015 2.72863 37.9797 1.68315 37.1397C0.637684 36.2998 0.0806048 34.9916 0.0119238 33.2151C-0.00715427 32.7468 -0.00333865 32.2707 0.0233706 31.7792C0.0500799 31.2877 0.134023 30.7419 0.237045 30.1342L3.85043 8.76536C4.32356 5.95927 5.2851 3.88471 6.68162 2.53004C8.07813 1.17538 10.253 0.498047 13.2025 0.498047H30.6246L29.3539 8.20802H17.1097C16.007 8.20802 15.2629 8.38219 14.8852 8.73439C14.5074 9.08274 14.2213 9.79878 14.0343 10.8709L11.0238 28.0984C10.9856 28.3305 10.9589 28.5319 10.9436 28.6945C10.9284 28.8569 10.9208 29.0349 10.9284 29.2208C10.9475 29.7355 11.123 30.111 11.4549 30.3433C11.7869 30.5754 12.3898 30.6954 13.2674 30.6954H25.6451L24.3327 38.4053H6.77318V38.4015Z" fill="#190134"/>
<path d="M144.201 38.719C142.221 38.719 140.79 38.3783 139.913 37.7009C139.035 37.0236 138.566 35.9592 138.512 34.5116C138.486 33.8575 138.554 32.9442 138.753 31.7792L142.87 7.43779C143.274 5.05358 144.056 3.30026 145.19 2.1817C146.319 1.05926 148.151 0.498047 150.684 0.498047H167.027C168.778 0.498047 170.045 0.838649 170.831 1.51598C171.616 2.19331 172.036 3.21124 172.09 4.56591C172.121 5.4058 172.063 6.27279 171.915 7.15912L170.942 12.9068L170.105 17.8803C169.957 18.7666 169.724 19.6336 169.407 20.4735C168.899 21.8282 168.137 22.8461 167.122 23.5235C166.107 24.2008 164.722 24.5414 162.974 24.5414H158.014H149.482L148.727 28.9073C148.689 29.1357 148.662 29.3369 148.647 29.5033C148.631 29.6658 148.624 29.8169 148.631 29.9561C148.647 30.3781 148.776 30.6568 149.009 30.796C149.242 30.9354 149.662 31.0051 150.261 31.0051H167.24L165.954 38.715H144.201V38.719ZM159.311 16.8315C159.864 16.8315 160.274 16.7618 160.533 16.6224C160.792 16.4831 160.993 16.2237 161.131 15.8522C161.272 15.4767 161.364 15.1749 161.405 14.9426L162.222 10.1084C162.261 9.87619 162.269 9.57041 162.257 9.19885C162.242 8.82729 162.127 8.56797 161.913 8.42863C161.699 8.2893 161.319 8.21963 160.764 8.21963H154.16C153.378 8.21963 152.851 8.34736 152.589 8.60668C152.32 8.86212 152.096 9.3885 151.958 10.182L150.81 16.8392H159.311V16.8315Z" fill="#190134"/>
<path d="M183.879 3.01385C182.484 4.36851 181.522 6.44308 181.049 9.24917L188.149 10.8709C188.337 9.79878 188.623 9.08274 189 8.73439C189.378 8.38219 190.122 8.20802 191.225 8.20802H203.279L204.551 0.498047H187.317C184.369 0.498047 185.276 1.65918 183.879 3.01385Z" fill="#190134"/>
<path d="M173.795 38.6221L180.239 0.498047H189.912C187.756 13.1119 187.363 15.531 184.875 30.1652L184.815 30.5328L184.674 31.3612L184.528 32.2165L184.38 33.0991L184.224 34.0086C183.395 38.8737 184.292 33.7569 183.463 38.6221H173.795Z" fill="#190134"/>
<path d="M94.0574 0.50192C96.4041 0.50192 98.1019 0.923797 99.1474 1.76369C100.193 2.60359 100.75 3.9118 100.819 5.68835C100.838 6.15667 100.834 6.63274 100.807 7.12429C100.78 7.61584 100.697 8.16157 100.594 8.76923L96.9801 30.138C96.5071 32.9441 95.5456 35.0187 94.149 36.3734C92.7525 37.7281 90.5776 38.4054 87.628 38.4054H70.2061L71.4767 30.6954H83.7209C84.8236 30.6954 85.5677 30.5212 85.9455 30.1691C86.3232 29.8207 86.6094 29.1047 86.7964 28.0325L89.8069 10.8051C89.845 10.5729 89.8717 10.3716 89.887 10.209C89.9022 10.0465 89.9099 9.86843 89.9022 9.68266C89.8832 9.16788 89.7076 8.79245 89.3756 8.56022C89.0437 8.32799 88.4408 8.20801 87.5632 8.20801H75.1855L76.4979 0.498047H94.0574V0.50192Z" fill="#190134"/>
<path d="M72.2612 0.498047L64.0996 48.5963H73.7683L81.9337 0.498047H72.2612Z" fill="#190134"/>
<path d="M130.306 0.50192C132.652 0.50192 134.35 0.923797 135.396 1.76369C136.441 2.60359 136.998 3.9118 137.067 5.68835C137.086 6.15667 137.082 6.63274 137.055 7.12429C137.029 7.61584 136.945 8.16157 136.842 8.76923L133.228 30.138C132.755 32.9441 131.794 35.0187 130.397 36.3734C129.001 37.7281 126.826 38.4054 123.876 38.4054H106.454L107.725 30.6954H119.969C121.072 30.6954 121.816 30.5212 122.194 30.1691C122.571 29.8207 122.857 29.1047 123.044 28.0325L126.055 10.8051C126.093 10.5729 126.12 10.3716 126.135 10.209C126.15 10.0465 126.158 9.86843 126.15 9.68266C126.131 9.16788 125.956 8.79245 125.624 8.56022C125.292 8.32799 124.689 8.20801 123.811 8.20801H111.434L112.746 0.498047H130.306V0.50192Z" fill="#190134"/>
<path d="M100.344 48.5963L108.505 0.498047H118.178C116.022 13.1119 115.629 15.531 113.141 30.1652L113.08 30.5328L112.939 31.3612L112.794 32.2165L112.645 33.0991L112.489 34.0086C111.661 38.8737 110.841 43.7311 110.012 48.5963H100.344Z" fill="#190134"/>
<path d="M215.91 50.1118C214.803 50.1118 213.765 49.6301 213.05 48.8027C211.36 49.6595 209.477 50.1118 207.574 50.1118C200.891 50.1118 195.451 44.6731 195.451 37.9918C195.451 31.3106 200.891 25.8691 207.574 25.8691C214.254 25.8691 219.691 31.3237 219.694 38.0264L219.438 38.0291L219.694 38.0264V38.0291V46.3281C219.694 48.4142 217.997 50.1118 215.91 50.1118ZM213.37 47.4191L213.641 47.8288C214.145 48.5926 214.995 49.0476 215.907 49.0476C217.407 49.0476 218.627 47.8262 218.627 46.3281V38.0317C218.627 31.9118 213.666 26.9361 207.571 26.9361C201.475 26.9334 196.515 31.8933 196.515 37.9918C196.515 44.0904 201.475 49.0501 207.574 49.0501C209.45 49.0501 211.307 48.5686 212.941 47.6586L213.37 47.4191Z" fill="#190134"/>
<path fill-rule="evenodd" clip-rule="evenodd" d="M207.102 47.3466C212.267 47.5462 216.617 43.5124 216.811 38.3397C216.831 37.8928 216.817 37.459 216.772 37.0253C216.79 37.5494 216.649 38.1002 216.325 38.494C215.593 39.38 214.334 39.1672 214.126 38.2546C214.017 37.757 214.231 37.153 214.657 36.8683C212.296 36.493 211.626 38.7708 210.391 39.9814C209.061 41.2905 206.999 40.8169 206.647 39.2631C206.453 38.4009 206.816 37.3526 207.547 36.8417C206.317 36.557 205.381 36.9188 204.516 37.7862C203.694 38.6031 203.106 39.6887 202.111 40.2714C201.175 40.8276 199.873 40.8808 199.04 40.0958C198.426 39.5185 198.135 38.5925 198.109 37.6159C197.912 42.7939 201.938 47.1444 207.102 47.3466Z" fill="url(#paint0_linear_3752_6203)"/>
<path fill-rule="evenodd" clip-rule="evenodd" d="M206.61 34.0682C211.341 34.0364 210.689 28.2544 206.551 28.6481C201.962 29.0872 198.284 32.8762 198.103 37.6231C198.13 38.5996 198.419 39.5255 199.034 40.103C199.868 40.8852 201.168 40.8346 202.106 40.2786C202.512 40.0445 202.848 39.7225 203.159 39.3713C202.259 40.4196 200.884 39.914 200.807 38.5676C200.734 37.2532 201.459 35.9255 202.501 35.1485C203.63 34.2997 205.104 34.0735 206.61 34.0682Z" fill="url(#paint1_linear_3752_6203)"/>
<path fill-rule="evenodd" clip-rule="evenodd" d="M212.585 30.972C213.458 31.0039 214.137 31.7356 214.099 32.6111C214.067 33.4785 213.335 34.1597 212.471 34.125C211.599 34.0852 210.924 33.3535 210.959 32.4861C210.99 31.6106 211.718 30.9374 212.585 30.972Z" fill="url(#paint2_linear_3752_6203)"/>
<path fill-rule="evenodd" clip-rule="evenodd" d="M214.944 33.9674C215.459 33.9861 215.862 34.4198 215.842 34.9386C215.824 35.4576 215.382 35.8646 214.866 35.8461C214.35 35.8194 213.948 35.3856 213.966 34.8668C213.988 34.3506 214.427 33.9488 214.944 33.9674Z" fill="url(#paint3_linear_3752_6203)"/>
<defs>
<linearGradient id="paint0_linear_3752_6203" x1="208.567" y1="33.2965" x2="205.711" y2="46.3065" gradientUnits="userSpaceOnUse">
<stop stop-color="#521C89"/>
<stop offset="0.5164" stop-color="#8D1AF1"/>
<stop offset="1" stop-color="#FFA5F6"/>
</linearGradient>
<linearGradient id="paint1_linear_3752_6203" x1="202.642" y1="40.0381" x2="204.704" y2="31.312" gradientUnits="userSpaceOnUse">
<stop stop-color="#1837D8"/>
<stop offset="0.5074" stop-color="#00C1FF"/>
<stop offset="1" stop-color="#70E6FF"/>
</linearGradient>
<linearGradient id="paint2_linear_3752_6203" x1="210.327" y1="41.8525" x2="212.39" y2="33.1264" gradientUnits="userSpaceOnUse">
<stop stop-color="#1837D8"/>
<stop offset="0.5074" stop-color="#00C1FF"/>
<stop offset="1" stop-color="#70E6FF"/>
</linearGradient>
<linearGradient id="paint3_linear_3752_6203" x1="213.107" y1="42.5077" x2="215.171" y2="33.7815" gradientUnits="userSpaceOnUse">
<stop stop-color="#1837D8"/>
<stop offset="0.5074" stop-color="#00C1FF"/>
<stop offset="1" stop-color="#70E6FF"/>
</linearGradient>
</defs>
</svg>
