<svg width="1920" height="1080" viewBox="0 0 1920 1080" fill="none" xmlns="http://www.w3.org/2000/svg">
<path fill-rule="evenodd" clip-rule="evenodd" d="M1915.5 0H0V1074H1915.5V0ZM433.195 1073.78H350.599L348.711 1071.64V978.991H360.37V976.843H433.223L435.119 979.002V1071.59L433.195 1073.78ZM349.648 976.096H433.22L435.094 973.963V881.314L433.198 879.155H350.597L348.686 881.33V963.883H349.648V976.096ZM348.055 963.883V881.314L346.159 879.155H263.558L261.647 881.33V973.947L263.535 976.096H347.125V963.883H348.055ZM336.403 976.843H263.533L261.673 978.961V1071.64L263.56 1073.78H346.156L348.081 1071.59V978.991H336.403V976.843ZM261.017 978.973V1071.62L259.118 1073.78H176.522L174.609 1071.61V978.99L176.494 976.843H259.146L261.017 978.973ZM173.978 978.973V1071.62L172.079 1073.78H89.4831L87.57 1071.61V978.991H98.3249V976.843H172.107L173.978 978.973ZM87.5775 976.096H172.104L173.978 973.963V881.314L172.082 879.155H89.4806L87.57 881.33V963.883H87.5775V976.096ZM86.9392 963.883V881.314L85.0429 879.155H2.4419L0.531268 881.33V973.947L2.41922 976.096H85.0547V963.883H86.9392ZM85.0547 976.843H2.41665L0.531268 978.99V1071.61L2.44442 1073.78H85.0404L86.9392 1071.62V978.991H85.0547V976.843ZM85.0656 878.437H2.41923L0.531268 876.287V783.67L2.44185 781.495H85.043L86.9392 783.654V876.303L85.0656 878.437ZM85.0655 780.777H2.41927L0.531268 778.628V686.011L2.44184 683.836H85.0547V697.127H86.9392V778.644L85.0655 780.777ZM87.57 697.127V778.628L89.458 780.777H172.104L173.978 778.644V685.995L172.082 683.836H98.3249V684.92H87.5775V697.127H87.57ZM98.3249 683.117H172.104L173.978 680.984V588.335L172.082 586.176H89.4805L87.57 588.351V669.84H87.5775V682.047H98.3249V683.117ZM86.9392 669.84V588.335L85.043 586.176H2.44185L0.531268 588.351V680.968L2.41923 683.117H85.0547V669.84H86.9392ZM85.0655 585.458H2.41927L0.531268 583.308V490.692L2.44184 488.516H85.043L86.9392 490.675V583.325L85.0655 585.458ZM85.0655 487.798H2.41928L0.531268 485.649V393.032L2.44182 390.857H85.0547V404.147H86.9392V485.665L85.0655 487.798ZM87.57 404.147V485.649L89.458 487.798H172.104L173.978 485.665V393.016L172.082 390.857H98.3249V391.939H87.5775V404.147H87.57ZM98.3249 390.139H172.104L173.978 388.005V295.356L172.082 293.197H89.4805L87.57 295.372V376.859H87.5775V389.067H98.3249V390.139ZM86.9392 376.859V295.356L85.043 293.197H2.44177L0.531268 295.372V387.989L2.4193 390.139H85.0547V376.859H86.9392ZM85.0654 292.479H2.41936L0.531268 290.33V197.713L2.44175 195.538H85.043L86.9392 197.697V290.346L85.0654 292.479ZM85.0654 194.82H2.41936L0.531268 192.67V100.053L2.44175 97.8782H85.0547V110.109H86.9392V192.686L85.0654 194.82ZM87.57 110.109V192.67L89.458 194.82H172.104L173.978 192.686V100.037L172.082 97.8782H87.5775V110.109H87.57ZM98.3249 97.1601H172.104L173.978 95.0267V2.37751L172.082 0.218658H89.4804L87.57 2.39377V95H98.3249V97.1601ZM86.9392 95V2.37749L85.0431 0.218658H2.44174L0.531268 2.39377V95.0105L2.41936 97.1601H85.0547V95H86.9392ZM174.609 95.0105V2.39376L176.519 0.218658H259.12L261.017 2.37753V95.0267L259.143 97.1601H176.497L174.609 95.0105ZM261.647 95.0105V2.39376L263.558 0.218658H346.159L348.055 2.37746V95H336.403V97.1601H263.535L261.647 95.0105ZM347.125 97.8782H263.558L261.673 100.025V192.699L263.561 194.848H346.156L348.081 192.658V110.109H347.125V97.8782ZM348.711 110.109V192.699L350.599 194.848H433.195L435.119 192.658V100.066L433.198 97.8782H349.648V110.109H348.711ZM360.37 97.1601H433.22L435.094 95.0268V2.37746L433.198 0.218658H350.596L348.686 2.39379V95H360.37V97.1601ZM435.725 95.0104V2.39383L437.635 0.218658H520.237L522.133 2.37743V95.0268L520.259 97.1601H437.613L435.725 95.0104ZM522.763 95.0104V2.39382L524.674 0.218658H607.275L609.171 2.37743V95H597.529V97.1601H524.651L522.763 95.0104ZM608.251 97.8782H524.674L522.789 100.025V192.699L524.677 194.848H607.272L609.197 192.658V110.109H608.251V97.8782ZM609.827 110.109V192.699L611.715 194.848H694.311L696.235 192.658V100.066L694.314 97.8782H610.774V110.109H609.827ZM621.496 97.1601H694.336L696.21 95.0268V2.37749L694.314 0.218658H611.713L609.802 2.39382V95H621.496V97.1601ZM696.841 95.0105V2.39376L698.751 0.218658H781.353L783.249 2.37749V95.0268L781.375 97.1601H698.729L696.841 95.0105ZM783.879 95.0105V2.39376L785.79 0.218658H868.391L870.287 2.37749V95H859.58V97.1601H785.768L783.879 95.0105ZM870.943 110.109V192.699L872.831 194.848H955.427L957.351 192.658V100.066L955.43 97.8782H872.85V110.109H870.943ZM872.85 97.1601H955.452L957.326 95.0268V2.37749L955.43 0.218658H872.829L870.918 2.39376V95H872.85V97.1601ZM958.056 95.006V2.39827L959.97 0.218658H1042.57L1044.46 2.37304V95H1042.57V97.1601H959.948L958.056 95.006ZM1042.57 97.8782H959.97L958.056 100.058V192.666L959.948 194.82H1042.59L1044.46 192.691V110.109H1042.57V97.8782ZM1055.84 97.1601H1129.63L1131.5 95.0312V2.37304L1129.61 0.218658H1047.01L1045.09 2.39822V95H1055.84V97.1601ZM1132.13 95.0061V2.3982L1134.05 0.218658H1216.65L1218.54 2.37304V95.0312L1216.67 97.1601H1134.03L1132.13 95.0061ZM1219.17 95.0061V2.3982L1221.09 0.218658H1303.69L1305.58 2.3729V95H1293.91V97.1601H1221.06L1219.17 95.0061ZM1304.64 97.8782H1221.09L1219.2 100.029V192.694L1221.09 194.848H1303.68L1305.6 192.662V110.109H1304.64V97.8782ZM1306.24 110.109V192.694L1308.13 194.848H1390.72L1392.64 192.662V100.061L1390.73 97.8782H1307.16V110.109H1306.24ZM1317.88 97.1601H1390.75L1392.62 95.0312V2.37304L1390.73 0.218658H1308.12L1306.21 2.39834V95H1317.88V97.1601ZM1393.25 95.0059V2.39834L1395.16 0.218658H1477.76L1479.66 2.3729V95.0313L1477.79 97.1601H1395.14L1393.25 95.0059ZM1480.29 95.0059V2.39834L1482.2 0.218658H1564.8L1566.7 2.37306V95H1555.04V97.1601H1482.18L1480.29 95.0059ZM1565.77 97.8782H1482.2L1480.31 100.029V192.694L1482.2 194.848H1564.8L1566.72 192.662V110.109H1565.77V97.8782ZM1567.35 110.109V192.694L1569.24 194.848H1651.84L1653.76 192.662V100.061L1651.84 97.8782H1568.29V110.109H1567.35ZM1579.01 97.1601H1651.86L1653.73 95.0312V2.37302L1651.84 0.218658H1569.24L1567.33 2.39834V95H1579.01V97.1601ZM1654.37 95.006V2.39822L1656.28 0.218658H1738.88L1740.77 2.37292V95.0313L1738.9 97.1601H1656.26L1654.37 95.006ZM1741.4 95.0059V2.39834L1743.32 0.218658H1825.92L1827.81 2.37302V95H1817.09V97.1601H1743.3L1741.4 95.0059ZM1828.47 110.109V192.694L1830.36 194.848H1912.96L1914.88 192.662V100.061L1912.96 97.8782H1830.36V110.109H1828.47ZM1830.36 97.1601H1912.98L1914.85 95.0313V2.37292L1912.96 0.218658H1830.36L1828.44 2.39822V95H1830.36V97.1601ZM1830.36 195.538H1912.96L1914.88 197.721V290.322L1912.96 292.508H1830.36L1828.47 290.354V197.689L1830.36 195.538ZM1830.33 293.226H1912.98L1914.88 295.38V387.981L1912.96 390.168H1830.36V376.859H1828.47V295.348L1830.33 293.226ZM1827.84 389.067V295.38L1825.94 293.226H1743.29L1741.43 295.348V388.013L1743.32 390.168H1817.09V389.067H1827.84ZM1817.09 390.886H1743.29L1741.43 393.008V485.673L1743.32 487.827H1825.92L1827.84 485.641V391.939H1817.09V390.886ZM1828.47 404.147V485.673L1830.36 487.827H1912.96L1914.88 485.641V393.04L1912.98 390.886H1830.36V404.147H1828.47ZM1830.33 488.545H1912.98L1914.88 490.7V583.3L1912.96 585.487H1830.36L1828.47 583.333V490.667L1830.33 488.545ZM1830.33 586.205H1912.98L1914.88 588.359V680.96L1912.96 683.146H1830.36V669.84H1828.47V588.327L1830.33 586.205ZM1827.84 682.047V588.359L1825.94 586.205H1743.29L1741.43 588.327V680.992L1743.32 683.146H1817.09V682.047H1827.84ZM1817.09 683.864H1743.29L1741.43 685.987V778.652L1743.32 780.806H1825.92L1827.84 778.62V684.92H1817.09V683.864ZM1828.47 697.127V778.652L1830.36 780.806H1912.96L1914.88 778.62V686.019L1912.98 683.864H1830.36V697.127H1828.47ZM1830.33 781.524H1912.98L1914.88 783.678V876.279L1912.96 878.465H1830.36L1828.47 876.311V783.646L1830.33 781.524ZM1830.33 879.183H1912.98L1914.88 881.338V973.939L1912.96 976.125H1830.36V963.883H1828.47V881.306L1830.33 879.183ZM1827.84 976.119V881.338L1825.94 879.183H1743.29L1741.43 881.306V973.971L1743.32 976.125H1817.09V976.119H1827.84ZM1817.09 976.843H1743.29L1741.43 978.965V1071.63L1743.32 1073.78H1825.92L1827.84 1071.6V978.991H1817.09V976.843ZM1828.47 978.991V1071.63L1830.36 1073.78H1912.96L1914.88 1071.6V978.997L1912.98 976.843H1830.36V978.991H1828.47ZM1740.8 978.997V1071.6L1738.88 1073.78H1656.28L1654.39 1071.63V978.965L1656.25 976.843H1738.91L1740.8 978.997ZM1653.76 978.998V1071.6L1651.84 1073.78H1569.24L1567.35 1071.63V978.991H1579.01V976.843H1651.87L1653.76 978.998ZM1568.29 976.096H1651.86L1653.73 973.967V881.309L1651.84 879.155H1569.24L1567.33 881.335V963.883H1568.29V976.096ZM1566.7 963.883V881.309L1564.8 879.155H1482.2L1480.29 881.335V973.942L1482.18 976.096H1565.77V963.883H1566.7ZM1555.04 976.843H1482.18L1480.31 978.965V1071.63L1482.2 1073.78H1564.8L1566.72 1071.6V978.991H1555.04V976.843ZM1479.68 978.998V1071.6L1477.76 1073.78H1395.17L1393.27 1071.63V978.965L1395.14 976.843H1477.79L1479.68 978.998ZM1392.64 978.997V1071.6L1390.72 1073.78H1308.13L1306.24 1071.63V978.991H1317.88V976.843H1390.75L1392.64 978.997ZM1307.16 976.096H1390.75L1392.62 973.967V881.309L1390.73 879.155H1308.12L1306.21 881.335V963.883H1307.16V976.096ZM1305.58 963.883V881.309L1303.69 879.155H1221.09L1219.17 881.334V973.942L1221.06 976.096H1304.64V963.883H1305.58ZM1293.91 976.843H1221.06L1219.2 978.965V1071.63L1221.09 1073.78H1303.68L1305.6 1071.6V978.991H1293.91V976.843ZM1218.54 978.969V1071.63L1216.65 1073.78H1134.05L1132.13 1071.6V978.994L1134.02 976.843H1216.67L1218.54 978.969ZM1131.5 978.969V1071.63L1129.61 1073.78H1047.01L1045.09 1071.6V978.991H1055.84V976.843H1129.64L1131.5 978.969ZM1044.46 963.883V881.309L1042.57 879.155H959.97L958.056 881.334V973.942L959.948 976.096H1042.57V963.883H1044.46ZM1042.57 976.843H959.945L958.056 978.994V1071.6L959.973 1073.78H1042.57L1044.46 1071.63V978.991H1042.57V976.843ZM957.351 979.002V1071.59L955.427 1073.78H872.831L870.943 1071.64V978.991H872.85V976.843H955.455L957.351 979.002ZM872.85 976.125H955.427L957.351 973.934V881.342L955.455 879.183H872.804L870.943 881.301V963.883H872.85V976.125ZM870.313 976.119V881.342L868.416 879.183H785.765L783.905 881.301V973.975L785.793 976.125H859.58V976.119H870.313ZM859.58 976.843H785.765L783.905 978.961V1071.64L785.793 1073.78H868.389L870.313 1071.59V978.991H859.58V976.843ZM783.274 979.002V1071.59L781.35 1073.78H698.754L696.866 1071.64V978.961L698.726 976.843H781.378L783.274 979.002ZM696.235 979.002V1071.59L694.311 1073.78H611.715L609.827 1071.64V978.991H621.496V976.843H694.339L696.235 979.002ZM610.774 976.096H694.336L696.21 973.963V881.314L694.314 879.155H611.713L609.802 881.33V963.883H610.774V976.096ZM609.171 963.883V881.314L607.275 879.155H524.674L522.763 881.33V973.947L524.651 976.096H608.251V963.883H609.171ZM597.529 976.843H524.649L522.789 978.961V1071.64L524.677 1073.78H607.273L609.197 1071.59V978.991H597.529V976.843ZM522.158 979.002V1071.59L520.234 1073.78H437.638L435.75 1071.64V978.961L437.61 976.843H520.262L522.158 979.002ZM520.259 976.096H437.613L435.725 973.947V881.33L437.635 879.155H520.236L522.133 881.314V973.963L520.259 976.096ZM346.182 878.437L348.055 876.303V783.654L346.159 781.495H263.558L261.647 783.67V876.287L263.535 878.437H346.182ZM348.686 876.287L350.574 878.437H433.22L435.094 876.303V783.654L433.198 781.495H350.597L348.686 783.67V876.287ZM435.725 876.287L437.613 878.437H520.259L522.133 876.303V783.654L520.236 781.495H437.635L435.725 783.67V876.287ZM522.763 876.287L524.651 878.437H607.298L609.171 876.303V783.654L607.275 781.495H524.674L522.763 783.67V876.287ZM694.336 878.437H611.69L609.802 876.287V783.67L611.713 781.495H694.314L696.21 783.654V876.303L694.336 878.437ZM694.311 780.806H611.715L609.827 778.656V685.982L611.687 683.864H694.339L696.235 686.023V778.615L694.311 780.806ZM609.171 685.994V778.644L607.298 780.777H524.651L522.763 778.627V686.011L524.674 683.836H607.275L609.171 685.994ZM522.133 685.994V778.644L520.259 780.777H437.613L435.725 778.627V686.011L437.635 683.836H520.236L522.133 685.994ZM435.094 685.995V778.644L433.22 780.777H350.574L348.686 778.628V686.011L350.597 683.836H433.198L435.094 685.995ZM348.055 685.995V778.644L346.182 780.777H263.535L261.647 778.628V686.011L263.558 683.836H346.159L348.055 685.995ZM261.017 685.995V778.644L259.143 780.777H176.497L174.609 778.628V686.011L176.519 683.836H259.12L261.017 685.995ZM176.519 781.495H259.12L261.017 783.654V876.303L259.143 878.437H176.497L174.609 876.287V783.67L176.519 781.495ZM176.519 879.155H259.12L261.017 881.314V973.963L259.143 976.096H176.497L174.609 973.947V881.33L176.519 879.155ZM172.104 878.437H89.4579L87.57 876.287V783.67L89.4805 781.495H172.082L173.978 783.654V876.303L172.104 878.437ZM174.609 680.968L176.497 683.117H259.143L261.017 680.984V588.335L259.12 586.176H176.519L174.609 588.351V680.968ZM261.647 680.968L263.535 683.117H346.182L348.055 680.984V588.335L346.159 586.176H263.558L261.647 588.351V680.968ZM348.686 680.968L350.574 683.117H433.22L435.094 680.984V588.335L433.198 586.176H350.597L348.686 588.351V680.968ZM435.725 680.968L437.613 683.117H520.259L522.133 680.984V588.335L520.236 586.176H437.635L435.725 588.351V680.968ZM522.789 680.997L524.677 683.146H607.272L609.197 680.956V588.364L607.3 586.205H524.649L522.789 588.323V680.997ZM609.827 680.997L611.715 683.146H694.311L696.235 680.955V588.364L694.339 586.205H611.687L609.827 588.323V680.997ZM696.866 680.997L698.754 683.146H781.35L783.274 680.955V588.364L781.378 586.205H698.726L696.866 588.322V680.997ZM698.726 683.864L696.866 685.982V778.656L698.754 780.806H781.35L783.274 778.615V686.023L781.378 683.864H698.726ZM698.726 781.524L696.866 783.642V876.316L698.754 878.465H781.35L783.274 876.275V783.683L781.378 781.524H698.726ZM698.751 879.155L696.841 881.33V973.947L698.729 976.096H781.375L783.249 973.963V881.314L781.352 879.155H698.751ZM955.427 878.465H872.831L870.943 876.316V783.642L872.803 781.524H955.455L957.351 783.683V876.275L955.427 878.465ZM870.313 783.683V876.275L868.389 878.465H785.793L783.905 876.316V783.642L785.765 781.524H868.416L870.313 783.683ZM868.388 780.806H785.793L783.905 778.656V685.982L785.765 683.864H859.58V684.92H870.313V778.615L868.388 780.806ZM870.943 697.127V778.656L872.831 780.806H955.427L957.351 778.615V686.023L955.455 683.864H872.85V697.127H870.943ZM872.85 683.146H955.427L957.351 680.955V588.364L955.455 586.205H872.803L870.943 588.323V669.84H872.85V683.146ZM870.313 682.047V588.364L868.416 586.205H785.765L783.905 588.323V680.997L785.793 683.146H859.58V682.047H870.313ZM868.388 585.487H785.793L783.905 583.337V490.663L785.765 488.545H868.416L870.313 490.704V583.296L868.388 585.487ZM783.274 490.704V583.296L781.35 585.487H698.754L696.866 583.337V490.663L698.726 488.545H781.378L783.274 490.704ZM696.235 490.704V583.296L694.311 585.487H611.715L609.827 583.337V490.663L611.687 488.545H694.339L696.235 490.704ZM609.197 490.704V583.296L607.272 585.487H524.677L522.789 583.337V490.663L524.649 488.545H607.3L609.197 490.704ZM522.158 490.704V583.296L520.234 585.487H437.638L435.75 583.337V490.663L437.61 488.545H520.262L522.158 490.704ZM435.094 490.675V583.325L433.22 585.458H350.574L348.686 583.308V490.692L350.597 488.516H433.198L435.094 490.675ZM348.055 490.675V583.325L346.182 585.458H263.535L261.647 583.308V490.692L263.558 488.516H346.159L348.055 490.675ZM261.017 490.675V583.325L259.143 585.458H176.497L174.609 583.308V490.692L176.519 488.516H259.12L261.017 490.675ZM173.978 490.675V583.325L172.104 585.458H89.458L87.57 583.308V490.692L89.4805 488.516H172.082L173.978 490.675ZM174.609 387.989L176.497 390.139H259.143L261.017 388.005V295.356L259.12 293.197H176.519L174.609 295.372V387.989ZM176.519 390.857L174.609 393.032V485.649L176.497 487.798H259.143L261.017 485.665V393.016L259.12 390.857H176.519ZM261.647 485.649L263.535 487.798H346.182L348.055 485.665V393.016L346.159 390.857H263.558L261.647 393.032V485.649ZM348.686 485.649L350.574 487.798H433.22L435.094 485.665V393.016L433.198 390.857H350.597L348.686 393.032V485.649ZM435.75 485.678L437.638 487.827H520.234L522.158 485.636V393.045L520.262 390.886H437.61L435.75 393.003V485.678ZM522.789 485.678L524.677 487.827H607.272L609.197 485.636V393.045L607.3 390.886H524.649L522.789 393.003V485.678ZM609.827 485.678L611.715 487.827H694.311L696.235 485.636V393.045L694.339 390.886H611.687L609.827 393.003V485.678ZM696.866 485.678L698.754 487.827H781.35L783.274 485.636V393.045L781.378 390.886H698.726L696.866 393.003V485.678ZM783.905 485.677L785.793 487.827H868.388L870.313 485.636V391.939H859.58V390.886H785.765L783.905 393.003V485.677ZM859.58 390.168H785.793L783.905 388.018V295.344L785.765 293.226H868.416L870.313 295.385V389.067H859.58V390.168ZM870.943 376.859V295.344L872.803 293.226H955.455L957.351 295.385V387.977L955.427 390.168H872.85V376.859H870.943ZM872.85 390.886H955.455L957.351 393.045V485.636L955.427 487.827H872.831L870.943 485.677V404.147H872.85V390.886ZM872.803 488.545L870.943 490.663V583.337L872.831 585.487H955.427L957.351 583.296V490.704L955.455 488.545H872.803ZM958.056 778.623V686.015L959.97 683.836H1042.57V697.127H1044.46V778.648L1042.59 780.777H959.948L958.056 778.623ZM1045.09 684.92V778.623L1046.99 780.777H1129.63L1131.5 778.648V685.99L1129.61 683.836H1055.84V684.92H1045.09ZM1055.84 683.117H1129.63L1131.5 680.989V588.331L1129.61 586.176H1047.01L1045.09 588.356V682.047H1055.84V683.117ZM1044.46 669.84V588.331L1042.57 586.176H959.97L958.056 588.356V680.963L959.948 683.117H1042.57V669.84H1044.46ZM1042.59 585.458H959.948L958.056 583.304V490.696L959.97 488.516H1042.57L1044.46 490.671V583.329L1042.59 585.458ZM1042.59 487.798H959.948L958.056 485.644V393.037L959.97 390.857H1042.57V404.147H1044.46V485.67L1042.59 487.798ZM1045.09 391.939V485.644L1046.99 487.798H1129.63L1131.5 485.67V393.011L1129.61 390.857H1055.84V391.939H1045.09ZM1055.84 390.139H1129.63L1131.5 388.01V295.352L1129.61 293.197H1047.01L1045.09 295.377V389.067H1055.84V390.139ZM1044.46 376.859V295.352L1042.57 293.197H959.97L958.056 295.377V387.985L959.948 390.139H1042.57V376.859H1044.46ZM868.388 292.508L870.313 290.317V197.725L868.391 195.538H785.79L783.905 197.684V290.358L785.793 292.508H868.388ZM870.943 290.358L872.831 292.508H955.427L957.351 290.317V197.725L955.43 195.538H872.829L870.943 197.684V290.358ZM958.056 290.325L959.948 292.479H1042.59L1044.46 290.35V197.692L1042.57 195.538H959.97L958.056 197.717V290.325ZM1045.09 290.325L1046.99 292.479H1129.63L1131.5 290.35V197.692L1129.61 195.538H1047.01L1045.09 197.717V290.325ZM1132.13 485.644V393.036L1134.05 390.857H1216.65L1218.54 393.011V485.67L1216.67 487.798H1134.02L1132.13 485.644ZM1216.67 390.139H1134.02L1132.13 387.985V295.377L1134.05 293.197H1216.65L1218.54 295.352V388.01L1216.67 390.139ZM1216.67 292.479H1134.03L1132.13 290.325V197.717L1134.05 195.538H1216.65L1218.54 197.692V290.35L1216.67 292.479ZM1216.65 194.848H1134.05L1132.13 192.666V100.058L1134.05 97.8782H1216.65L1218.54 100.033V192.691L1216.65 194.848ZM1131.5 100.033V192.691L1129.63 194.82H1046.99L1045.09 192.666V97.8782H1129.61L1131.5 100.033ZM870.313 97.8782V192.658L868.388 194.848H785.793L783.905 192.699V100.025L785.79 97.8782H870.313ZM783.274 100.066V192.658L781.35 194.848H698.754L696.866 192.699V100.025L698.751 97.8782H781.353L783.274 100.066ZM698.751 195.538H781.353L783.274 197.725V290.317L781.35 292.508H698.754L696.866 290.358V197.684L698.751 195.538ZM698.726 293.226H781.378L783.274 295.385V387.977L781.35 390.168H698.754L696.866 388.018V295.344L698.726 293.226ZM696.235 295.385V387.977L694.311 390.168H611.715L609.827 388.018V295.344L611.687 293.226H694.339L696.235 295.385ZM609.197 295.385V387.977L607.272 390.168H524.677L522.789 388.018V295.344L524.649 293.226H607.3L609.197 295.385ZM522.158 295.385V387.977L520.234 390.168H437.638L435.75 388.018V295.344L437.61 293.226H520.262L522.158 295.385ZM435.119 295.385V387.977L433.195 390.168H350.599L348.711 388.018V295.344L350.571 293.226H433.223L435.119 295.385ZM348.055 295.356V388.006L346.182 390.139H263.535L261.647 387.989V295.372L263.558 293.197H346.159L348.055 295.356ZM346.156 292.508H263.561L261.673 290.358V197.684L263.558 195.538H346.159L348.081 197.725V290.317L346.156 292.508ZM261.017 197.697V290.346L259.143 292.479H176.497L174.609 290.33V197.713L176.519 195.538H259.12L261.017 197.697ZM173.978 197.697V290.346L172.104 292.479H89.458L87.57 290.33V197.713L89.4804 195.538H172.082L173.978 197.697ZM174.609 192.67V100.053L176.519 97.8782H259.12L261.017 100.037V192.686L259.118 194.848H176.522L174.609 192.67ZM350.596 195.538L348.711 197.684V290.358L350.599 292.508H433.195L435.119 290.317V197.725L433.198 195.538H350.596ZM435.75 290.358L437.638 292.508H520.234L522.158 290.317V197.725L520.236 195.538H437.635L435.75 197.684V290.358ZM522.789 290.358L524.677 292.508H607.272L609.197 290.317V197.725L607.275 195.538H524.674L522.789 197.684V290.358ZM609.827 290.358L611.715 292.508H694.311L696.235 290.317V197.725L694.314 195.538H611.713L609.827 197.684V290.358ZM522.158 100.066V192.658L520.234 194.848H437.638L435.75 192.699V100.025L437.635 97.8782H520.236L522.158 100.066ZM1308.12 195.538L1306.24 197.689V290.354L1308.13 292.508H1390.72L1392.64 290.322V197.721L1390.73 195.538H1308.12ZM1305.6 197.721L1303.69 195.538H1221.09L1219.2 197.689V290.354L1221.09 292.508H1303.68L1305.6 290.322V197.721ZM1221.09 293.197L1219.17 295.377V387.985L1221.06 390.139H1303.71L1305.58 388.01V295.352L1303.69 293.197H1221.09ZM1221.09 390.857L1219.17 393.036V485.644L1221.06 487.798H1303.71L1305.58 485.67V393.011L1303.69 390.857H1221.09ZM1221.09 488.516L1219.17 490.696V583.304L1221.06 585.458H1303.71L1305.58 583.329V490.671L1303.69 488.516H1221.09ZM1218.54 490.671L1216.65 488.516H1134.05L1132.13 490.696V583.304L1134.02 585.458H1216.67L1218.54 583.329V490.671ZM1131.5 490.671L1129.61 488.516H1047.01L1045.09 490.696V583.304L1046.99 585.458H1129.63L1131.5 583.329V490.671ZM1132.13 778.623V686.015L1134.05 683.836H1216.65L1218.54 685.99V778.648L1216.67 780.777H1134.03L1132.13 778.623ZM1216.67 683.117H1134.02L1132.13 680.964V588.356L1134.05 586.176H1216.65L1218.54 588.331V680.989L1216.67 683.117ZM1219.17 680.964V588.356L1221.09 586.176H1303.69L1305.58 588.33V680.989L1303.71 683.117H1221.06L1219.17 680.964ZM1306.21 680.963V588.356L1308.12 586.176H1390.73L1392.62 588.331V680.989L1390.75 683.117H1308.1L1306.21 680.963ZM1390.75 585.458H1308.1L1306.21 583.304V490.696L1308.12 488.516H1390.73L1392.62 490.671V583.329L1390.75 585.458ZM1390.75 487.798H1308.1L1306.21 485.644V393.037L1308.12 390.857H1390.73L1392.62 393.011V485.67L1390.75 487.798ZM1390.72 390.168H1308.13L1306.24 388.013V295.348L1308.1 293.226H1390.75L1392.64 295.38V387.981L1390.72 390.168ZM1393.27 388.013V295.348L1395.14 293.226H1477.79L1479.68 295.381V387.981L1477.76 390.168H1395.17L1393.27 388.013ZM1477.76 292.508H1395.17L1393.27 290.354V197.689L1395.16 195.538H1477.76L1479.68 197.721V290.322L1477.76 292.508ZM1477.76 194.848H1395.17L1393.27 192.694V100.029L1395.16 97.8782H1477.76L1479.68 100.061V192.662L1477.76 194.848ZM1569.24 195.538L1567.35 197.689V290.354L1569.24 292.508H1651.84L1653.76 290.322V197.721L1651.84 195.538H1569.24ZM1566.72 197.721L1564.8 195.538H1482.2L1480.31 197.689V290.354L1482.2 292.508H1564.8L1566.72 290.322V197.721ZM1482.18 293.226L1480.31 295.348V388.013L1482.2 390.168H1564.8L1566.72 387.981V295.38L1564.83 293.226H1482.18ZM1482.18 390.886L1480.31 393.008V485.673L1482.2 487.827H1564.8L1566.72 485.641V393.04L1564.83 390.886H1482.18ZM1479.68 393.04L1477.79 390.886H1395.14L1393.27 393.008V485.673L1395.17 487.827H1477.76L1479.68 485.641V393.04ZM1395.14 488.545L1393.27 490.667V583.333L1395.17 585.487H1477.76L1479.68 583.3V490.7L1477.79 488.545H1395.14ZM1395.16 586.176L1393.25 588.356V680.963L1395.14 683.117H1477.79L1479.66 680.989V588.33L1477.76 586.176H1395.16ZM1395.16 683.836L1393.25 686.015V778.623L1395.14 780.777H1477.79L1479.66 778.648V685.99L1477.76 683.836H1395.16ZM1392.62 685.99L1390.73 683.836H1308.12L1306.21 686.015V778.623L1308.1 780.777H1390.75L1392.62 778.648V685.99ZM1305.58 685.99L1303.69 683.836H1221.09L1219.17 686.015V778.623L1221.06 780.777H1303.71L1305.58 778.648V685.99ZM1221.09 781.495L1219.17 783.675V876.283L1221.06 878.437H1303.71L1305.58 876.308V783.65L1303.69 781.495H1221.09ZM1218.54 783.65L1216.65 781.495H1134.05L1132.13 783.675V876.283L1134.02 878.437H1216.67L1218.54 876.308V783.65ZM1131.5 783.65L1129.61 781.495H1047.01L1045.09 783.675V876.283L1046.99 878.437H1129.63L1131.5 876.308V783.65ZM1044.46 783.65L1042.57 781.495H959.97L958.056 783.675V876.283L959.948 878.437H1042.59L1044.46 876.308V783.65ZM1045.09 976.096V881.334L1047.01 879.155H1129.61L1131.5 881.309V973.967L1129.63 976.096H1045.09ZM1132.13 973.942V881.334L1134.05 879.155H1216.65L1218.54 881.309V973.967L1216.67 976.096H1134.02L1132.13 973.942ZM1390.75 878.437H1308.1L1306.21 876.283V783.675L1308.12 781.495H1390.73L1392.62 783.65V876.308L1390.75 878.437ZM1393.25 876.283V783.675L1395.16 781.495H1477.76L1479.66 783.65V876.308L1477.79 878.437H1395.14L1393.25 876.283ZM1480.29 876.283V783.675L1482.2 781.495H1564.8L1566.7 783.65V876.308L1564.83 878.437H1482.18L1480.29 876.283ZM1564.83 780.777H1482.18L1480.29 778.623V686.015L1482.2 683.836H1564.8L1566.7 685.99V778.648L1564.83 780.777ZM1564.8 683.146H1482.2L1480.31 680.992V588.327L1482.18 586.205H1564.83L1566.72 588.359V680.96L1564.8 683.146ZM1564.8 585.487H1482.2L1480.31 583.333V490.667L1482.18 488.545H1564.83L1566.72 490.7V583.3L1564.8 585.487ZM1567.35 583.333V490.667L1569.22 488.545H1651.87L1653.76 490.7V583.3L1651.84 585.487H1569.24L1567.35 583.333ZM1651.84 487.827H1569.24L1567.35 485.673V393.008L1569.22 390.886H1651.87L1653.76 393.04V485.641L1651.84 487.827ZM1651.84 390.168H1569.24L1567.35 388.013V295.348L1569.22 293.226H1651.87L1653.76 295.381V387.981L1651.84 390.168ZM1654.39 388.014V295.348L1656.25 293.226H1738.91L1740.8 295.38V387.981L1738.88 390.168H1656.28L1654.39 388.014ZM1738.88 292.508H1656.28L1654.39 290.354V197.689L1656.28 195.538H1738.88L1740.8 197.721V290.322L1738.88 292.508ZM1738.88 194.848H1656.28L1654.39 192.694V100.029L1656.28 97.8782H1738.88L1740.8 100.061V192.662L1738.88 194.848ZM1741.43 192.694V100.029L1743.32 97.8782H1827.84V192.662L1825.92 194.848H1743.32L1741.43 192.694ZM1743.32 195.538H1825.92L1827.84 197.721V290.322L1825.92 292.508H1743.32L1741.43 290.354V197.689L1743.32 195.538ZM1740.8 393.04L1738.91 390.886H1656.25L1654.39 393.008V485.673L1656.28 487.827H1738.88L1740.8 485.641V393.04ZM1656.25 488.545L1654.39 490.667V583.333L1656.28 585.487H1738.88L1740.8 583.3V490.7L1738.91 488.545H1656.25ZM1656.25 586.205L1654.39 588.327V680.992L1656.28 683.146H1738.88L1740.8 680.96V588.359L1738.91 586.205H1656.25ZM1653.76 588.359L1651.87 586.205H1569.22L1567.35 588.327V680.992L1569.24 683.146H1651.84L1653.76 680.96V588.359ZM1569.22 683.864L1567.35 685.987V778.652L1569.24 780.806H1651.84L1653.76 778.62V686.019L1651.87 683.864H1569.22ZM1569.24 781.495L1567.33 783.675V876.283L1569.22 878.437H1651.86L1653.73 876.308V783.65L1651.84 781.495H1569.24ZM1479.66 881.309L1477.76 879.155H1395.16L1393.25 881.335V973.942L1395.14 976.096H1477.79L1479.66 973.968V881.309ZM1654.37 973.942L1656.26 976.096H1738.9L1740.77 973.968V881.309L1738.88 879.155H1656.28L1654.37 881.334V973.942ZM1825.92 878.465L1827.84 876.279V783.678L1825.94 781.524H1743.29L1741.43 783.646V876.311L1743.32 878.465H1825.92ZM1825.92 585.487H1743.32L1741.43 583.332V490.668L1743.29 488.545H1825.94L1827.84 490.7V583.3L1825.92 585.487ZM1740.8 686.019L1738.91 683.864H1656.25L1654.39 685.986V778.652L1656.28 780.806H1738.88L1740.8 778.62V686.019ZM1656.25 781.524L1654.39 783.646V876.311L1656.28 878.465H1738.88L1740.8 876.279V783.678L1738.91 781.524H1656.25Z" fill="#0B2736" fill-opacity="0.3"/>
<rect opacity="0.85" width="1920" height="1080" fill="url(#paint0_linear_3031_4412)"/>
<g clip-path="url(#clip0_3031_4412)">
<g opacity="0.1">
<path d="M1835.57 733.469L1958.25 791.818L1958.25 849.94L1835.57 791.741L1835.57 733.469Z" stroke="#132239" stroke-width="2"/>
<path d="M1835.57 808.626L1958.25 866.974L1958.25 926.054L1911.95 948.078L1910.06 948.978L1911.95 949.883L1958.25 972.081L1958.25 1030.22L1847.98 978.904L1847.55 978.705L1847.12 978.907L1835.57 984.402L1835.57 926.139L1896.1 897.422L1898 896.518L1896.1 895.615L1835.57 866.897L1835.57 808.626Z" stroke="#132239" stroke-width="2"/>
<path d="M1883.93 347.257L1917.87 363.959L1919.31 364.668L1919.31 364.473L1944.85 376.689L1944.85 376.693C1953.6 380.776 1959.19 389.554 1959.19 399.213L1959.19 502.091C1959.19 519.496 1940.96 530.884 1925.32 523.233L1925.32 523.233L1918.94 520.117L1918.93 520.113L1918.93 520.109L1878.91 501.464L1877.49 500.801L1877.49 500.842L1851.27 489.252C1846.29 486.924 1842.33 483.058 1839.85 478.379L1839.84 478.372L1839.84 478.364C1837.98 475.002 1836.94 471.167 1836.94 467.174L1836.94 466.736L1836.94 422.05L1836.94 307.156L1836.94 306.527L1836.38 306.255L1811.53 294.336L1856.99 233.971L1902.22 337.858L1878.92 326.677L1877.49 325.99L1877.49 327.579L1877.49 442.983L1877.49 443.605L1878.05 443.88L1917.87 463.474L1919.31 464.183L1919.31 462.577L1919.31 424.154L1919.31 423.522L1918.74 423.25L1883.93 406.732L1883.93 347.257Z" stroke="#132239" stroke-width="2"/>
<path d="M1876.13 643.377L1876.13 643.378C1877.15 649.916 1880.97 654.705 1884.46 657.83C1886.22 659.396 1887.9 660.56 1889.16 661.333C1889.78 661.72 1890.3 662.01 1890.67 662.205C1890.85 662.302 1891 662.376 1891.1 662.426C1891.15 662.451 1891.19 662.471 1891.22 662.485C1891.23 662.489 1891.23 662.492 1891.24 662.495C1891.25 662.498 1891.25 662.501 1891.26 662.504C1891.26 662.505 1891.27 662.507 1891.27 662.509C1891.27 662.509 1891.27 662.509 1891.27 662.509L1958.25 694.366L1958.25 752.488L1902.22 725.907L1877.55 714.202L1876.12 713.524L1876.12 715.105L1876.12 735.081L1835.57 716.15L1835.57 607.566L1862.19 620.277C1862.19 620.277 1862.19 620.277 1862.19 620.277C1868.03 623.065 1870.96 625.787 1872.72 629.221C1874.46 632.611 1875.1 636.771 1876.02 642.696C1876.06 642.921 1876.09 643.148 1876.13 643.377Z" stroke="#132239" stroke-width="2"/>
<path d="M1867.81 579.086L1867.82 579.045L1868.81 579.127C1867.82 579.045 1867.82 579.045 1867.82 579.044L1867.82 579.043L1867.82 579.04L1867.82 579.033L1867.82 579.012C1867.82 578.995 1867.82 578.971 1867.83 578.941C1867.83 578.882 1867.84 578.799 1867.86 578.695C1867.89 578.489 1867.94 578.2 1868.01 577.857C1868.17 577.177 1868.44 576.257 1868.92 575.34C1869.41 574.424 1870.11 573.473 1871.15 572.784C1872.21 572.085 1873.55 571.697 1875.19 571.828L1875.2 571.828C1878.4 572.085 1880.22 573.612 1881.22 575.137C1881.7 575.881 1881.98 576.606 1882.13 577.144C1882.21 577.415 1882.26 577.642 1882.29 577.806C1882.31 577.889 1882.32 577.956 1882.32 578.005C1882.33 578.03 1882.33 578.05 1882.33 578.066L1882.33 578.085L1882.33 578.093L1882.33 578.096L1882.33 578.097C1882.33 578.097 1882.33 578.098 1881.34 578.195L1882.33 578.098L1882.34 578.126L1882.34 578.154L1883.1 596.832L1883.1 596.868L1867.81 579.086ZM1867.81 579.086L1867.81 579.127L1867.81 606.569L1835.34 591.055L1835.34 530.625L1835.34 520.265L1835.34 520.258L1835.34 520.216C1835.34 520.177 1835.35 520.116 1835.35 520.035C1835.36 519.874 1835.37 519.633 1835.4 519.328C1835.45 518.717 1835.56 517.849 1835.77 516.839C1836.19 514.807 1837.02 512.251 1838.6 510.027C1840.18 507.822 1842.5 505.933 1846 505.184C1849.51 504.431 1854.31 504.808 1860.86 507.353L1895.01 523.439L1895.02 523.442L1905.83 528.603L1905.84 528.605L1905.85 528.614C1905.86 528.619 1905.87 528.624 1905.89 528.63C1905.9 528.64 1905.92 528.651 1905.95 528.664C1906.03 528.709 1906.16 528.777 1906.33 528.868C1906.66 529.049 1907.14 529.321 1907.72 529.676C1908.9 530.386 1910.51 531.43 1912.24 532.76C1915.73 535.439 1919.59 539.196 1921.45 543.642L1921.84 544.562L1922.76 544.177L1958.02 529.418L1958.02 587.595L1928.96 596.98L1928.96 596.98L1928.96 596.98L1928.96 596.981L1928.96 596.981L1928.94 596.986L1928.89 597.002C1928.85 597.016 1928.79 597.037 1928.71 597.063C1928.56 597.116 1928.34 597.192 1928.08 597.29C1927.56 597.485 1926.87 597.767 1926.16 598.113C1925.47 598.455 1924.72 598.881 1924.13 599.374C1923.59 599.827 1922.94 600.537 1922.94 601.47C1922.94 602.112 1923.05 602.713 1923.34 603.272C1923.62 603.828 1924.03 604.285 1924.54 604.685C1925.51 605.454 1926.96 606.106 1928.81 606.873L1928.83 606.879L1928.84 606.885C1928.84 606.885 1928.85 606.887 1928.87 606.895C1928.88 606.899 1928.89 606.903 1928.9 606.909C1928.91 606.915 1928.92 606.922 1928.94 606.93L1928.95 606.937L1928.97 606.944L1958.02 620.342L1958.02 678.429L1905.89 652.731L1905.89 652.731L1905.89 652.731L1905.88 652.727L1905.84 652.708C1905.81 652.69 1905.76 652.663 1905.69 652.627C1905.56 652.555 1905.36 652.446 1905.1 652.3C1904.58 652.007 1903.84 651.569 1902.94 650.989C1901.14 649.828 1898.71 648.107 1896.2 645.865C1891.17 641.369 1885.95 634.877 1884.72 626.713C1883.77 616.323 1883.36 608.862 1883.2 604.002C1883.11 601.57 1883.09 599.79 1883.09 598.621C1883.09 598.036 1883.09 597.604 1883.09 597.32C1883.1 597.178 1883.1 597.072 1883.1 597.004L1883.1 596.927L1883.1 596.909L1883.1 596.905L1883.1 596.905L1883.1 596.905L1867.81 579.086Z" stroke="#132239" stroke-width="2"/>
</g>
</g>
<path d="M121 857.355L121 855.054L103.067 855.054L103.067 856.879L106.188 859.497L108.648 859.497L108.648 859.471L106.347 857.382L106.347 857.355L121 857.355ZM121.185 848.93C121.185 845.862 119.36 844.645 116.768 844.645L114.652 844.645C112.933 844.645 111.637 845.28 111.029 846.761C110.473 845.492 109.336 844.963 107.828 844.963L107.008 844.963C104.363 844.963 102.882 846.285 102.882 848.93C102.882 851.575 104.363 852.871 107.008 852.871L107.828 852.871C109.309 852.871 110.473 852.342 111.029 851.099C111.637 852.58 112.933 853.188 114.652 853.188L116.768 853.188C119.36 853.188 121.185 851.972 121.185 848.93ZM119.281 848.93C119.281 850.305 118.329 850.861 116.98 850.861L114.203 850.861C112.854 850.861 111.928 850.305 111.928 848.93C111.928 847.475 112.854 846.946 114.203 846.946L116.98 846.946C118.329 846.946 119.281 847.475 119.281 848.93ZM110.156 848.93C110.156 850.279 109.283 850.676 108.013 850.676L106.876 850.676C105.58 850.676 104.76 850.2 104.76 848.93C104.76 847.634 105.58 847.158 106.876 847.158L108.013 847.158C109.283 847.158 110.156 847.581 110.156 848.93ZM119.254 838.904C119.254 840.253 118.249 840.835 116.9 840.835L107.167 840.835C105.818 840.835 104.813 840.253 104.813 838.904C104.813 837.556 105.818 836.974 107.167 836.974L116.9 836.974C118.249 836.974 119.254 837.556 119.254 838.904ZM121.185 838.904C121.185 835.995 119.175 834.646 116.53 834.646L107.537 834.646C104.892 834.646 102.882 835.995 102.882 838.904C102.882 841.814 104.892 843.163 107.537 843.163L116.53 843.163C119.175 843.163 121.185 841.814 121.185 838.904ZM121.185 828.959C121.185 825.997 119.598 824.753 116.821 824.753L113.964 824.753C111.082 824.753 109.653 825.944 109.653 828.165C109.653 829.514 110.314 830.361 111.187 830.784L111.187 830.81L107.141 830.81C105.659 830.81 104.813 830.202 104.813 828.932C104.813 827.663 105.501 827.16 106.982 827.16L108.225 827.16L108.225 825.018L107.167 825.018C104.496 825.018 102.882 826.023 102.882 828.959C102.882 831.815 104.654 833.138 107.484 833.138L116.583 833.138C119.36 833.138 121.185 831.895 121.185 828.959ZM119.281 828.959C119.281 830.202 118.514 830.81 116.953 830.81L113.674 830.81C112.298 830.784 111.531 830.043 111.531 828.906C111.531 827.663 112.298 827.055 113.806 827.055L117.006 827.055C118.514 827.055 119.281 827.689 119.281 828.959ZM113.594 820.635L113.594 816.694L111.743 816.694L111.743 820.635L113.594 820.635ZM113.594 817.076L113.594 813.135L111.743 813.135L111.743 817.076L113.594 817.076ZM113.594 813.517L113.594 809.576L111.743 809.576L111.743 813.517L113.594 813.517ZM113.594 809.957L113.594 806.016L111.743 806.016L111.743 809.957L113.594 809.957ZM119.254 799.084C119.254 800.433 118.249 801.015 116.9 801.015L107.167 801.015C105.818 801.015 104.813 800.433 104.813 799.084C104.813 797.735 105.818 797.153 107.167 797.153L116.9 797.153C118.249 797.153 119.254 797.735 119.254 799.084ZM121.185 799.084C121.185 796.174 119.175 794.825 116.53 794.825L107.537 794.825C104.892 794.825 102.882 796.174 102.882 799.084C102.882 801.993 104.892 803.342 107.537 803.342L116.53 803.342C119.175 803.342 121.185 801.993 121.185 799.084ZM121 791.36L121 789.059L103.067 789.059L103.067 790.884L106.188 793.502L108.648 793.502L108.648 793.476L106.347 791.386L106.347 791.36L121 791.36Z" fill="#C7C7C7"/>
<path d="M121 961.15L121 959.06L103.067 959.06L103.067 961.044L115.049 961.044L103.067 964.958L103.067 967.286L121 967.286L121 965.302L108.225 965.302L121 961.15ZM121 956.594L121 954.266L112.827 954.266L112.827 950.96L110.949 950.96L110.949 954.266L104.972 954.266L104.972 949.849L103.067 949.849L103.067 956.594L121 956.594ZM104.972 948.158L104.972 945.46L121 945.46L121 943.106L104.972 943.106L104.972 940.434L103.067 940.434L103.067 948.158L104.972 948.158ZM113.488 930.148L113.488 928.349L117.006 928.349C118.408 928.349 119.254 928.931 119.254 930.28C119.254 931.682 118.223 932.237 116.874 932.237L107.193 932.237C105.845 932.237 104.813 931.655 104.813 930.201C104.813 928.72 105.633 928.296 107.035 928.296L108.78 928.296L108.78 926.127L107.193 926.127C104.654 926.127 102.882 927.08 102.882 930.254C102.882 933.269 104.892 934.565 107.537 934.565L116.53 934.565C119.149 934.565 121.185 933.401 121.185 930.756C121.185 929.063 120.365 928.296 119.228 927.9L121 927.9L121 926.127L111.637 926.127L111.637 930.148L113.488 930.148ZM121 921.869L117.244 921.207L117.244 917.478L121 916.79L121 914.41L103.067 917.901L103.067 920.625L121 924.09L121 921.869ZM106.903 919.356L106.903 919.329L115.34 917.822L115.34 920.863L106.903 919.356ZM121 904.099L121 901.904L103.067 901.904L103.067 905.025L114.89 907.22L114.89 907.246L103.067 909.574L103.067 912.43L121 912.43L121 910.473L107.855 910.473L107.855 910.42L121 907.828L121 906.665L107.855 904.178L107.855 904.099L121 904.099ZM121 899.439L121 892.536L119.096 892.536L119.096 897.112L112.827 897.112L112.827 893.806L110.949 893.806L110.949 897.112L104.972 897.112L104.972 892.536L103.067 892.536L103.067 899.439L121 899.439Z" fill="#C7C7C7"/>
<line x1="1658" y1="993" x2="1658" y2="968" stroke="#C7C7C7" stroke-width="2"/>
<line x1="1647" y1="993" x2="1647" y2="968" stroke="#C7C7C7" stroke-width="2"/>
<line x1="1636" y1="993" x2="1636" y2="968" stroke="#C7C7C7" stroke-width="2"/>
<line x1="1625" y1="993" x2="1625" y2="968" stroke="#C7C7C7" stroke-width="2"/>
<line x1="1614" y1="993" x2="1614" y2="968" stroke="#C7C7C7" stroke-width="2"/>
<line x1="1603" y1="993" x2="1603" y2="968" stroke="#C7C7C7" stroke-width="2"/>
<line x1="1592" y1="993" x2="1592" y2="968" stroke="#C7C7C7" stroke-width="2"/>
<rect x="137" y="294" width="4" height="37" transform="rotate(90 137 294)" fill="#C7C7C7"/>
<path d="M202.591 298.086C201.884 298.086 201.579 297.559 201.579 296.853V291.754C201.579 291.048 201.884 290.521 202.591 290.521C203.297 290.521 203.602 291.048 203.602 291.754V296.853C203.602 297.559 203.297 298.086 202.591 298.086ZM202.591 299.097C204.115 299.097 204.821 298.044 204.821 296.659V291.948C204.821 290.563 204.115 289.51 202.591 289.51C201.067 289.51 200.36 290.563 200.36 291.948V296.659C200.36 298.044 201.067 299.097 202.591 299.097ZM210.302 298.086C209.595 298.086 209.29 297.559 209.29 296.853V291.754C209.29 291.048 209.595 290.521 210.302 290.521C211.008 290.521 211.313 291.048 211.313 291.754V296.853C211.313 297.559 211.008 298.086 210.302 298.086ZM210.302 299.097C211.826 299.097 212.532 298.044 212.532 296.659V291.948C212.532 290.563 211.826 289.51 210.302 289.51C208.778 289.51 208.071 290.563 208.071 291.948V296.659C208.071 298.044 208.778 299.097 210.302 299.097ZM218.012 298.086C217.306 298.086 217.001 297.559 217.001 296.853V291.754C217.001 291.048 217.306 290.521 218.012 290.521C218.719 290.521 219.024 291.048 219.024 291.754V296.853C219.024 297.559 218.719 298.086 218.012 298.086ZM218.012 299.097C219.536 299.097 220.243 298.044 220.243 296.659V291.948C220.243 290.563 219.536 289.51 218.012 289.51C216.488 289.51 215.782 290.563 215.782 291.948V296.659C215.782 298.044 216.488 299.097 218.012 299.097ZM225.723 298.086C225.017 298.086 224.712 297.559 224.712 296.853V291.754C224.712 291.048 225.017 290.521 225.723 290.521C226.43 290.521 226.735 291.048 226.735 291.754V296.853C226.735 297.559 226.43 298.086 225.723 298.086ZM225.723 299.097C227.247 299.097 227.954 298.044 227.954 296.659V291.948C227.954 290.563 227.247 289.51 225.723 289.51C224.199 289.51 223.493 290.563 223.493 291.948V296.659C223.493 298.044 224.199 299.097 225.723 299.097ZM233.434 298.086C232.728 298.086 232.423 297.559 232.423 296.853V291.754C232.423 291.048 232.728 290.521 233.434 290.521C234.141 290.521 234.445 291.048 234.445 291.754V296.853C234.445 297.559 234.141 298.086 233.434 298.086ZM233.434 299.097C234.958 299.097 235.665 298.044 235.665 296.659V291.948C235.665 290.563 234.958 289.51 233.434 289.51C231.91 289.51 231.204 290.563 231.204 291.948V296.659C231.204 298.044 231.91 299.097 233.434 299.097ZM241.131 299.097C242.738 299.097 243.375 298.141 243.375 296.783V295.675C243.375 294.774 243.043 294.096 242.267 293.777C242.932 293.486 243.209 292.89 243.209 292.101V291.671C243.209 290.286 242.516 289.51 241.131 289.51C239.746 289.51 239.067 290.286 239.067 291.671V292.101C239.067 292.876 239.344 293.486 239.995 293.777C239.219 294.096 238.901 294.774 238.901 295.675V296.783C238.901 298.141 239.538 299.097 241.131 299.097ZM241.131 298.099C240.411 298.099 240.12 297.601 240.12 296.894V295.439C240.12 294.733 240.411 294.248 241.131 294.248C241.893 294.248 242.17 294.733 242.17 295.439V296.894C242.17 297.601 241.893 298.099 241.131 298.099ZM241.131 293.32C240.424 293.32 240.217 292.863 240.217 292.197V291.602C240.217 290.923 240.466 290.493 241.131 290.493C241.81 290.493 242.059 290.923 242.059 291.602V292.197C242.059 292.863 241.838 293.32 241.131 293.32Z" fill="#C7C7C7"/>
<path d="M330.333 300H334.267V299.002H331.496V298.365C331.496 297.548 331.773 297.257 332.244 296.744L333.311 295.608C334.087 294.763 334.323 294.181 334.323 293.308V292.408C334.323 291.147 333.671 290.51 332.355 290.51C331.067 290.51 330.36 291.202 330.36 292.491V293.599H331.496V292.463C331.496 291.743 331.843 291.493 332.328 291.493C332.785 291.493 333.131 291.701 333.131 292.408V293.211C333.131 293.946 332.965 294.347 332.425 294.929L331.482 295.941C330.665 296.841 330.333 297.395 330.333 298.365V300ZM337.596 300.097C339.203 300.097 339.84 299.141 339.84 297.783V296.675C339.84 295.774 339.508 295.096 338.732 294.777C339.397 294.486 339.674 293.89 339.674 293.101V292.671C339.674 291.286 338.981 290.51 337.596 290.51C336.21 290.51 335.532 291.286 335.532 292.671V293.101C335.532 293.876 335.809 294.486 336.46 294.777C335.684 295.096 335.365 295.774 335.365 296.675V297.783C335.365 299.141 336.003 300.097 337.596 300.097ZM337.596 299.099C336.875 299.099 336.585 298.601 336.585 297.894V296.439C336.585 295.733 336.875 295.248 337.596 295.248C338.358 295.248 338.635 295.733 338.635 296.439V297.894C338.635 298.601 338.358 299.099 337.596 299.099ZM337.596 294.32C336.889 294.32 336.681 293.863 336.681 293.197V292.602C336.681 291.923 336.931 291.493 337.596 291.493C338.275 291.493 338.524 291.923 338.524 292.602V293.197C338.524 293.863 338.302 294.32 337.596 294.32ZM340.908 298.282H343.762V300H344.925V298.282H345.591V297.326H344.925V290.607H343.706L340.908 297.52V298.282ZM343.762 292.782H343.776V297.326H341.988L343.762 292.782Z" fill="#C7C7C7"/>
<defs>
<linearGradient id="paint0_linear_3031_4412" x1="25" y1="362.493" x2="1919.53" y2="783.944" gradientUnits="userSpaceOnUse">
<stop stop-color="white"/>
<stop offset="0.71136" stop-color="white" stop-opacity="0.6"/>
<stop offset="0.961853" stop-color="white"/>
</linearGradient>
<clipPath id="clip0_3031_4412">
<rect width="110" height="800" fill="white" transform="translate(1810 232)"/>
</clipPath>
</defs>
</svg>
