<svg width="50" height="50" viewBox="0 0 50 50" fill="none" xmlns="http://www.w3.org/2000/svg">
<path opacity="0.2" d="M49 1H1V49H49V1Z" stroke="#FA0339" stroke-miterlimit="10"/>
<path d="M44.5088 1H49.0011V5.49227" stroke="#FA0339" stroke-width="2" stroke-miterlimit="10"/>
<path d="M1 5.49227V1H5.49227" stroke="#FA0339" stroke-width="2" stroke-miterlimit="10"/>
<path d="M1 44.5078V49.0001H5.49227" stroke="#FA0339" stroke-width="2" stroke-miterlimit="10"/>
<path d="M49.0011 44.5078V49.0001H44.5088" stroke="#FA0339" stroke-width="2" stroke-miterlimit="10"/>
<path d="M25 11C17.28 11 11 17.2806 11 25C11 25.1464 11.002 25.2915 11.0067 25.4365C11.0519 26.9059 11.3247 28.3193 11.7906 29.6423C13.7098 35.0877 18.9064 39 25 39C31.095 39 36.2929 35.0851 38.2101 29.6376C38.6759 28.3147 38.9488 26.9019 38.9933 25.4326C38.998 25.2888 39 25.1451 39 25C39 17.2806 32.7194 11 25 11ZM16.5853 28.2175C16.8305 28.1426 17.0779 28.0699 17.3297 28.0017C18.8001 27.6033 20.3461 27.3265 21.9504 27.1725L22.3399 33.6064C19.6968 32.7877 17.5698 30.7839 16.5853 28.2175ZM25.1078 27.1694C24.0604 27.1694 23.2112 26.3203 23.2112 25.2728C23.2112 24.2254 24.0604 23.3763 25.1078 23.3763C26.1552 23.3763 27.0044 24.2254 27.0044 25.2728C27.0044 26.3203 26.1552 27.1694 25.1078 27.1694ZM27.6695 33.6035L28.0588 27.1727C29.6596 27.3265 31.2028 27.6026 32.6711 28C32.9229 28.068 33.1703 28.1407 33.4155 28.2154C32.4325 30.78 30.3089 32.7828 27.6695 33.6035ZM33.159 23.6372C30.5784 23.0013 27.8347 22.6789 25.0043 22.6789C22.1686 22.6789 19.4218 23.0021 16.8404 23.6397C16.5798 23.7039 16.3224 23.7724 16.0666 23.8429C16.0728 23.795 16.0779 23.7468 16.0849 23.6991C16.717 19.3456 20.4742 15.991 25 15.991C29.5251 15.991 33.2817 19.3442 33.9145 23.6964C33.9215 23.744 33.9267 23.7923 33.933 23.8402C33.677 23.7698 33.4196 23.7013 33.159 23.6372Z" fill="#FA0339"/>
</svg>
