<svg width="42" height="42" viewBox="0 0 42 42" fill="none" xmlns="http://www.w3.org/2000/svg">
<path opacity="0.5" d="M41 1H1V41H41V1Z" stroke="white" stroke-miterlimit="10"/>
<rect x="4" y="4" width="34" height="34" fill="white"/>
<path d="M28.8091 13.4921C27.3177 12.8015 25.7183 12.2926 24.0461 12.0012C24.0156 11.9956 23.9852 12.0097 23.9695 12.0378C23.7639 12.407 23.536 12.8886 23.3765 13.2672C21.5779 12.9955 19.7886 12.9955 18.0269 13.2672C17.8673 12.8802 17.6312 12.407 17.4246 12.0378C17.4089 12.0106 17.3785 11.9965 17.348 12.0012C15.6767 12.2917 14.0774 12.8005 12.585 13.4921C12.5721 13.4977 12.561 13.5071 12.5537 13.5193C9.52006 18.0931 8.68902 22.5545 9.0967 26.9606C9.09855 26.9822 9.11054 27.0028 9.12714 27.0159C11.1286 28.4993 13.0674 29.3998 14.9702 29.9967C15.0007 30.0061 15.0329 29.9949 15.0523 29.9695C15.5024 29.3492 15.9036 28.6952 16.2476 28.0073C16.2679 27.967 16.2486 27.9192 16.2071 27.9033C15.5707 27.6597 14.9647 27.3626 14.3817 27.0253C14.3356 26.9981 14.3319 26.9316 14.3744 26.8997C14.497 26.8069 14.6197 26.7104 14.7369 26.613C14.758 26.5952 14.7876 26.5914 14.8125 26.6026C18.6421 28.3672 22.788 28.3672 26.5724 26.6026C26.5973 26.5905 26.6268 26.5942 26.6489 26.612C26.7661 26.7095 26.8888 26.8069 27.0124 26.8997C27.0548 26.9316 27.052 26.9981 27.0059 27.0253C26.423 27.3692 25.817 27.6597 25.1796 27.9024C25.1382 27.9183 25.1197 27.967 25.14 28.0073C25.4914 28.6942 25.8926 29.3483 26.3344 29.9686C26.3529 29.9949 26.3861 30.0061 26.4165 29.9967C28.3285 29.3998 30.2673 28.4993 32.2688 27.0159C32.2863 27.0028 32.2974 26.9831 32.2992 26.9616C32.7872 21.8676 31.482 17.4428 28.8395 13.5202C28.833 13.5071 28.822 13.4977 28.8091 13.4921ZM16.8195 24.2778C15.6666 24.2778 14.7166 23.2095 14.7166 21.8976C14.7166 20.5857 15.6481 19.5175 16.8195 19.5175C18.0001 19.5175 18.9409 20.5951 18.9225 21.8976C18.9225 23.2095 17.9909 24.2778 16.8195 24.2778ZM24.5949 24.2778C23.442 24.2778 22.4919 23.2095 22.4919 21.8976C22.4919 20.5857 23.4235 19.5175 24.5949 19.5175C25.7755 19.5175 26.7163 20.5951 26.6978 21.8976C26.6978 23.2095 25.7755 24.2778 24.5949 24.2778Z" fill="#141F32"/>
<path d="M37.2559 1H40.9994V4.74356" stroke="white" stroke-width="2" stroke-miterlimit="10"/>
<path d="M1 4.74356V1H4.74356" stroke="white" stroke-width="2" stroke-miterlimit="10"/>
<path d="M1 37.2546V40.9982H4.74356" stroke="white" stroke-width="2" stroke-miterlimit="10"/>
<path d="M40.9994 37.2546V40.9982H37.2559" stroke="white" stroke-width="2" stroke-miterlimit="10"/>
</svg>
