<svg width="43" height="42" viewBox="0 0 43 42" fill="none" xmlns="http://www.w3.org/2000/svg">
<path opacity="0.5" d="M41.0039 1H1.00391V41H41.0039V1Z" stroke="white" stroke-miterlimit="10"/>
<rect x="4.00391" y="4" width="34" height="34" fill="white"/>
<path d="M26.4075 14.5969C25.7612 14.5969 25.2324 15.1257 25.2324 15.772C25.2324 16.43 25.7612 16.9587 26.4075 16.9587C27.0655 16.9587 27.5942 16.43 27.5942 15.772C27.5942 15.1257 27.0655 14.5969 26.4075 14.5969Z" fill="#141F32"/>
<path d="M21.1598 16.1125C18.422 16.1125 16.2012 18.3334 16.2012 21.0712C16.2012 23.809 18.422 26.0298 21.1598 26.0298C23.8976 26.0298 26.1184 23.809 26.1184 21.0712C26.1184 18.3334 23.8976 16.1125 21.1598 16.1125ZM21.1598 24.2555C19.409 24.2555 17.9872 22.8337 17.9872 21.0829C17.9872 19.3321 19.409 17.9103 21.1598 17.9103C22.9106 17.9103 24.3324 19.3321 24.3324 21.0829C24.3324 22.8337 22.9106 24.2555 21.1598 24.2555Z" fill="#141F32"/>
<path d="M25.0925 31.14H17.0553C13.7182 31.14 11.0039 28.4257 11.0039 25.0886V17.0514C11.0039 13.7143 13.7182 11 17.0553 11H25.0925C28.4296 11 31.1439 13.7143 31.1439 17.0514V25.0886C31.1439 28.4257 28.4296 31.14 25.0925 31.14ZM17.0553 12.8918C14.764 12.8918 12.8957 14.7601 12.8957 17.0514V25.0886C12.8957 27.3799 14.764 29.2482 17.0553 29.2482H25.0925C27.3838 29.2482 29.2521 27.3799 29.2521 25.0886V17.0514C29.2521 14.7601 27.3838 12.8918 25.0925 12.8918H17.0553Z" fill="#141F32"/>
<path d="M37.2637 1H41.0072V4.74356" stroke="white" stroke-width="2" stroke-miterlimit="10"/>
<path d="M1.00391 4.74356V1H4.74746" stroke="white" stroke-width="2" stroke-miterlimit="10"/>
<path d="M1.00391 37.2546V40.9982H4.74746" stroke="white" stroke-width="2" stroke-miterlimit="10"/>
<path d="M41.0072 37.2546V40.9982H37.2637" stroke="white" stroke-width="2" stroke-miterlimit="10"/>
</svg>
