<svg width="43" height="42" viewBox="0 0 43 42" fill="none" xmlns="http://www.w3.org/2000/svg">
<path opacity="0.5" d="M41.0039 1H1.00391V41H41.0039V1Z" stroke="white" stroke-miterlimit="10"/>
<rect x="4.00391" y="4" width="34" height="34" fill="white"/>
<path d="M13.2741 17.3102H16.5988V28.001H13.2741V17.3102ZM14.9306 12C15.9997 12 16.8573 12.8576 16.8573 13.9267C16.8573 14.984 15.9997 15.8534 14.9306 15.8534C13.8615 15.8534 13.0039 14.984 13.0039 13.9267C13.0039 12.8576 13.8615 12 14.9306 12Z" fill="#141F32"/>
<path d="M18.6758 17.3093H21.8595V18.766H21.9065C22.353 17.9202 23.4338 17.0391 25.055 17.0391C28.415 17.0391 29.0377 19.2477 29.0377 22.126V27.9884H25.7129V22.7957C25.7129 21.5504 25.6894 19.9644 23.986 19.9644C22.259 19.9644 21.9888 21.3154 21.9888 22.7134V28.0001H18.6758V17.3093Z" fill="#141F32"/>
<path d="M37.2598 1H41.0033V4.74356" stroke="white" stroke-width="2" stroke-miterlimit="10"/>
<path d="M1.00391 4.74356V1H4.74746" stroke="white" stroke-width="2" stroke-miterlimit="10"/>
<path d="M1.00391 37.2546V40.9982H4.74746" stroke="white" stroke-width="2" stroke-miterlimit="10"/>
<path d="M41.0033 37.2546V40.9982H37.2598" stroke="white" stroke-width="2" stroke-miterlimit="10"/>
</svg>
