<svg width="26" height="26" viewBox="0 0 26 26" fill="none" xmlns="http://www.w3.org/2000/svg">
<path d="M0.438133 8.62849H5.82908V26H0.438133V8.62849ZM3.12408 0C4.85757 0 6.24816 1.39354 6.24816 3.13069C6.24816 4.84875 4.85757 6.26138 3.12408 6.26138C1.3906 6.26138 0 4.84875 0 3.13069C0 1.39354 1.3906 0 3.12408 0Z" fill="#D0D3D7"/>
<path d="M9.19824 8.62656H14.3606V10.9937H14.4368C15.1607 9.61922 16.9132 8.1875 19.542 8.1875C24.9901 8.1875 25.9997 11.7763 25.9997 16.4533V25.979H20.6088V17.5414C20.6088 15.5179 20.5707 12.9408 17.8085 12.9408C15.0083 12.9408 14.5701 15.1361 14.5701 17.4078V25.9981H9.19824V8.62656Z" fill="#D0D3D7"/>
</svg>
