<svg width="32" height="736" viewBox="0 0 32 736" fill="none" xmlns="http://www.w3.org/2000/svg">
<path d="M18.2314 54.1994C18.2314 56.989 18.2863 59.7812 18.184 62.5659C18.164 63.1223 17.6026 63.7162 17.1784 64.1903C16.2502 65.2333 15.2521 66.2114 13.9546 67.5539C16.8216 67.3817 17.8022 69.5126 19.4216 70.7677C22.2387 72.9511 23.414 75.631 22.8725 79.1642C22.6754 80.4518 22.8401 81.7942 22.8401 83.4311C22.2113 83.0717 21.7597 82.922 21.4552 82.6226C19.0848 80.2995 16.7592 77.9291 14.3763 75.6185C13.6576 74.9198 13.3906 74.1488 13.4206 73.1781C13.463 71.6985 13.4331 70.2163 13.4331 68.537C11.8735 69.1359 11.3645 70.0341 11.3246 71.4489C11.1948 76.2248 11.1549 76.2248 14.5809 79.6508C16.6344 81.7044 18.5683 83.9052 20.789 85.7591C22.9699 87.5781 23.1595 89.6966 22.5731 92.4538C21.1982 92.4538 19.8009 92.5661 18.431 92.4064C17.7723 92.3291 17.0611 91.8575 16.5621 91.3709C12.8841 87.7703 9.26851 84.1123 5.60301 80.4992C4.79455 79.7007 4.31547 78.8723 4.34292 77.6721C4.41278 74.6853 4.33044 71.696 4.39282 68.7092C4.40779 68.013 4.55002 67.1172 4.99417 66.6631C9.15872 62.3987 13.4006 58.2092 17.6201 53.9998C17.8247 54.0671 18.0293 54.132 18.2314 54.1994Z" fill="#A1A7B0"/>
<path d="M22.383 128.719C21.4223 127.865 20.9233 127.464 20.4717 127.017C15.5236 122.104 10.6105 117.156 5.61752 112.29C4.45224 111.155 3.98064 109.982 4.00061 108.355C4.08295 101.965 4.03554 95.572 4.03554 89.1792C4.03554 88.3658 4.03554 87.5548 4.03554 86.7589C6.21138 86.1051 7.74595 86.432 9.18071 87.9865C11.5986 90.609 14.1787 93.0818 16.7413 95.5695C17.5722 96.3755 17.9964 97.2214 17.9365 98.4041C17.8517 100.048 17.9165 101.698 17.9165 103.33C16.1424 104.048 14.8723 103.697 13.762 102.406C13.0708 101.603 12.2524 100.909 11.0721 99.759C10.85 102.691 10.7827 105.121 11.0996 107.529C11.1819 108.151 11.9429 108.719 12.4644 109.241C15.3315 112.125 18.191 115.02 21.1229 117.84C22.0337 118.715 22.4579 119.614 22.4105 120.889C22.3206 123.282 22.383 125.68 22.383 128.719Z" fill="#A1A7B0"/>
<circle cx="16.0852" cy="154.086" r="3.69943" fill="#A1A7B0"/>
<circle cx="16.0677" cy="154.016" r="9.08178" transform="rotate(-0.170449 16.0677 154.016)" fill="#A1A7B0"/>
<circle cx="16" cy="153.999" r="11.9645" transform="rotate(-0.170451 16 153.999)" fill="#A1A7B0"/>
<path d="M1.05827 30.8242C0.62307 30.8242 0.423603 30.4917 0.423603 30.0807L0.423603 27.8201C0.423603 27.403 0.62307 27.0766 1.05827 27.0766C1.49951 27.0766 1.70503 27.403 1.70503 27.8201L1.70503 30.0807C1.70503 30.4917 1.49951 30.8242 1.05827 30.8242ZM1.05827 31.0297C1.66876 31.0297 1.95285 30.6005 1.95285 30.0505L1.95285 27.8503C1.95285 27.3002 1.66876 26.8711 1.05827 26.8711C0.447781 26.8711 0.175781 27.3002 0.175781 27.8503L0.175781 30.0505C0.175781 30.6005 0.447781 31.0297 1.05827 31.0297Z" fill="#A1A7B0"/>
<path d="M3.61257 30.9994H5.2083V30.7939H3.85434L3.85434 30.3587C3.85434 29.9356 3.98732 29.8026 4.25932 29.5004L4.74288 28.9685C5.05115 28.624 5.2083 28.358 5.2083 28.0256V27.6387C5.2083 27.1068 4.9363 26.8711 4.42857 26.8711C3.92688 26.8711 3.62466 27.137 3.62466 27.6871V28.1525H3.87248V27.681C3.87248 27.2458 4.09008 27.0766 4.42252 27.0766C4.74288 27.0766 4.96048 27.2277 4.96048 27.6387V28.0014C4.96048 28.3097 4.80332 28.5575 4.5555 28.8295L4.10821 29.3251C3.76972 29.6938 3.61257 29.9054 3.61257 30.3587L3.61257 30.9994Z" fill="#A1A7B0"/>
<path d="M7.68983 26.8711C7.13374 26.8711 6.85569 27.1733 6.85569 27.6871V28.086H7.09747V27.675C7.09747 27.2882 7.29089 27.0766 7.67774 27.0766C8.04041 27.0766 8.23383 27.2519 8.23383 27.7113V28.1767C8.23383 28.5152 8.03436 28.7207 7.66565 28.7207H7.43596V28.9202H7.67169C8.05854 28.9202 8.26405 29.1196 8.26405 29.5065V30.1774C8.26405 30.5945 8.09481 30.8242 7.66565 30.8242C7.24858 30.8242 7.05516 30.6247 7.05516 30.1834V29.6334H6.80734V30.1653C6.80734 30.7395 7.06725 31.0297 7.66565 31.0297C8.27009 31.0297 8.51187 30.7093 8.51187 30.1774V29.5246C8.51187 29.0894 8.28823 28.8778 7.97392 28.8114C8.25801 28.7388 8.46956 28.5394 8.46956 28.1525V27.7113C8.46956 27.131 8.21569 26.8711 7.68983 26.8711Z" fill="#A1A7B0"/>
<path d="M11.0147 26.8711C10.4587 26.8711 10.1806 27.1733 10.1806 27.6871V28.086H10.4224V27.675C10.4224 27.2882 10.6158 27.0766 11.0027 27.0766C11.3653 27.0766 11.5587 27.2519 11.5587 27.7113V28.1767C11.5587 28.5152 11.3593 28.7207 10.9906 28.7207H10.7609V28.9202H10.9966C11.3835 28.9202 11.589 29.1196 11.589 29.5065V30.1774C11.589 30.5945 11.4197 30.8242 10.9906 30.8242C10.5735 30.8242 10.3801 30.6247 10.3801 30.1834V29.6334H10.1323V30.1653C10.1323 30.7395 10.3922 31.0297 10.9906 31.0297C11.595 31.0297 11.8368 30.7093 11.8368 30.1774V29.5246C11.8368 29.0894 11.6131 28.8778 11.2988 28.8114C11.5829 28.7388 11.7945 28.5394 11.7945 28.1525V27.7113C11.7945 27.131 11.5406 26.8711 11.0147 26.8711Z" fill="#A1A7B0"/>
<path d="M13.3377 27.1008H14.6252V27.3244L13.6399 30.9994H13.8877L14.8609 27.3486V26.9013H13.3377V27.1008Z" fill="#A1A7B0"/>
<path d="M17.2636 31.0297C17.8862 31.0297 18.1582 30.6428 18.1582 30.1109V29.5609C18.1582 29.1498 17.995 28.8355 17.6142 28.7207C17.9527 28.6058 18.0675 28.3157 18.0675 27.953V27.7294C18.0675 27.1975 17.8197 26.8711 17.2636 26.8711C16.7075 26.8711 16.4597 27.1975 16.4597 27.7294V27.953C16.4597 28.3157 16.5745 28.6058 16.907 28.7207C16.5383 28.8416 16.3751 29.1498 16.3751 29.5609V30.1109C16.3751 30.6428 16.641 31.0297 17.2636 31.0297ZM17.2636 30.8242C16.8103 30.8242 16.6229 30.528 16.6229 30.123V29.5246C16.6229 29.1196 16.8103 28.8295 17.2636 28.8295C17.723 28.8295 17.9104 29.1196 17.9104 29.5246V30.123C17.9104 30.528 17.7169 30.8242 17.2636 30.8242ZM17.2636 28.624C16.8224 28.624 16.6954 28.3338 16.6954 27.9651V27.7294C16.6954 27.3244 16.8526 27.0766 17.2636 27.0766C17.6746 27.0766 17.8318 27.3244 17.8318 27.7294V27.9651C17.8318 28.3459 17.7049 28.624 17.2636 28.624Z" fill="#A1A7B0"/>
<path d="M19.7048 28.9987H20.4785V28.7993H19.7048V28.9987Z" fill="#A1A7B0"/>
<path d="M22.9212 26.8711C22.347 26.8711 22.0569 27.1854 22.0569 27.808V28.5454C22.0569 29.1922 22.347 29.4762 22.8366 29.4762C23.2234 29.4762 23.441 29.2707 23.5377 29.0531H23.5438V30.1109C23.5438 30.6368 23.2899 30.8242 22.9212 30.8242C22.5525 30.8242 22.3349 30.6368 22.3349 30.1593V29.857H22.0992V30.1411C22.0992 30.7516 22.3953 31.0297 22.9273 31.0297C23.4592 31.0297 23.7916 30.7516 23.7916 30.0807V27.8563C23.7916 27.2217 23.4833 26.8711 22.9212 26.8711ZM22.9212 27.0766C23.3081 27.0766 23.5438 27.3305 23.5438 27.8201V28.5696C23.5438 29.029 23.2476 29.2707 22.9091 29.2707C22.5162 29.2707 22.2986 29.0652 22.2986 28.5575V27.7959C22.2986 27.2882 22.5283 27.0766 22.9212 27.0766Z" fill="#A1A7B0"/>
<path d="M1.85452 0L1 0.854525V0H1.85452Z" fill="#A1A7B0"/>
<path d="M6.37923 0L1 5.37923V3.34974L4.34974 0H6.37923Z" fill="#A1A7B0"/>
<path d="M10.8997 0L1 9.89967V7.87445L8.87445 0H10.8997Z" fill="#A1A7B0"/>
<path d="M15.4201 0L1 14.4201V12.3949L13.3949 0H15.4201Z" fill="#A1A7B0"/>
<path d="M19.9448 0L1 18.9405V16.9153L17.9153 0H19.9448Z" fill="#A1A7B0"/>
<path d="M23.3843 0V1.08097L2.08525 22.38H1V21.4358L22.44 0H23.3843Z" fill="#A1A7B0"/>
<path d="M23.3849 3.57812V5.60335L6.61055 22.3819H4.58105L23.3849 3.57812Z" fill="#A1A7B0"/>
<path d="M23.3846 8.09766V10.1272L11.1307 22.381H9.10547L23.3846 8.09766Z" fill="#A1A7B0"/>
<path d="M23.3847 12.6211V14.6463L15.6512 22.3798H13.626L23.3847 12.6211Z" fill="#A1A7B0"/>
<path d="M23.3837 17.1406V19.1701L20.1707 22.3789H18.1455L23.3837 17.1406Z" fill="#A1A7B0"/>
<path d="M23.3848 21.6641V22.3819H22.667L23.3848 21.6641Z" fill="#A1A7B0"/>
<rect x="24.4248" y="609.676" width="1.91515" height="4.78788" fill="white"/>
<rect x="27.9375" y="536.531" width="1.59596" height="4.78788" transform="rotate(90 27.9375 536.531)" fill="white"/>
<rect x="27.2969" y="655.285" width="1.59596" height="3.51111" transform="rotate(90 27.2969 655.285)" fill="white"/>
<rect x="28.2559" y="526" width="1.59596" height="4.78788" transform="rotate(90 28.2559 526)" fill="white"/>
<path d="M31 591.527L28.728 591.127L28.728 588.871L31 588.455L31 587.015L20.152 589.127L20.152 590.775L31 592.871L31 591.527ZM22.472 590.007L22.472 589.991L27.576 589.079L27.576 590.919L22.472 590.007Z" fill="white"/>
<path d="M25.928 587.006L25.928 584.622L24.792 584.622L24.792 587.006L25.928 587.006Z" fill="white"/>
<path d="M29.944 581.269C29.944 582.085 29.336 582.437 28.52 582.437L22.632 582.437C21.816 582.437 21.208 582.085 21.208 581.269C21.208 580.453 21.816 580.101 22.632 580.101L28.52 580.101C29.336 580.101 29.944 580.453 29.944 581.269ZM31.112 581.269C31.112 579.509 29.896 578.693 28.296 578.693L22.856 578.693C21.256 578.693 20.04 579.509 20.04 581.269C20.04 583.029 21.256 583.845 22.856 583.845L28.296 583.845C29.896 583.845 31.112 583.029 31.112 581.269Z" fill="white"/>
<path d="M29.944 575.205C29.944 576.021 29.336 576.373 28.52 576.373L22.632 576.373C21.816 576.373 21.208 576.021 21.208 575.205C21.208 574.389 21.816 574.037 22.632 574.037L28.52 574.037C29.336 574.037 29.944 574.389 29.944 575.205ZM31.112 575.205C31.112 573.445 29.896 572.629 28.296 572.629L22.856 572.629C21.256 572.629 20.04 573.445 20.04 575.205C20.04 576.965 21.256 577.781 22.856 577.781L28.296 577.781C29.896 577.781 31.112 576.965 31.112 575.205Z" fill="white"/>
<path d="M31 571.748L31 567.204L29.848 567.204L29.848 570.404L29.112 570.404C28.168 570.404 27.832 570.084 27.24 569.54L25.928 568.308C24.952 567.412 24.28 567.14 23.272 567.14L22.232 567.14C20.776 567.14 20.04 567.892 20.04 569.412C20.04 570.9 20.84 571.716 22.328 571.716L23.608 571.716L23.608 570.404L22.296 570.404C21.464 570.404 21.176 570.004 21.176 569.444C21.176 568.916 21.416 568.516 22.232 568.516L23.16 568.516C24.008 568.516 24.472 568.708 25.144 569.332L26.312 570.42C27.352 571.364 27.992 571.748 29.112 571.748L31 571.748Z" fill="white"/>
<circle cx="22.8303" cy="731.268" r="1.59596" fill="white"/>
<circle cx="22.8303" cy="731.268" r="1.59596" fill="white"/>
<rect x="24" y="352" width="3.67341" height="3.67341" fill="#FA0339"/>
<rect x="24" y="432.082" width="3.67341" height="3.67341" fill="#FA0339"/>
<rect x="24" y="442.734" width="3.67341" height="3.67341" fill="#FA0339"/>
</svg>
