<svg width="459" height="123" viewBox="0 0 459 123" fill="none" xmlns="http://www.w3.org/2000/svg">
<path d="M137.098 14.0691L103.227 85.4464H137.778L171.736 14.0691L137.098 14.0691Z" fill="white"/>
<path d="M94.0622 14.0691L77.4619 49.0461L60.8616 14.0691L26.2283 14.0691L29.7646 21.5006L0 85.4464H34.5512L47.419 58.6172L60.1863 85.4464H60.1909H94.7375H94.7421L128.7 14.0691L94.0622 14.0691Z" fill="white"/>
<path d="M458.002 27.0345L422.091 0L414.964 14.8539L349.17 14.8539L323.58 14.8539H323.329C320.943 14.8539 318.652 15.4744 316.645 16.5829C313.857 18.061 311.552 20.4196 310.165 23.394L303.17 39.2105H303.174L292.497 62.121L290.713 65.7706C286.145 75.1045 292.944 85.9895 303.334 85.9895L362.247 85.9895C368.001 85.9895 373.231 82.6592 375.663 77.4494L383.05 62.0115H382.95L392.92 41.7562L357.579 41.7562L347.965 62.0115H325.962L337.183 39.2105L403.269 39.2105L396.201 53.9367L458.002 27.0345Z" fill="white"/>
<path d="M222.511 38.4244C229.639 37.3158 232.911 36.9463 236.169 30.1261L243.839 14.0632L180.386 14.0632L169.01 38.4244H181.348L174.645 52.5484L159.035 85.4451H193.586L211.989 46.7638C211.985 46.7638 215.379 39.5375 222.511 38.4244Z" fill="white"/>
<path d="M288.661 55.1222L291.622 48.9178L300.844 29.3422C306.799 14.064 292.927 13.9363 292.927 13.9363L286.991 13.9363L252.025 13.9363L242.593 33.6716L259.216 33.6716C259.216 33.6716 263.085 33.9909 262.825 37.2801C262.561 40.5693 259.75 40.8431 259.75 40.8431L249.054 41.281C249.054 41.281 243.834 41.1122 231.897 42.2117C222.15 43.6624 216.556 54.6386 216.556 54.6386L201.43 85.3182H235.981L243.806 68.352C243.825 68.3155 243.843 68.279 243.857 68.2425C244.746 66.0893 245.239 65.2316 246.421 65.2316C247.475 65.2316 248.447 68.2836 248.447 68.2836L253.95 85.3182H288.542L279.759 64.3375C285.125 62.0838 288.661 55.1222 288.661 55.1222Z" fill="white"/>
<path d="M401.827 114.11C400.278 114.11 398.8 114.11 397.27 114.11C397.561 113.234 397.842 112.394 398.115 111.551C398.176 111.361 398.316 111.378 398.463 111.378C401.828 111.379 405.194 111.382 408.559 111.373C408.872 111.372 408.854 111.487 408.777 111.717C407.713 114.893 406.669 118.076 405.589 121.246C405.233 122.292 404.288 122.581 403.333 122.788C402.649 122.936 401.95 122.984 401.249 122.984C396.974 122.985 392.698 122.987 388.423 122.982C387.675 122.981 386.928 122.939 386.209 122.704C385.312 122.411 385.084 121.965 385.38 121.073C387.346 115.162 389.323 109.254 391.274 103.337C391.591 102.374 392.268 101.895 393.171 101.639C393.989 101.407 394.832 101.337 395.679 101.335C399.955 101.331 404.23 101.331 408.506 101.335C409.271 101.337 410.034 101.386 410.768 101.625C411.657 101.916 411.885 102.373 411.594 103.255C411.118 104.699 410.628 106.14 410.165 107.588C410.07 107.884 409.935 107.978 409.62 107.975C407.864 107.957 406.108 107.951 404.353 107.977C403.898 107.984 403.902 107.848 404.029 107.49C404.376 106.513 404.683 105.522 405.023 104.543C405.117 104.275 405.154 104.152 404.78 104.155C402.341 104.17 399.903 104.167 397.465 104.156C397.205 104.155 397.101 104.246 397.024 104.478C395.327 109.594 393.627 114.71 391.914 119.821C391.808 120.139 391.893 120.162 392.168 120.16C394.607 120.153 397.045 120.156 399.484 120.156C399.66 120.156 399.818 120.178 399.896 119.939C400.521 118.017 401.164 116.099 401.827 114.11Z" fill="white"/>
<path d="M422.47 101.332C420.375 107.618 418.293 113.863 416.198 120.155C417.566 120.155 418.879 120.155 420.192 120.155C421.477 120.155 422.76 120.141 424.045 120.165C424.38 120.17 424.511 120.071 424.616 119.754C426.591 113.786 428.585 107.823 430.559 101.856C430.691 101.457 430.853 101.311 431.296 101.319C433.131 101.351 434.966 101.333 436.861 101.333C436.483 102.462 436.118 103.549 435.756 104.635C433.957 110.042 432.144 115.443 430.371 120.858C430.032 121.891 429.35 122.432 428.363 122.693C427.558 122.907 426.731 122.981 425.902 122.981C421.545 122.987 417.187 122.987 412.831 122.981C412.066 122.98 411.301 122.931 410.57 122.686C409.712 122.4 409.486 121.941 409.776 121.075C411.925 114.61 414.078 108.146 416.228 101.682C416.294 101.482 416.337 101.32 416.634 101.323C418.552 101.341 420.47 101.332 422.47 101.332Z" fill="white"/>
<path d="M359.812 122.984C361.697 120.291 363.527 117.673 365.358 115.056C368.492 110.574 371.628 106.094 374.755 101.609C374.939 101.344 375.118 101.223 375.456 101.227C377.309 101.246 379.162 101.244 381.014 101.228C381.348 101.226 381.488 101.269 381.498 101.662C381.652 107.719 381.824 113.775 381.993 119.832C382.019 120.758 382.043 121.683 382.088 122.608C382.102 122.891 382.05 122.998 381.73 122.994C379.942 122.976 378.155 122.98 376.367 122.991C376.09 122.993 376.01 122.919 376.023 122.642C376.073 121.522 376.087 120.401 376.147 119.281C376.165 118.952 376.07 118.882 375.756 118.883C373.447 118.896 371.14 118.896 368.832 118.883C368.548 118.882 368.4 118.985 368.259 119.212C367.54 120.369 366.806 121.517 366.076 122.666C365.977 122.822 365.91 122.993 365.65 122.991C363.734 122.979 361.819 122.984 359.812 122.984ZM370.225 116.059C372.206 116.059 374.103 116.054 376 116.065C376.312 116.066 376.234 115.861 376.238 115.704C376.33 112.684 376.42 109.663 376.505 106.644C376.508 106.564 376.575 106.449 376.42 106.398C374.374 109.589 372.326 112.783 370.225 116.059Z" fill="white"/>
<path d="M358.874 120.141C358.572 121.039 358.279 121.862 358.025 122.695C357.951 122.935 357.84 123.011 357.615 122.984C357.568 122.979 357.517 122.983 357.468 122.983C352.119 122.983 346.77 122.979 341.42 122.991C341.001 122.993 340.953 122.906 341.083 122.518C343.407 115.579 345.717 108.634 348.028 101.69C348.102 101.465 348.169 101.319 348.478 101.321C353.909 101.335 359.339 101.33 364.77 101.332C364.817 101.332 364.866 101.343 364.97 101.356C364.679 102.24 364.392 103.114 364.104 103.986C364.015 104.259 363.783 104.157 363.608 104.157C360.34 104.162 357.071 104.168 353.804 104.151C353.432 104.15 353.287 104.253 353.172 104.612C352.582 106.463 351.954 108.303 351.34 110.147C351.305 110.251 351.226 110.348 351.283 110.493C354.311 110.493 357.348 110.493 360.442 110.493C360.139 111.4 359.838 112.269 359.562 113.144C359.468 113.441 359.247 113.321 359.082 113.322C356.318 113.331 353.554 113.336 350.789 113.318C350.409 113.315 350.227 113.405 350.104 113.788C349.451 115.823 348.766 117.849 348.092 119.877C348.067 119.951 348.048 120.028 348.016 120.14C351.634 120.141 355.22 120.141 358.874 120.141Z" fill="white"/>
<path d="M444.002 110.506C447.108 110.506 450.145 110.506 453.228 110.506C452.929 111.4 452.626 112.252 452.361 113.116C452.272 113.408 452.076 113.327 451.903 113.327C449.643 113.331 447.382 113.33 445.123 113.33C444.537 113.33 443.953 113.337 443.367 113.326C443.167 113.322 443.043 113.358 442.971 113.576C442.264 115.73 441.544 117.88 440.831 120.031C440.822 120.059 440.838 120.094 440.845 120.15C444.432 120.15 448.021 120.15 451.655 120.15C451.353 121.057 451.057 121.927 450.779 122.802C450.695 123.066 450.499 122.978 450.34 122.979C448.323 122.985 446.307 122.984 444.291 122.984C440.926 122.984 437.56 122.978 434.194 122.992C433.815 122.993 433.731 122.947 433.864 122.55C436.193 115.595 438.506 108.635 440.821 101.675C440.889 101.469 440.943 101.323 441.233 101.323C446.681 101.335 452.126 101.332 457.574 101.334C457.618 101.334 457.663 101.352 457.754 101.371C457.462 102.258 457.178 103.131 456.884 104.002C456.795 104.268 456.554 104.157 456.38 104.157C453.112 104.163 449.843 104.167 446.576 104.153C446.232 104.152 446.081 104.244 445.972 104.582C445.34 106.539 444.678 108.484 444.002 110.506Z" fill="white"/>
<path d="M329.101 120.068C332.443 120.068 335.736 120.068 339.077 120.068C338.768 120.995 338.462 121.88 338.185 122.771C338.087 123.086 337.858 122.984 337.671 122.984C334.226 122.989 330.781 122.988 327.336 122.988C325.582 122.988 323.829 122.988 322.016 122.988C322.379 121.888 322.724 120.83 323.077 119.774C325.078 113.772 327.084 107.772 329.076 101.767C329.184 101.442 329.311 101.323 329.669 101.327C331.537 101.348 333.406 101.337 335.341 101.337C333.26 107.588 331.188 113.807 329.101 120.068Z" fill="white"/>
<path d="M319.647 109.21L136.992 110.104L317.347 114.817L319.647 109.21Z" fill="white"/>
</svg>
