<svg width="200" height="54" viewBox="0 0 200 54" fill="none" xmlns="http://www.w3.org/2000/svg">
<path d="M59.868 6.14453L45.0771 37.3135H60.1649L74.9937 6.14453L59.868 6.14453Z" fill="#FA0339"/>
<path d="M41.075 6.14453L33.826 21.4182L26.577 6.14453L11.4533 6.14453L12.9976 9.38972L0 37.3135H15.0878L20.7069 25.5977L26.2821 37.3135H26.2841L41.3699 37.3135H41.3719L56.2006 6.14453L41.075 6.14453Z" fill="#FA0339"/>
<path d="M199.999 11.8054L184.318 0L181.205 6.4864L152.474 6.4864L141.3 6.4864H141.19C140.148 6.4864 139.148 6.75733 138.271 7.24142C137.054 7.88687 136.047 8.9168 135.442 10.2157L132.387 17.1224H132.389L127.727 27.1269L126.947 28.7206C124.953 32.7965 127.922 37.5498 132.459 37.5498L158.185 37.5498C160.698 37.5498 162.981 36.0955 164.043 33.8205L167.269 27.0791H167.225L171.579 18.234L156.147 18.234L151.948 27.0791H142.34L147.24 17.1224L176.098 17.1224L173.012 23.553L199.999 11.8054Z" fill="#FA0339"/>
<path d="M97.166 16.7786C100.278 16.2945 101.707 16.1332 103.13 13.1549L106.479 6.14063L78.7705 6.14063L73.803 16.7786H79.191L76.2639 22.9463L69.4473 37.3116H84.5351L92.5711 20.4203C92.5691 20.4203 94.0516 17.2647 97.166 16.7786Z" fill="#FA0339"/>
<path d="M126.052 24.0709L127.345 21.3616L131.372 12.8134C133.973 6.14172 127.915 6.08594 127.915 6.08594L125.323 6.08594L110.054 6.08594L105.935 14.7039H113.194C113.194 14.7039 114.884 14.8434 114.77 16.2797C114.654 17.716 113.427 17.8356 113.427 17.8356L108.756 18.0268C108.756 18.0268 106.477 17.9531 101.264 18.4332C97.0082 19.0667 94.5653 23.8598 94.5653 23.8598L87.96 37.2569H103.048L106.465 29.8481C106.473 29.8322 106.481 29.8163 106.487 29.8003C106.875 28.86 107.091 28.4855 107.607 28.4855C108.067 28.4855 108.491 29.8183 108.491 29.8183L110.895 37.2569L126 37.2569L122.165 28.0951C124.508 27.1109 126.052 24.0709 126.052 24.0709Z" fill="#FA0339"/>
<path d="M175.469 49.826C174.792 49.826 174.147 49.826 173.479 49.826C173.606 49.4433 173.729 49.0764 173.848 48.7083C173.875 48.6253 173.936 48.6327 174 48.6327C175.469 48.6333 176.939 48.6345 178.409 48.6308C178.545 48.6302 178.537 48.6803 178.504 48.781C178.039 50.1678 177.583 51.5577 177.112 52.9421C176.956 53.3987 176.543 53.5251 176.126 53.6154C175.828 53.6801 175.522 53.7009 175.217 53.7009C173.35 53.7015 171.483 53.7021 169.615 53.7003C169.289 53.6997 168.963 53.6814 168.649 53.5788C168.257 53.4506 168.157 53.2559 168.287 52.8665C169.145 50.285 170.009 47.7054 170.86 45.1216C170.999 44.701 171.294 44.4916 171.689 44.3799C172.046 44.2786 172.414 44.2481 172.784 44.2475C174.651 44.2456 176.518 44.2456 178.385 44.2475C178.719 44.2481 179.053 44.2694 179.373 44.3738C179.762 44.5008 179.861 44.7004 179.734 45.0856C179.526 45.7161 179.312 46.3454 179.11 46.9778C179.069 47.1072 179.009 47.1481 178.872 47.1469C178.105 47.139 177.338 47.1365 176.572 47.1475C176.373 47.1506 176.375 47.0914 176.43 46.9351C176.582 46.5084 176.716 46.0756 176.864 45.6484C176.905 45.5312 176.922 45.4774 176.758 45.4787C175.693 45.4854 174.629 45.4842 173.564 45.4793C173.45 45.4787 173.405 45.5183 173.372 45.6197C172.63 47.8538 171.888 50.0879 171.14 52.3195C171.094 52.4587 171.131 52.4685 171.251 52.4679C172.316 52.4648 173.381 52.466 174.445 52.466C174.522 52.466 174.591 52.4758 174.626 52.3714C174.899 51.5321 175.179 50.6946 175.469 49.826Z" fill="white"/>
<path d="M184.484 44.2478C183.569 46.9928 182.66 49.7202 181.745 52.4676C182.343 52.4676 182.916 52.4676 183.489 52.4676C184.051 52.4676 184.611 52.4615 185.172 52.4719C185.318 52.4743 185.375 52.431 185.421 52.2924C186.284 49.6866 187.155 47.0826 188.017 44.4767C188.074 44.3028 188.145 44.2387 188.338 44.2423C189.139 44.2564 189.941 44.2484 190.768 44.2484C190.604 44.7417 190.444 45.2159 190.286 45.6902C189.5 48.0513 188.708 50.4099 187.934 52.7746C187.786 53.2257 187.489 53.462 187.057 53.5761C186.706 53.6695 186.345 53.7019 185.983 53.7019C184.08 53.7043 182.177 53.7043 180.275 53.7019C179.941 53.7012 179.607 53.6799 179.288 53.5731C178.913 53.4479 178.815 53.2477 178.941 52.8693C179.879 50.0461 180.82 47.2236 181.759 44.401C181.787 44.3138 181.806 44.2429 181.936 44.2442C182.773 44.2521 183.611 44.2478 184.484 44.2478Z" fill="white"/>
<path d="M157.123 53.7003C157.946 52.524 158.745 51.3807 159.544 50.2381C160.913 48.2811 162.283 46.3247 163.648 44.3659C163.729 44.2505 163.807 44.1974 163.954 44.1993C164.763 44.2078 165.572 44.2066 166.381 44.1999C166.527 44.1987 166.588 44.2176 166.593 44.3891C166.66 47.034 166.735 49.6789 166.809 52.3238C166.82 52.7279 166.831 53.132 166.85 53.5361C166.856 53.6594 166.834 53.7064 166.694 53.7046C165.913 53.6966 165.133 53.6985 164.352 53.7033C164.231 53.704 164.196 53.6716 164.202 53.5507C164.224 53.0618 164.23 52.5723 164.256 52.0833C164.264 51.9393 164.222 51.9087 164.085 51.9094C163.077 51.9148 162.07 51.9148 161.062 51.9094C160.938 51.9087 160.873 51.9539 160.811 52.0528C160.498 52.5582 160.177 53.0594 159.858 53.5611C159.815 53.6295 159.786 53.704 159.672 53.7033C158.836 53.6979 157.999 53.7003 157.123 53.7003ZM161.67 50.6763C162.535 50.6763 163.363 50.6739 164.192 50.6788C164.328 50.6794 164.294 50.5896 164.296 50.5213C164.336 49.2022 164.375 47.8831 164.412 46.5646C164.414 46.5298 164.443 46.4798 164.375 46.4572C163.482 47.8507 162.587 49.2455 161.67 50.6763Z" fill="white"/>
<path d="M156.713 52.4608C156.581 52.8526 156.453 53.2122 156.342 53.576C156.31 53.681 156.261 53.7139 156.163 53.7023C156.142 53.6999 156.12 53.7017 156.099 53.7017C153.763 53.7017 151.427 53.6999 149.091 53.7054C148.908 53.706 148.887 53.6681 148.944 53.4984C149.959 50.4684 150.967 47.4359 151.977 44.4033C152.009 44.3051 152.038 44.2416 152.173 44.2422C154.544 44.2483 156.916 44.2465 159.287 44.2471C159.308 44.2471 159.329 44.252 159.374 44.2575C159.247 44.6438 159.122 45.0253 158.997 45.4062C158.957 45.5253 158.856 45.4807 158.78 45.4807C157.353 45.4832 155.926 45.4856 154.499 45.4783C154.336 45.4777 154.273 45.5228 154.223 45.6797C153.965 46.4879 153.691 47.2912 153.423 48.0963C153.408 48.1421 153.373 48.1842 153.398 48.2477C154.72 48.2477 156.046 48.2477 157.398 48.2477C157.265 48.6439 157.134 49.0229 157.013 49.405C156.972 49.5351 156.876 49.4826 156.803 49.4832C155.596 49.4868 154.389 49.4893 153.182 49.4813C153.016 49.4801 152.937 49.5192 152.883 49.6864C152.598 50.5752 152.299 51.4597 152.005 52.3454C151.994 52.3777 151.985 52.4113 151.971 52.4601C153.551 52.4608 155.117 52.4608 156.713 52.4608Z" fill="white"/>
<path d="M193.887 48.2526C195.244 48.2526 196.57 48.2526 197.916 48.2526C197.786 48.6426 197.653 49.015 197.538 49.3922C197.499 49.5198 197.413 49.4844 197.338 49.4844C196.351 49.4862 195.364 49.4856 194.377 49.4856C194.121 49.4856 193.866 49.4887 193.61 49.4838C193.523 49.4819 193.469 49.4978 193.437 49.593C193.128 50.5337 192.814 51.4725 192.503 52.4119C192.499 52.4241 192.506 52.4394 192.509 52.4638C194.075 52.4638 195.643 52.4638 197.23 52.4638C197.098 52.86 196.968 53.2396 196.847 53.6218C196.81 53.7371 196.725 53.6987 196.655 53.6993C195.775 53.7017 194.894 53.7011 194.014 53.7011C192.544 53.7011 191.075 53.6987 189.604 53.7048C189.439 53.7054 189.402 53.6852 189.46 53.5119C190.477 50.4745 191.487 47.4352 192.498 44.396C192.528 44.3063 192.552 44.2422 192.679 44.2422C195.057 44.2477 197.435 44.2465 199.814 44.2471C199.833 44.2471 199.853 44.255 199.893 44.2636C199.765 44.6506 199.641 45.0321 199.513 45.4123C199.474 45.5283 199.369 45.4801 199.293 45.4801C197.866 45.4825 196.438 45.4844 195.011 45.4783C194.861 45.4777 194.795 45.5179 194.748 45.6657C194.472 46.5202 194.183 47.3693 193.887 48.2526Z" fill="white"/>
<path d="M143.711 52.4299C145.171 52.4299 146.608 52.4299 148.068 52.4299C147.933 52.8346 147.799 53.221 147.678 53.6104C147.635 53.7478 147.535 53.7032 147.453 53.7032C145.949 53.7057 144.445 53.7051 142.94 53.7051C142.175 53.7051 141.409 53.7051 140.617 53.7051C140.776 53.2247 140.927 52.7626 141.081 52.3017C141.954 49.6806 142.83 47.0607 143.7 44.4384C143.747 44.2962 143.803 44.2443 143.959 44.2461C144.775 44.2553 145.591 44.2504 146.436 44.2504C145.527 46.9802 144.622 49.6959 143.711 52.4299Z" fill="white"/>
<path d="M139.582 47.6914L59.8203 48.0818L138.577 50.1397L139.582 47.6914Z" fill="white"/>
</svg>
