<svg width="121" height="32" viewBox="0 0 121 32" fill="none" xmlns="http://www.w3.org/2000/svg">
<path d="M35.9192 3.65918L27.0449 22.2312H36.0974L44.9944 3.65918L35.9192 3.65918Z" fill="#FA0339"/>
<path d="M24.6444 3.65918L20.2951 12.76L15.9458 3.65918L6.87184 3.65918L7.79836 5.59282L0 22.2312H9.05246L12.4238 15.2504L15.7689 22.2312H15.7701H24.8213H24.8225L33.7196 3.65918L24.6444 3.65918Z" fill="#FA0339"/>
<path d="M120.002 7.03424L110.593 0L108.726 3.86491L91.4879 3.86491L84.7835 3.86491H84.7177C84.0925 3.86491 83.4923 4.02635 82.9663 4.31479C82.2358 4.69938 81.6321 5.31307 81.2686 6.087L79.4359 10.2024H79.4371L76.6396 16.1636L76.1721 17.1132C74.9754 19.5418 76.7568 22.374 79.479 22.374L94.9143 22.374C96.4218 22.374 97.7919 21.5075 98.4291 20.1519L100.365 16.1351H100.338L102.951 10.8647L93.6913 10.8647L91.1723 16.1351H85.4075L88.3473 10.2024L105.662 10.2024L103.81 14.0341L120.002 7.03424Z" fill="#FA0339"/>
<path d="M58.293 9.99685C60.1604 9.70841 61.0175 9.61226 61.8711 7.83768L63.8808 3.6582L47.2559 3.6582L44.2755 9.99685H47.5082L45.752 13.6718L41.6621 22.2314H50.7146L55.5361 12.1667C55.5349 12.1667 56.4244 10.2865 58.293 9.99685Z" fill="#FA0339"/>
<path d="M75.6321 14.3423L76.4079 12.728L78.8241 7.63452C80.3842 3.65921 76.7499 3.62598 76.7499 3.62598H75.1945L66.0332 3.62598L63.5621 8.76099L67.9174 8.76099C67.9174 8.76099 68.9312 8.84409 68.863 9.69992C68.7937 10.5558 68.0573 10.627 68.0573 10.627L65.255 10.7409C65.255 10.7409 63.8873 10.697 60.7598 10.9831C58.2062 11.3606 56.7405 14.2165 56.7405 14.2165L52.7773 22.1992H61.8298L63.8801 17.7847C63.8849 17.7752 63.8897 17.7657 63.8933 17.7562C64.1264 17.1959 64.2555 16.9728 64.5651 16.9728C64.8413 16.9728 65.096 17.7669 65.096 17.7669L66.5377 22.1992H75.601L73.2996 16.7401C74.7055 16.1537 75.6321 14.3423 75.6321 14.3423Z" fill="#FA0339"/>
<path d="M105.29 29.6871C104.884 29.6871 104.497 29.6871 104.097 29.6871C104.173 29.459 104.246 29.2405 104.318 29.0211C104.334 28.9717 104.371 28.976 104.409 28.976C105.291 28.9764 106.172 28.9771 107.054 28.9749C107.136 28.9746 107.131 29.0044 107.111 29.0644C106.833 29.8908 106.559 30.7189 106.276 31.5438C106.183 31.8159 105.935 31.8912 105.685 31.945C105.506 31.9836 105.323 31.9959 105.139 31.9959C104.019 31.9963 102.899 31.9967 101.778 31.9956C101.582 31.9952 101.387 31.9843 101.199 31.9232C100.963 31.8468 100.904 31.7308 100.981 31.4987C101.496 29.9606 102.014 28.4236 102.525 26.884C102.609 26.6334 102.786 26.5086 103.022 26.442C103.237 26.3817 103.458 26.3635 103.68 26.3631C104.8 26.362 105.92 26.362 107.04 26.3631C107.241 26.3635 107.441 26.3762 107.633 26.4384C107.866 26.5141 107.926 26.633 107.849 26.8625C107.725 27.2382 107.596 27.6132 107.475 27.99C107.45 28.0671 107.415 28.0915 107.332 28.0908C106.872 28.086 106.412 28.0846 105.952 28.0911C105.833 28.0929 105.834 28.0577 105.867 27.9645C105.958 27.7103 106.039 27.4524 106.128 27.1978C106.152 27.128 106.162 27.096 106.064 27.0967C105.425 27.1007 104.786 27.1 104.147 27.0971C104.079 27.0967 104.052 27.1204 104.032 27.1807C103.587 28.5119 103.142 29.8431 102.693 31.1729C102.665 31.2558 102.688 31.2616 102.76 31.2612C103.399 31.2594 104.038 31.2601 104.676 31.2601C104.723 31.2601 104.764 31.266 104.784 31.2038C104.948 30.7037 105.117 30.2047 105.29 29.6871Z" fill="white"/>
<path d="M110.695 26.3618C110.146 27.9974 109.601 29.6224 109.052 31.2595C109.41 31.2595 109.754 31.2595 110.098 31.2595C110.435 31.2595 110.771 31.2559 111.108 31.2621C111.195 31.2635 111.23 31.2377 111.257 31.1551C111.775 29.6024 112.297 28.0508 112.815 26.4982C112.849 26.3945 112.891 26.3563 113.008 26.3585C113.488 26.3669 113.969 26.3621 114.466 26.3621C114.367 26.656 114.271 26.9386 114.176 27.2212C113.705 28.6281 113.23 30.0334 112.765 31.4425C112.676 31.7112 112.498 31.852 112.239 31.92C112.028 31.9757 111.812 31.9949 111.594 31.9949C110.453 31.9964 109.311 31.9964 108.17 31.9949C107.969 31.9946 107.769 31.9818 107.577 31.9182C107.352 31.8436 107.293 31.7243 107.369 31.4988C107.932 29.8167 108.496 28.1349 109.06 26.4531C109.077 26.401 109.088 26.3589 109.166 26.3596C109.669 26.3643 110.171 26.3618 110.695 26.3618Z" fill="white"/>
<path d="M94.2832 31.9962C94.777 31.2953 95.2565 30.6141 95.736 29.9332C96.5573 28.7671 97.379 27.6014 98.198 26.4343C98.2464 26.3655 98.2933 26.3339 98.3819 26.335C98.8673 26.3401 99.3527 26.3394 99.8381 26.3354C99.9256 26.3346 99.9622 26.3459 99.9648 26.4481C100.005 28.0241 100.05 29.6 100.094 31.176C100.101 31.4168 100.108 31.6576 100.119 31.8983C100.123 31.9718 100.109 31.9998 100.026 31.9987C99.5571 31.994 99.0889 31.9951 98.6204 31.998C98.5479 31.9984 98.527 31.9791 98.5303 31.9071C98.5435 31.6157 98.5471 31.324 98.5629 31.0327C98.5677 30.9469 98.5428 30.9287 98.4603 30.929C97.8555 30.9323 97.2511 30.9323 96.6463 30.929C96.572 30.9287 96.5331 30.9556 96.4961 31.0145C96.3078 31.3157 96.1155 31.6143 95.9243 31.9132C95.8983 31.954 95.8807 31.9984 95.8126 31.998C95.3107 31.9947 94.8089 31.9962 94.2832 31.9962ZM97.0112 30.1943C97.5302 30.1943 98.0273 30.1929 98.5244 30.1958C98.6061 30.1962 98.5856 30.1427 98.5867 30.102C98.6109 29.316 98.6343 28.53 98.6567 27.7444C98.6574 27.7236 98.675 27.6938 98.6343 27.6804C98.0984 28.5107 97.5618 29.3418 97.0112 30.1943Z" fill="white"/>
<path d="M94.0391 31.2564C93.96 31.4899 93.8834 31.7041 93.8168 31.9209C93.7973 31.9835 93.7684 32.0031 93.7094 31.9962C93.697 31.9947 93.6838 31.9958 93.671 31.9958C92.2694 31.9958 90.8679 31.9947 89.4664 31.998C89.3565 31.9984 89.344 31.9758 89.3781 31.8747C89.9869 30.0692 90.5921 28.2623 91.1976 26.4554C91.217 26.3968 91.2346 26.359 91.3155 26.3594C92.7383 26.363 94.1611 26.3619 95.5839 26.3623C95.5963 26.3623 95.6092 26.3652 95.6363 26.3685C95.5601 26.5987 95.485 26.826 95.4095 27.053C95.3861 27.1239 95.3253 27.0973 95.2795 27.0973C94.4234 27.0988 93.5669 27.1003 92.7108 27.0959C92.6134 27.0955 92.5753 27.1224 92.5453 27.2159C92.3907 27.6975 92.2262 28.1761 92.0654 28.6559C92.0562 28.6831 92.0354 28.7082 92.0504 28.7461C92.8438 28.7461 93.6395 28.7461 94.4501 28.7461C94.3706 28.9821 94.2919 29.208 94.2193 29.4357C94.1948 29.5131 94.1369 29.4818 94.0937 29.4822C93.3695 29.4844 92.6453 29.4858 91.9211 29.4811C91.8214 29.4804 91.7738 29.5037 91.7416 29.6033C91.5705 30.1329 91.391 30.6599 91.2144 31.1877C91.2078 31.2069 91.2027 31.2269 91.1943 31.256C92.1423 31.2564 93.0819 31.2564 94.0391 31.2564Z" fill="white"/>
<path d="M116.342 28.7499C117.156 28.7499 117.951 28.7499 118.759 28.7499C118.68 28.9824 118.601 29.2042 118.532 29.429C118.508 29.505 118.457 29.4839 118.412 29.4839C117.82 29.485 117.227 29.4846 116.635 29.4846C116.482 29.4846 116.329 29.4865 116.175 29.4836C116.123 29.4825 116.09 29.4919 116.072 29.5487C115.886 30.1091 115.698 30.6685 115.511 31.2283C115.509 31.2356 115.513 31.2446 115.514 31.2592C116.454 31.2592 117.395 31.2592 118.347 31.2592C118.268 31.4952 118.19 31.7215 118.117 31.9492C118.095 32.0179 118.044 31.995 118.002 31.9953C117.474 31.9968 116.946 31.9964 116.417 31.9964C115.536 31.9964 114.654 31.995 113.772 31.9986C113.673 31.999 113.651 31.987 113.685 31.8837C114.296 30.0739 114.902 28.2629 115.508 26.452C115.526 26.3985 115.54 26.3604 115.616 26.3604C117.043 26.3636 118.47 26.3629 119.897 26.3633C119.909 26.3633 119.921 26.368 119.945 26.3731C119.868 26.6037 119.794 26.831 119.717 27.0576C119.693 27.1267 119.63 27.098 119.585 27.098C118.728 27.0994 117.872 27.1005 117.016 27.0969C116.926 27.0965 116.886 27.1205 116.858 27.2085C116.692 27.7177 116.519 28.2237 116.342 28.7499Z" fill="white"/>
<path d="M86.2354 31.2367C87.1109 31.2367 87.9736 31.2367 88.8491 31.2367C88.7681 31.4778 88.6879 31.708 88.6154 31.9401C88.5897 32.0219 88.5297 31.9954 88.4806 31.9954C87.578 31.9968 86.6754 31.9965 85.7727 31.9965C85.3134 31.9965 84.854 31.9965 84.3789 31.9965C84.4741 31.7102 84.5646 31.4349 84.6569 31.1603C85.1811 29.5985 85.7068 28.0375 86.2288 26.4749C86.257 26.3902 86.2904 26.3593 86.3841 26.3604C86.8735 26.3658 87.3633 26.3629 87.8703 26.3629C87.3248 27.9894 86.782 29.6076 86.2354 31.2367Z" fill="white"/>
<path d="M83.7444 28.416L35.8887 28.6486L83.1417 29.8748L83.7444 28.416Z" fill="white"/>
</svg>
