<svg width="116" height="420" viewBox="0 0 116 420" fill="none" xmlns="http://www.w3.org/2000/svg">
<g opacity="0.5">
<path d="M109.158 247.844L109.158 247.844C113.993 243.178 115.908 238.314 115.74 231.74C115.506 222.91 115.548 214.07 115.59 205.237C115.611 200.715 115.632 196.195 115.617 191.68C115.617 191.68 115.617 191.679 115.617 191.679L115.867 191.678L109.158 247.844ZM109.158 247.844C101.352 255.389 93.6892 263.07 86.03 270.748C75.1962 281.608 64.3697 292.461 53.1549 302.908C49.2622 306.529 46.7163 310.296 45.3039 314.383C43.8918 318.47 43.6183 322.86 44.2462 327.721L44.4941 327.688M109.158 247.844L44.4941 327.688M44.4941 327.688L44.2462 327.721C44.4218 329.078 45.1847 330.716 46.249 331.567L46.2496 331.568M44.4941 327.688L46.2496 331.568M46.2496 331.568C47.0086 332.171 47.8205 332.189 48.5716 331.915M46.2496 331.568L48.5716 331.915M48.5716 331.915C49.307 331.646 49.9921 331.097 50.5548 330.55L48.5716 331.915ZM84.5653 312.222L84.6607 312.232L50.5558 330.549C51.8148 329.338 53.1062 328.148 54.4 326.955C57.6484 323.96 60.9124 320.951 63.7202 317.568L63.7205 317.568C69.5179 310.563 76.8897 311.376 84.5653 312.222ZM84.661 312.232C86.8293 312.475 87.9071 314.4 87.937 316.41L84.661 312.232ZM83.8649 358.011C78.4837 363.362 73.0871 368.697 67.6908 374.031C54.0952 387.471 40.5017 400.909 27.1617 414.591L27.1616 414.591C23.9317 417.905 20.4503 418.974 16.8413 419.225C15.0313 419.351 13.1905 419.271 11.3279 419.163C11.0549 419.147 10.7814 419.131 10.5074 419.114C8.9169 419.019 7.31199 418.923 5.71514 418.939L5.71394 418.939C5.52661 418.942 5.27351 418.859 4.97947 418.686C4.69087 418.516 4.38691 418.272 4.10451 417.991C3.82242 417.71 3.56742 417.396 3.3742 417.088C3.17895 416.777 3.05648 416.488 3.02126 416.254L3.02116 416.254C2.48482 412.76 2.40758 409.154 2.40758 405.58L2.40758 405.58C2.39335 395.31 2.41414 385.039 2.43493 374.769C2.48172 351.658 2.5285 328.547 2.17637 305.445L1.9264 305.449L2.17637 305.445C2.03885 296.491 5.05622 290.298 11.2863 284.221C34.9907 261.13 58.5255 237.87 82.0597 214.61C91.0262 205.748 99.9926 196.886 108.968 188.034L108.968 188.034C109.151 187.854 109.328 187.672 109.505 187.492C110.722 186.25 111.864 185.084 113.744 185.055L83.8649 358.011Z" stroke="#5A6474" stroke-width="0.5"/>
<path d="M113.776 98.8123C110.285 95.4205 106.881 92.1183 103.54 88.878C95.0173 80.6128 86.9107 72.7507 78.8508 64.8335L78.8505 64.8332C75.9164 61.9607 73.032 59.0378 70.1498 56.1114L69.6182 55.5715C66.914 52.8254 64.2092 50.0787 61.467 47.3726C59.6608 45.5818 57.6449 43.8538 54.7392 43.6941M113.776 98.8123L54.7392 43.6941M113.776 98.8123C113.97 98.1096 114.166 97.4915 114.339 96.9401C114.432 96.6462 114.519 96.3713 114.596 96.1127C114.85 95.2668 115.005 94.5909 114.983 93.9329L114.982 93.9231H114.983C115.018 88.0244 115.013 82.1233 115.008 76.222C114.999 66.7119 114.991 57.2013 115.152 47.7L115.152 47.6997C115.243 42.7141 113.699 39.0349 110.203 35.5993L110.203 35.5991C100.322 25.8728 90.5492 16.0229 80.961 6.01845M113.776 98.8123L80.961 6.01845M54.7392 43.6941C54.7394 43.6941 54.7396 43.6941 54.7397 43.6941L54.7255 43.9428L54.7392 43.6941ZM44.1188 137.1C44.249 142.204 43.5132 146.528 41.8353 150.395C40.1573 154.262 37.5309 157.686 33.8603 160.981L33.8602 160.981C27.0704 167.08 20.6289 173.579 14.1949 180.071C11.5834 182.706 8.97303 185.339 6.34113 187.945M44.1188 137.1L0.937891 185.379L1.18788 185.376C1.18788 185.377 1.18788 185.377 1.18788 185.377C1.18984 185.561 1.18613 185.748 1.18199 185.933C1.18157 185.952 1.18115 185.971 1.18073 185.989C1.17693 186.157 1.17317 186.323 1.17296 186.489C1.17249 186.858 1.18983 187.21 1.2594 187.534C1.32852 187.857 1.448 188.147 1.64832 188.395C1.84796 188.643 2.13844 188.862 2.5696 189.03L2.57077 189.03L2.57077 189.03C3.32043 189.326 3.9768 189.326 4.58123 189.126C5.19297 188.923 5.7695 188.509 6.34113 187.945M44.1188 137.1C44.1188 137.1 44.1188 137.1 44.1188 137.1L44.3687 137.093M44.1188 137.1L44.3687 137.093M6.34113 187.945C6.34122 187.945 6.34131 187.944 6.3414 187.944L6.517 188.122L6.34113 187.945ZM80.961 6.01845L81.1415 5.84547L80.9613 6.01872C80.9612 6.01863 80.9611 6.01854 80.961 6.01845ZM44.3687 137.093C43.8939 118.973 43.9651 100.846 44.0362 82.7172C44.0759 72.5982 44.1156 62.4784 44.0604 52.3587C44.0142 44.252 46.0794 43.4505 54.7255 43.9437C57.5305 44.0979 59.4878 45.7624 61.291 47.5501L34.0273 161.167C41.4096 154.54 44.6307 147.358 44.3687 137.093ZM1.03036 8.21887L1.28001 8.23218C1.28001 8.23213 1.28001 8.2321 1.28001 8.23206L1.03036 8.21887ZM11.9897 1.44102C11.99 1.44102 11.9904 1.44102 11.9907 1.44102L11.9882 1.19104L11.9897 1.44102Z" stroke="#5A6474" stroke-width="0.5"/>
<path d="M81.0848 148.793C84.002 148.716 85.6485 149.038 86.6189 150.032C87.1039 150.528 87.4401 151.213 87.6685 152.156C87.8973 153.102 88.0141 154.291 88.0717 155.781C88.1839 158.83 88.1609 161.876 88.1326 165.622C88.1182 167.53 88.1024 169.62 88.1024 171.985V172.018L88.1112 172.05C91.3078 183.771 84.9502 193.404 74.729 202.763C58.1089 217.964 42.2145 234.044 26.8303 250.507L26.8302 250.507C19.7552 258.084 11.8758 257.534 3.2139 256.579C1.95033 256.435 0.631108 255.482 0.63111 253.745L0.631106 253.744C0.617872 250.369 0.602114 246.996 0.586361 243.624C0.547072 235.214 0.507813 226.81 0.507813 218.405C0.507813 215.82 2.22518 214.106 3.98218 212.353C4.04799 212.287 4.11385 212.221 4.17969 212.155C9.99121 206.344 15.8122 200.541 21.6333 194.738C35.7714 180.645 49.9105 166.55 63.9177 152.325C66.4688 149.736 69.2604 148.893 72.1615 148.677C73.6169 148.568 75.0976 148.618 76.5935 148.684C76.7695 148.692 76.9458 148.7 77.1223 148.709C78.4408 148.769 79.7698 148.831 81.0848 148.793ZM81.0848 148.793C81.0847 148.793 81.0846 148.793 81.0846 148.793L81.0779 148.543L81.0851 148.793C81.085 148.793 81.0849 148.793 81.0848 148.793Z" stroke="#5A6474" stroke-width="0.5"/>
</g>
</svg>
