<svg width="29" height="26" viewBox="0 0 29 26" fill="none" xmlns="http://www.w3.org/2000/svg">
<path d="M22.2015 25.716L15.4694 20.4128L11.6964 24.2207C11.4808 24.4062 11.2598 24.4989 11.028 24.4989C10.5052 24.4989 10.1548 24.2613 9.98233 23.7802L7.31427 15.1039L0.695314 12.8899C0.291062 12.7682 0.0592903 12.4552 0 11.9568C0 11.4583 0.231771 11.1164 0.695314 10.9251C18.8058 3.63977 27.9203 0 28.0389 0C28.2491 0 28.4701 0.104325 28.6911 0.312974C28.9121 0.521623 29.0145 0.794026 28.9983 1.12439L24.3845 24.7829C24.2282 25.5943 23.7754 26 23.0208 26C22.7244 26 22.4549 25.9073 22.2015 25.716ZM11.3514 17.0397C19.6305 9.00669 23.7808 4.96701 23.7862 4.91485C23.797 4.86268 23.8024 4.82791 23.8024 4.80473C23.8024 4.61926 23.6784 4.52653 23.4251 4.52653C23.3658 4.52653 18.5309 7.83594 8.9151 14.449L10.9418 21.601L11.3514 17.0397Z" fill="#D0D3D7"/>
</svg>
