<svg width="43" height="42" viewBox="0 0 43 42" fill="none" xmlns="http://www.w3.org/2000/svg">
<path opacity="0.5" d="M41 1H1V41H41V1Z" stroke="white" stroke-miterlimit="10"/>
<rect x="4" y="4" width="34" height="34" fill="white"/>
<path d="M37.2598 1H41.0033V4.74356" stroke="white" stroke-width="2" stroke-miterlimit="10"/>
<path d="M1 4.74356V1H4.74356" stroke="white" stroke-width="2" stroke-miterlimit="10"/>
<path d="M1 37.2546V40.9982H4.74356" stroke="white" stroke-width="2" stroke-miterlimit="10"/>
<path d="M41.0033 37.2546V40.9982H37.2598" stroke="white" stroke-width="2" stroke-miterlimit="10"/>
<path d="M26.3698 30.7706L20.7983 26.4873L17.6758 29.5629C17.4974 29.7127 17.3145 29.7876 17.1227 29.7876C16.69 29.7876 16.4001 29.5956 16.2573 29.2071L14.0493 22.1993L8.57153 20.4111C8.23697 20.3128 8.04516 20.06 7.99609 19.6574C7.99609 19.2548 8.1879 18.9786 8.57153 18.8241C23.5595 12.9398 31.1026 10 31.2007 10C31.3747 10 31.5576 10.0843 31.7405 10.2528C31.9233 10.4213 32.0081 10.6413 31.9947 10.9082L28.1764 30.0169C28.047 30.6723 27.6723 31 27.0478 31C26.8025 31 26.5794 30.9251 26.3698 30.7706ZM17.3904 23.7628C24.242 17.2746 27.6768 14.0118 27.6812 13.9697C27.6901 13.9276 27.6946 13.8995 27.6946 13.8807C27.6946 13.7309 27.592 13.656 27.3823 13.656C27.3333 13.656 23.332 16.329 15.3741 21.6703L17.0513 27.447L17.3904 23.7628Z" fill="#141F32"/>
</svg>
