<svg width="43" height="42" viewBox="0 0 43 42" fill="none" xmlns="http://www.w3.org/2000/svg">
<path opacity="0.5" d="M41.0059 1H1.00586V41H41.0059V1Z" stroke="white" stroke-miterlimit="10"/>
<rect x="4.00586" y="4" width="34" height="34" fill="white"/>
<path d="M29.0059 18.51C29.0059 16.57 27.4359 15 25.4959 15H16.5159C14.5759 15 13.0059 16.57 13.0059 18.51V22.69C13.0059 24.63 14.5759 26.2 16.5159 26.2H25.4959C27.4359 26.2 29.0059 24.63 29.0059 22.69V18.51ZM23.7259 20.91L19.6959 22.9C19.5459 22.99 19.0059 22.88 19.0059 22.7V18.61C19.0059 18.43 19.5459 18.31 19.7059 18.4L23.5559 20.5C23.7159 20.59 23.8859 20.82 23.7259 20.91Z" fill="#141F32"/>
<path d="M37.2617 1H41.0053V4.74356" stroke="white" stroke-width="2" stroke-miterlimit="10"/>
<path d="M1.00586 4.74356V1H4.74941" stroke="white" stroke-width="2" stroke-miterlimit="10"/>
<path d="M1.00586 37.2546V40.9982H4.74941" stroke="white" stroke-width="2" stroke-miterlimit="10"/>
<path d="M41.0053 37.2546V40.9982H37.2617" stroke="white" stroke-width="2" stroke-miterlimit="10"/>
</svg>
