<svg width="33" height="23" viewBox="0 0 33 23" fill="none" xmlns="http://www.w3.org/2000/svg">
<path fill-rule="evenodd" clip-rule="evenodd" d="M28.6568 0.676746C30.0413 1.04912 31.1314 2.14636 31.5015 3.53962L31.5013 3.53975C32.1737 6.06507 32.1737 11.3341 32.1737 11.3341C32.1737 11.3341 32.1737 16.6029 31.5013 19.1285C31.1313 20.5217 30.0412 21.6188 28.6567 21.9915C26.1478 22.668 16.0867 22.668 16.0867 22.668C16.0867 22.668 6.02573 22.668 3.51672 21.9915C2.13238 21.6187 1.04199 20.5217 0.672222 19.1284C0 16.6028 0 11.334 0 11.334C0 11.334 0 6.06494 0.672222 3.53962C1.04199 2.14636 2.13238 1.04912 3.51686 0.676746C6.02586 0 16.0868 0 16.0868 0C16.0868 0 26.148 0 28.6568 0.676746ZM21.2049 11.3349L12.7959 16.1185V6.55078L21.2049 11.3349Z" fill="#D0D3D7"/>
</svg>
