<svg width="50" height="50" viewBox="0 0 50 50" fill="none" xmlns="http://www.w3.org/2000/svg">
<path opacity="0.2" d="M48.9998 1H1V48.9998H48.9998V1Z" stroke="#FA0339" stroke-miterlimit="10"/>
<path d="M44.5088 1H49.001V5.49225" stroke="#FA0339" stroke-width="2" stroke-miterlimit="10"/>
<path d="M1 5.49225V1H5.49225" stroke="#FA0339" stroke-width="2" stroke-miterlimit="10"/>
<path d="M1 44.5078V49.0001H5.49225" stroke="#FA0339" stroke-width="2" stroke-miterlimit="10"/>
<path d="M49.001 44.5078V49.0001H44.5088" stroke="#FA0339" stroke-width="2" stroke-miterlimit="10"/>
<g clip-path="url(#clip0_2722_3903)">
<path d="M30.6146 16.8489C30.9738 16.3355 31.1694 15.7256 31.1694 15.0832C31.1694 14.2569 30.8495 13.4823 30.2692 12.9019C29.0666 11.6994 27.1097 11.6994 25.9071 12.9019L24.6605 14.1485L23.4143 12.9019C22.834 12.3216 22.0593 12.0017 21.2331 12.0017C20.4069 12.0017 19.6326 12.3216 19.0518 12.9019C18.4711 13.4823 18.1516 14.2569 18.1516 15.0832C18.1516 15.7256 18.3472 16.3355 18.7064 16.8489H12.2217V23.018H24.1194H24.56H37.7797V16.8489H30.6146ZM26.5302 13.525C27.3895 12.6662 28.7872 12.6662 29.6461 13.525C30.0599 13.9392 30.2881 14.4922 30.2881 15.0832C30.2881 15.6736 30.0599 16.2271 29.6461 16.6409L29.4381 16.8489H25.8816H24.5596H24.1189H23.2063L25.2836 14.7716L26.5302 13.525ZM19.6754 16.6413C19.2616 16.2275 19.0333 15.6741 19.0333 15.0836C19.0333 14.4927 19.2616 13.9397 19.6754 13.5254C20.0896 13.1117 20.6426 12.8834 21.2335 12.8834C21.8244 12.8834 22.3775 13.1117 22.7917 13.5254L24.0379 14.7721L22.4801 16.3298C22.3889 16.421 22.3052 16.5241 22.2241 16.6334C22.2003 16.6656 22.177 16.7004 22.1541 16.7343C22.1276 16.7731 22.0999 16.8079 22.0747 16.8489H19.8838L19.6754 16.6413Z" fill="#FA0339"/>
<path d="M24.5599 31.3906H14.4248V38.0005H24.5599V31.3906Z" fill="#FA0339"/>
<path d="M35.5765 31.3906H25.4414V38.0005H35.5765V31.3906Z" fill="#FA0339"/>
<path d="M35.5765 23.8994H25.4414V30.5092H35.5765V23.8994Z" fill="#FA0339"/>
<path d="M24.5599 23.8994H14.4248V30.5092H24.5599V23.8994Z" fill="#FA0339"/>
</g>
<defs>
<clipPath id="clip0_2722_3903">
<rect width="26" height="26" fill="white" transform="translate(12 12)"/>
</clipPath>
</defs>
</svg>
