<svg width="1440" height="955" viewBox="0 0 1440 955" fill="none" xmlns="http://www.w3.org/2000/svg">
<path fill-rule="evenodd" clip-rule="evenodd" d="M1678 0H-238V955H1678V0ZM195.308 954.808H112.691L110.802 952.897V870.518H122.465V868.608H195.336L197.233 870.528V952.86L195.308 954.808ZM111.74 867.944H195.333L197.208 866.047V783.663L195.311 781.744H112.688L110.777 783.678V857.084H111.74V867.944ZM110.146 857.084V783.663L108.249 781.744H25.6268L23.7156 783.678V866.033L25.6041 867.944H109.216V857.084H110.146ZM98.4911 868.608H25.6015L23.7409 870.491V952.897L25.6293 954.808H108.247L110.171 952.86V870.518H98.4911V868.608ZM23.0848 870.502V952.886L21.1854 954.808H-61.4321L-63.3458 952.872V870.517L-61.4599 868.608H21.2132L23.0848 870.502ZM-63.9766 870.502V952.886L-65.876 954.808H-148.494L-150.407 952.872V870.518H-139.649V868.608H-65.8482L-63.9766 870.502ZM-150.4 867.944H-65.8508L-63.9766 866.047V783.663L-65.8735 781.744H-148.496L-150.407 783.678V857.084H-150.4V867.944ZM-151.038 857.084V783.663L-152.935 781.744H-235.557L-237.469 783.678V866.033L-235.58 867.944H-152.923V857.084H-151.038ZM-152.923 868.608H-235.583L-237.469 870.517V952.872L-235.555 954.808H-152.937L-151.038 952.886V870.518H-152.923V868.608ZM-152.912 781.105H-235.58L-237.469 779.194V696.839L-235.558 694.905H-152.935L-151.038 696.825V779.208L-152.912 781.105ZM-152.912 694.266H-235.58L-237.469 692.355V610L-235.558 608.066H-152.923V619.885H-151.038V692.369L-152.912 694.266ZM-150.407 619.885V692.355L-148.519 694.266H-65.8509L-63.9766 692.369V609.986L-65.8734 608.066H-139.649V609.03H-150.4V619.885H-150.407ZM-139.649 607.428H-65.8508L-63.9766 605.531V523.147L-65.8734 521.227H-148.496L-150.407 523.162V595.621H-150.4V606.476H-139.649V607.428ZM-151.038 595.621V523.147L-152.935 521.227H-235.558L-237.469 523.162V605.516L-235.58 607.428H-152.923V595.621H-151.038ZM-152.912 520.589H-235.58L-237.469 518.677V436.323L-235.558 434.388H-152.935L-151.038 436.308V518.692L-152.912 520.589ZM-152.912 433.75H-235.58L-237.469 431.839V349.484L-235.558 347.55H-152.923V359.367H-151.038V431.853L-152.912 433.75ZM-150.407 359.367V431.839L-148.519 433.75H-65.8509L-63.9766 431.853V349.469L-65.8734 347.55H-139.649V348.512H-150.4V359.367H-150.407ZM-139.649 346.911H-65.8509L-63.9766 345.014V262.631L-65.8733 260.711H-148.496L-150.407 262.645V335.103H-150.4V345.958H-139.649V346.911ZM-151.038 335.103V262.631L-152.935 260.711H-235.558L-237.469 262.645V345L-235.58 346.911H-152.923V335.103H-151.038ZM-152.912 260.072H-235.58L-237.469 258.161V175.806L-235.558 173.872H-152.935L-151.038 175.792V258.175L-152.912 260.072ZM-152.912 173.234H-235.58L-237.469 171.322V88.9674L-235.558 87.0332H-152.923V97.9084H-151.038V171.337L-152.912 173.234ZM-150.407 97.9084V171.322L-148.519 173.234H-65.8509L-63.9766 171.337V88.9529L-65.8733 87.0332H-150.4V97.9084H-150.407ZM-139.649 86.3947H-65.8509L-63.9766 84.4977V2.11408L-65.8733 0.194431H-148.496L-150.407 2.12854V84.4739H-139.649V86.3947ZM-151.038 84.4739V2.11407L-152.935 0.194431H-235.558L-237.469 2.12854V84.4833L-235.58 86.3947H-152.923V84.4739H-151.038ZM-63.3458 84.4833V2.12853L-61.4348 0.194431H21.1881L23.0848 2.1141V84.4977L21.2104 86.3947H-61.4572L-63.3458 84.4833ZM23.7156 84.4833V2.12853L25.6266 0.194431H108.249L110.146 2.11404V84.4739H98.4911V86.3947H25.6042L23.7156 84.4833ZM109.216 87.0332H25.6266L23.7409 88.9418V171.348L25.6294 173.259H108.247L110.171 171.311V97.9084H109.216V87.0332ZM110.802 97.9084V171.348L112.691 173.259H195.308L197.233 171.311V88.9784L195.311 87.0332H111.74V97.9084H110.802ZM122.465 86.3947H195.333L197.208 84.4978V2.11404L195.311 0.194431H112.688L110.777 2.12856V84.4739H122.465V86.3947ZM197.838 84.4832V2.12859L199.749 0.194431H282.372L284.269 2.11401V84.4978L282.395 86.3947H199.727L197.838 84.4832ZM284.9 84.4832V2.12858L286.811 0.194431H369.434L371.33 2.11401V84.4739H359.685V86.3947H286.788L284.9 84.4832ZM370.41 87.0332H286.811L284.925 88.9418V171.348L286.814 173.259H369.431L371.356 171.311V97.9084H370.41V87.0332ZM371.987 97.9084V171.348L373.875 173.259H456.492L458.417 171.311V88.9785L456.495 87.0332H372.934V97.9084H371.987ZM383.659 86.3947H456.518L458.392 84.4977V2.11406L456.495 0.194431H373.872L371.961 2.12858V84.4739H383.659V86.3947ZM459.023 84.4833V2.12853L460.934 0.194431H543.557L545.453 2.11406V84.4977L543.579 86.3947H460.911L459.023 84.4833ZM546.084 84.4833V2.12853L547.995 0.194431H630.618L632.515 2.11406V84.4739H621.804V86.3947H547.973L546.084 84.4833ZM633.171 97.9084V171.348L635.059 173.259H717.677L719.601 171.311V88.9785L717.679 87.0332H635.078V97.9084H633.171ZM635.078 86.3947H717.702L719.576 84.4977V2.11406L717.679 0.194431H635.056L633.146 2.12853V84.4739H635.078V86.3947ZM720.306 84.4793V2.13254L722.221 0.194431H804.844L806.736 2.11011V84.4739H804.84V86.3947H722.198L720.306 84.4793ZM804.84 87.0332H722.221L720.306 88.9714V171.318L722.198 173.234H804.866L806.736 171.341V97.9084H804.84V87.0332ZM818.113 86.3947H891.927L893.798 84.5017V2.11011L891.905 0.194431H809.282L807.367 2.13249V84.4739H818.113V86.3947ZM894.429 84.4793V2.13248L896.343 0.194431H978.966L980.859 2.11011V84.5017L978.989 86.3947H896.321L894.429 84.4793ZM981.49 84.4793V2.13248L983.405 0.194431H1066.03L1067.92 2.10998V84.4739H1056.25V86.3947H983.383L981.49 84.4793ZM1066.98 87.0332H983.405L981.515 88.9457V171.344L983.408 173.259H1066.03L1067.95 171.315V97.9084H1066.98V87.0332ZM1068.58 97.9084V171.344L1070.47 173.259H1153.09L1155.01 171.315V88.9744L1153.09 87.0332H1069.5V97.9084H1068.58ZM1080.22 86.3947H1153.11L1154.98 84.5017V2.11011L1153.09 0.194431H1070.47L1068.55 2.1326V84.4739H1080.22V86.3947ZM1155.61 84.4792V2.1326L1157.53 0.194431H1240.15L1242.04 2.10998V84.5018L1240.17 86.3947H1157.51L1155.61 84.4792ZM1242.67 84.4792V2.1326L1244.59 0.194431H1327.21L1329.1 2.11012V84.4739H1317.45V86.3947H1244.57L1242.67 84.4792ZM1328.17 87.0332H1244.59L1242.7 88.9458V171.344L1244.59 173.259H1327.21L1329.13 171.315V97.9084H1328.17V87.0332ZM1329.76 97.9084V171.344L1331.65 173.259H1414.27L1416.19 171.315V88.9745L1414.27 87.0332H1330.7V97.9084H1329.76ZM1341.42 86.3947H1414.3L1416.17 84.5017V2.11009L1414.27 0.194431H1331.65L1329.74 2.1326V84.4739H1341.42V86.3947ZM1416.8 84.4793V2.13249L1418.71 0.194431H1501.33L1503.23 2.11V84.5018L1501.36 86.3947H1418.69L1416.8 84.4793ZM1503.86 84.4792V2.1326L1505.77 0.194431H1588.4L1590.29 2.11009V84.4739H1579.56V86.3947H1505.75L1503.86 84.4792ZM1590.95 97.9084V171.344L1592.84 173.259H1675.45L1677.38 171.315V88.9744L1675.46 87.0332H1592.84V97.9084H1590.95ZM1592.84 86.3947H1675.48L1677.35 84.5018V2.11L1675.46 0.194431H1592.83L1590.92 2.13249V84.4739H1592.84V86.3947ZM1592.83 173.872H1675.46L1677.38 175.813V258.154L1675.45 260.098H1592.84L1590.95 258.183V175.785L1592.83 173.872ZM1592.81 260.736H1675.48L1677.38 262.652V344.993L1675.45 346.937H1592.84V335.103H1590.95V262.623L1592.81 260.736ZM1590.31 345.958V262.652L1588.42 260.736H1505.75L1503.88 262.624V345.021L1505.78 346.937H1579.57V345.958H1590.31ZM1579.57 347.575H1505.75L1503.88 349.462V431.86L1505.78 433.776H1588.39L1590.31 431.832V348.512H1579.57V347.575ZM1590.95 359.367V431.86L1592.84 433.776H1675.45L1677.38 431.831V349.491L1675.48 347.575H1592.84V359.367H1590.95ZM1592.81 434.414H1675.48L1677.38 436.33V518.67L1675.45 520.614H1592.84L1590.95 518.699V436.301L1592.81 434.414ZM1592.81 521.253H1675.48L1677.38 523.169V605.509L1675.45 607.453H1592.84V595.621H1590.95V523.14L1592.81 521.253ZM1590.31 606.476V523.169L1588.42 521.253H1505.75L1503.88 523.14V605.538L1505.78 607.453H1579.57V606.476H1590.31ZM1579.57 608.092H1505.75L1503.88 609.979V692.376L1505.78 694.292H1588.39L1590.31 692.348V609.03H1579.57V608.092ZM1590.95 619.885V692.377L1592.84 694.292H1675.45L1677.38 692.348V610.007L1675.48 608.092H1592.84V619.885H1590.95ZM1592.81 694.93H1675.48L1677.38 696.846V779.187L1675.45 781.131H1592.84L1590.95 779.215V696.817L1592.81 694.93ZM1592.81 781.769H1675.48L1677.38 783.685V866.026L1675.45 867.97H1592.84V857.084H1590.95V783.656L1592.81 781.769ZM1590.31 867.964V783.685L1588.42 781.769H1505.75L1503.88 783.657V866.054L1505.78 867.97H1579.57V867.964H1590.31ZM1579.57 868.608H1505.75L1503.88 870.495V952.893L1505.78 954.808H1588.39L1590.31 952.864V870.518H1579.57V868.608ZM1590.95 870.518V952.893L1592.84 954.808H1675.45L1677.38 952.864V870.524L1675.48 868.608H1592.84V870.518H1590.95ZM1503.25 870.524V952.864L1501.33 954.808H1418.71L1416.82 952.893V870.495L1418.69 868.608H1501.36L1503.25 870.524ZM1416.19 870.524V952.864L1414.27 954.808H1331.65L1329.76 952.893V870.518H1341.42V868.608H1414.3L1416.19 870.524ZM1330.7 867.944H1414.3L1416.17 866.051V783.659L1414.27 781.744H1331.65L1329.74 783.682V857.084H1330.7V867.944ZM1329.1 857.084V783.659L1327.21 781.744H1244.59L1242.67 783.682V866.029L1244.57 867.944H1328.17V857.084H1329.1ZM1317.45 868.608H1244.56L1242.7 870.495V952.893L1244.59 954.808H1327.21L1329.13 952.864V870.518H1317.45V868.608ZM1242.07 870.524V952.864L1240.15 954.808H1157.53L1155.64 952.893V870.495L1157.5 868.608H1240.18L1242.07 870.524ZM1155.01 870.524V952.864L1153.09 954.808H1070.47L1068.58 952.893V870.518H1080.22V868.608H1153.11L1155.01 870.524ZM1069.5 867.944H1153.11L1154.98 866.051V783.659L1153.09 781.744H1070.47L1068.55 783.682V857.084H1069.5V867.944ZM1067.92 857.084V783.659L1066.03 781.744H983.405L981.49 783.682V866.029L983.382 867.944H1066.98V857.084H1067.92ZM1056.25 868.608H983.38L981.515 870.495V952.893L983.408 954.808H1066.03L1067.95 952.864V870.518H1056.25V868.608ZM980.859 870.498V952.89L978.964 954.808H896.346L894.429 952.868V870.521L896.318 868.608H978.992L980.859 870.498ZM893.798 870.498V952.89L891.902 954.808H809.285L807.367 952.868V870.518H818.113V868.608H891.93L893.798 870.498ZM806.736 857.084V783.659L804.843 781.744H722.221L720.306 783.682V866.029L722.198 867.944H804.84V857.084H806.736ZM804.84 868.608H722.196L720.306 870.521V952.868L722.223 954.808H804.841L806.736 952.89V870.518H804.84V868.608ZM719.601 870.528V952.86L717.677 954.808H635.059L633.171 952.897V870.518H635.078V868.608H717.705L719.601 870.528ZM635.078 867.97H717.677L719.601 866.022V783.689L717.705 781.769H635.031L633.171 783.652V857.084H635.078V867.97ZM632.54 867.964V783.689L630.643 781.769H547.97L546.109 783.652V866.058L547.998 867.97H621.804V867.964H632.54ZM621.804 868.608H547.97L546.109 870.491V952.897L547.998 954.808H630.615L632.54 952.86V870.518H621.804V868.608ZM545.478 870.528V952.86L543.554 954.808H460.936L459.048 952.897V870.491L460.909 868.608H543.582L545.478 870.528ZM458.417 870.528V952.86L456.492 954.808H373.875L371.987 952.897V870.518H383.659V868.608H456.52L458.417 870.528ZM372.934 867.944H456.518L458.392 866.047V783.663L456.495 781.744H373.872L371.961 783.678V857.084H372.934V867.944ZM371.33 857.084V783.663L369.434 781.744H286.811L284.9 783.678V866.033L286.788 867.944H370.41V857.084H371.33ZM359.685 868.608H286.786L284.925 870.491V952.897L286.813 954.808H369.431L371.356 952.86V870.518H359.685V868.608ZM284.294 870.528V952.86L282.37 954.808H199.752L197.864 952.897V870.491L199.724 868.608H282.397L284.294 870.528ZM282.395 867.944H199.727L197.838 866.033V783.678L199.75 781.744H282.372L284.269 783.663V866.047L282.395 867.944ZM108.272 781.105L110.146 779.208V696.825L108.249 694.905H25.6267L23.7156 696.839V779.194L25.6041 781.105H108.272ZM110.777 779.194L112.665 781.105H195.333L197.208 779.208V696.825L195.311 694.905H112.688L110.777 696.839V779.194ZM197.838 779.194L199.727 781.105H282.395L284.269 779.208V696.825L282.372 694.905H199.75L197.838 696.839V779.194ZM284.9 779.194L286.788 781.105H369.456L371.33 779.208V696.825L369.434 694.905H286.811L284.9 696.839V779.194ZM456.518 781.105H373.85L371.961 779.194V696.839L373.872 694.905H456.495L458.392 696.825V779.208L456.518 781.105ZM456.492 694.292H373.875L371.987 692.381V609.975L373.847 608.092H456.52L458.417 610.011V692.344L456.492 694.292ZM371.33 609.986V692.37L369.456 694.266H286.788L284.9 692.355V610L286.811 608.066H369.434L371.33 609.986ZM284.269 609.986V692.37L282.395 694.266H199.727L197.838 692.355V610L199.75 608.066H282.372L284.269 609.986ZM197.208 609.986V692.369L195.333 694.266H112.666L110.777 692.355V610L112.688 608.066H195.311L197.208 609.986ZM110.146 609.986V692.369L108.272 694.266H25.6041L23.7156 692.355V610L25.6267 608.066H108.249L110.146 609.986ZM23.0848 609.986V692.369L21.2105 694.266H-61.4573L-63.3458 692.355V610L-61.4347 608.066H21.188L23.0848 609.986ZM-61.4347 694.905H21.188L23.0848 696.825V779.208L21.2106 781.105H-61.4573L-63.3458 779.194V696.839L-61.4347 694.905ZM-61.4346 781.744H21.1879L23.0848 783.664V866.047L21.2106 867.944H-61.4573L-63.3458 866.033V783.678L-61.4346 781.744ZM-65.8508 781.105H-148.519L-150.407 779.194V696.839L-148.496 694.905H-65.8734L-63.9766 696.825V779.208L-65.8508 781.105ZM-63.3458 605.516L-61.4573 607.428H21.2106L23.0848 605.531V523.147L21.188 521.227H-61.4347L-63.3458 523.161V605.516ZM23.7156 605.516L25.6041 607.428H108.272L110.146 605.531V523.147L108.249 521.227H25.6267L23.7156 523.161V605.516ZM110.777 605.516L112.665 607.428H195.333L197.208 605.531V523.147L195.311 521.227H112.688L110.777 523.162V605.516ZM197.838 605.516L199.727 607.428H282.395L284.269 605.531V523.147L282.372 521.227H199.75L197.838 523.162V605.516ZM284.925 605.542L286.814 607.453H369.431L371.356 605.505V523.173L369.459 521.253H286.786L284.925 523.136V605.542ZM371.987 605.542L373.875 607.453H456.492L458.417 605.505V523.173L456.52 521.253H373.847L371.987 523.136V605.542ZM459.048 605.542L460.936 607.453H543.554L545.478 605.505V523.173L543.582 521.253H460.908L459.048 523.136V605.542ZM460.908 608.092L459.048 609.975V692.381L460.936 694.292H543.554L545.478 692.344V610.011L543.582 608.092H460.908ZM460.908 694.93L459.048 696.814V779.219L460.936 781.131H543.554L545.478 779.183V696.85L543.582 694.93H460.908ZM460.934 781.744L459.023 783.678V866.033L460.911 867.944H543.579L545.453 866.047V783.663L543.556 781.744H460.934ZM717.677 781.131H635.059L633.171 779.219V696.814L635.031 694.93H717.705L719.601 696.85V779.183L717.677 781.131ZM632.54 696.85V779.183L630.615 781.131H547.998L546.109 779.219V696.814L547.97 694.93H630.643L632.54 696.85ZM630.615 694.292H547.998L546.109 692.381V609.975L547.97 608.092H621.804V609.03H632.54V692.344L630.615 694.292ZM633.171 619.885V692.381L635.059 694.292H717.677L719.601 692.344V610.011L717.705 608.092H635.078V619.885H633.171ZM635.078 607.453H717.677L719.601 605.505V523.173L717.705 521.253H635.031L633.171 523.136V595.621H635.078V607.453ZM632.54 606.476V523.173L630.643 521.253H547.97L546.109 523.136V605.542L547.998 607.453H621.804V606.476H632.54ZM630.615 520.614H547.998L546.109 518.703V436.297L547.97 434.414H630.643L632.54 436.334V518.666L630.615 520.614ZM545.478 436.334V518.666L543.554 520.614H460.936L459.048 518.703V436.297L460.908 434.414H543.582L545.478 436.334ZM458.417 436.334V518.666L456.492 520.614H373.875L371.987 518.703V436.297L373.847 434.414H456.52L458.417 436.334ZM371.356 436.334V518.666L369.431 520.614H286.814L284.925 518.703V436.297L286.786 434.414H369.459L371.356 436.334ZM284.294 436.334V518.666L282.37 520.614H199.752L197.864 518.703V436.297L199.724 434.414H282.397L284.294 436.334ZM197.208 436.308V518.692L195.333 520.589H112.666L110.777 518.677V436.323L112.688 434.388H195.311L197.208 436.308ZM110.146 436.308V518.692L108.272 520.589H25.6041L23.7156 518.677V436.323L25.6267 434.388H108.249L110.146 436.308ZM23.0848 436.308V518.692L21.2105 520.589H-61.4573L-63.3458 518.677V436.323L-61.4347 434.388H21.188L23.0848 436.308ZM-63.9766 436.308V518.692L-65.8509 520.589H-148.519L-150.407 518.677V436.323L-148.496 434.388H-65.8734L-63.9766 436.308ZM-63.3458 345L-61.4572 346.911H21.2105L23.0848 345.014V262.631L21.188 260.711H-61.4348L-63.3458 262.645V345ZM-61.4347 347.55L-63.3458 349.484V431.839L-61.4573 433.75H21.2105L23.0848 431.853V349.469L21.188 347.55H-61.4347ZM23.7156 431.839L25.6041 433.75H108.272L110.146 431.853V349.469L108.249 347.55H25.6267L23.7156 349.484V431.839ZM110.777 431.839L112.666 433.75H195.333L197.208 431.853V349.469L195.311 347.55H112.688L110.777 349.484V431.839ZM197.864 431.864L199.752 433.775H282.37L284.294 431.827V349.495L282.397 347.575H199.724L197.864 349.458V431.864ZM284.925 431.864L286.814 433.775H369.431L371.356 431.827V349.495L369.459 347.575H286.786L284.925 349.458V431.864ZM371.987 431.864L373.875 433.775H456.492L458.417 431.827V349.495L456.52 347.575H373.847L371.987 349.458V431.864ZM459.048 431.864L460.936 433.775H543.554L545.478 431.827V349.495L543.582 347.575H460.908L459.048 349.458V431.864ZM546.109 431.864L547.998 433.775H630.615L632.54 431.827V348.512H621.804V347.575H547.97L546.109 349.458V431.864ZM621.804 346.937H547.998L546.109 345.025V262.619L547.97 260.736H630.643L632.54 262.656V345.958H621.804V346.937ZM633.171 335.103V262.619L635.031 260.736H717.705L719.601 262.656V344.989L717.677 346.937H635.078V335.103H633.171ZM635.078 347.575H717.705L719.601 349.495V431.827L717.677 433.775H635.059L633.171 431.864V359.367H635.078V347.575ZM635.031 434.414L633.171 436.297V518.703L635.059 520.614H717.677L719.601 518.666V436.334L717.705 434.414H635.031ZM720.306 692.351V610.004L722.221 608.066H804.84V619.885H806.736V692.373L804.866 694.266H722.198L720.306 692.351ZM807.367 609.03V692.351L809.26 694.266H891.927L893.798 692.373V609.982L891.905 608.066H818.113V609.03H807.367ZM818.113 607.428H891.927L893.798 605.535V523.143L891.905 521.227H809.282L807.367 523.165V606.476H818.113V607.428ZM806.736 595.621V523.143L804.843 521.227H722.221L720.306 523.165V605.512L722.198 607.428H804.84V595.621H806.736ZM804.866 520.589H722.198L720.306 518.673V436.327L722.221 434.388H804.843L806.736 436.304V518.696L804.866 520.589ZM804.866 433.75H722.198L720.306 431.835V349.488L722.221 347.55H804.84V359.367H806.736V431.857L804.866 433.75ZM807.367 348.512V431.835L809.26 433.75H891.927L893.798 431.857V349.465L891.905 347.55H818.113V348.512H807.367ZM818.113 346.911H891.927L893.798 345.018V262.627L891.905 260.711H809.282L807.367 262.649V345.958H818.113V346.911ZM806.736 335.103V262.627L804.844 260.711H722.221L720.306 262.649V344.996L722.198 346.911H804.84V335.103H806.736ZM630.615 260.098L632.54 258.15V175.817L630.618 173.872H547.995L546.109 175.781V258.186L547.998 260.098H630.615ZM633.171 258.186L635.059 260.098H717.677L719.601 258.15V175.817L717.679 173.872H635.057L633.171 175.781V258.186ZM720.306 258.157L722.198 260.072H804.866L806.736 258.179V175.788L804.844 173.872H722.221L720.306 175.81V258.157ZM807.367 258.157L809.26 260.072H891.927L893.798 258.179V175.788L891.905 173.872H809.282L807.367 175.81V258.157ZM894.429 431.835V349.488L896.344 347.55H978.966L980.859 349.465V431.857L978.989 433.75H896.321L894.429 431.835ZM978.989 346.911H896.321L894.429 344.996V262.649L896.343 260.711H978.966L980.859 262.627V345.018L978.989 346.911ZM978.989 260.072H896.321L894.429 258.157V175.81L896.343 173.872H978.966L980.859 175.788V258.179L978.989 260.072ZM978.964 173.259H896.346L894.429 171.318V88.9713L896.343 87.0332H978.966L980.859 88.9489V171.341L978.964 173.259ZM893.798 88.9489V171.341L891.927 173.234H809.26L807.367 171.318V87.0332H891.905L893.798 88.9489ZM632.54 87.0332V171.311L630.615 173.259H547.998L546.109 171.348V88.9418L547.995 87.0332H632.54ZM545.478 88.9785V171.311L543.554 173.259H460.937L459.048 171.348V88.9418L460.934 87.0332H543.557L545.478 88.9785ZM460.934 173.872H543.557L545.478 175.817V258.15L543.554 260.098H460.936L459.048 258.186V175.781L460.934 173.872ZM460.908 260.736H543.582L545.478 262.656V344.989L543.554 346.937H460.936L459.048 345.025V262.619L460.908 260.736ZM458.417 262.656V344.989L456.492 346.937H373.875L371.987 345.025V262.619L373.847 260.736H456.52L458.417 262.656ZM371.356 262.656V344.989L369.431 346.937H286.814L284.925 345.025V262.619L286.786 260.736H369.459L371.356 262.656ZM284.294 262.656V344.989L282.37 346.937H199.752L197.864 345.025V262.619L199.724 260.736H282.397L284.294 262.656ZM197.233 262.656V344.989L195.308 346.937H112.691L110.802 345.025V262.619L112.663 260.736H195.336L197.233 262.656ZM110.146 262.631V345.014L108.272 346.911H25.6042L23.7156 345V262.645L25.6266 260.711H108.249L110.146 262.631ZM108.247 260.098H25.6294L23.7409 258.186V175.781L25.6266 173.872H108.249L110.171 175.817V258.15L108.247 260.098ZM23.0848 175.792V258.175L21.2105 260.072H-61.4572L-63.3458 258.161V175.806L-61.4348 173.872H21.1881L23.0848 175.792ZM-63.9766 175.792V258.175L-65.8509 260.072H-148.519L-150.407 258.161V175.806L-148.496 173.872H-65.8733L-63.9766 175.792ZM-63.3458 171.322V88.9673L-61.4348 87.0332H21.1881L23.0848 88.9529V171.337L21.1852 173.259H-61.432L-63.3458 171.322ZM112.688 173.872L110.802 175.781V258.186L112.691 260.098H195.308L197.233 258.15V175.817L195.311 173.872H112.688ZM197.864 258.186L199.752 260.098H282.37L284.294 258.15V175.817L282.372 173.872H199.749L197.864 175.781V258.186ZM284.925 258.186L286.814 260.098H369.431L371.356 258.15V175.817L369.434 173.872H286.811L284.925 175.781V258.186ZM371.987 258.186L373.875 260.098H456.492L458.417 258.15V175.817L456.495 173.872H373.872L371.987 175.781V258.186ZM284.294 88.9784V171.311L282.369 173.259H199.752L197.864 171.348V88.9418L199.749 87.0332H282.372L284.294 88.9784ZM1070.47 173.872L1068.58 175.785V258.182L1070.47 260.098H1153.09L1155.01 258.154V175.813L1153.09 173.872H1070.47ZM1067.95 175.813L1066.03 173.872H983.405L981.515 175.785V258.183L983.408 260.098H1066.03L1067.95 258.154V175.813ZM983.405 260.711L981.49 262.649V344.996L983.382 346.911H1066.05L1067.92 345.018V262.626L1066.03 260.711H983.405ZM983.405 347.55L981.49 349.488V431.835L983.382 433.75H1066.05L1067.92 431.857V349.465L1066.03 347.55H983.405ZM983.405 434.388L981.49 436.327V518.673L983.382 520.589H1066.05L1067.92 518.696V436.304L1066.03 434.388H983.405ZM980.859 436.304L978.966 434.388H896.344L894.429 436.327V518.673L896.321 520.589H978.989L980.859 518.696V436.304ZM893.798 436.304L891.905 434.388H809.282L807.367 436.327V518.673L809.26 520.589H891.927L893.798 518.696V436.304ZM894.429 692.351V610.004L896.344 608.066H978.966L980.859 609.982V692.373L978.989 694.266H896.321L894.429 692.351ZM978.989 607.428H896.321L894.429 605.512V523.165L896.344 521.227H978.966L980.859 523.143V605.535L978.989 607.428ZM981.49 605.512V523.165L983.405 521.227H1066.03L1067.92 523.143V605.535L1066.05 607.428H983.382L981.49 605.512ZM1068.55 605.512V523.166L1070.47 521.227H1153.09L1154.98 523.143V605.535L1153.11 607.428H1070.44L1068.55 605.512ZM1153.11 520.589H1070.44L1068.55 518.673V436.327L1070.47 434.388H1153.09L1154.98 436.304V518.696L1153.11 520.589ZM1153.11 433.75H1070.44L1068.55 431.834V349.488L1070.47 347.55H1153.09L1154.98 349.465V431.857L1153.11 433.75ZM1153.09 346.937H1070.47L1068.58 345.021V262.623L1070.44 260.736H1153.11L1155.01 262.652V344.993L1153.09 346.937ZM1155.64 345.021V262.623L1157.5 260.736H1240.18L1242.07 262.652V344.993L1240.15 346.937H1157.53L1155.64 345.021ZM1240.15 260.098H1157.53L1155.64 258.182V175.785L1157.53 173.872H1240.15L1242.07 175.813V258.154L1240.15 260.098ZM1240.15 173.259H1157.53L1155.64 171.344V88.9458L1157.53 87.0332H1240.15L1242.07 88.9745V171.315L1240.15 173.259ZM1331.65 173.872L1329.76 175.785V258.182L1331.65 260.098H1414.27L1416.19 258.154V175.813L1414.27 173.872H1331.65ZM1329.13 175.813L1327.21 173.872H1244.59L1242.7 175.785V258.182L1244.59 260.098H1327.21L1329.13 258.154V175.813ZM1244.56 260.736L1242.7 262.623V345.021L1244.59 346.937H1327.21L1329.13 344.993V262.652L1327.24 260.736H1244.56ZM1244.56 347.575L1242.7 349.462V431.86L1244.59 433.776H1327.21L1329.13 431.831V349.491L1327.24 347.575H1244.56ZM1242.07 349.491L1240.18 347.575H1157.5L1155.64 349.462V431.86L1157.53 433.776H1240.15L1242.07 431.831V349.491ZM1157.5 434.414L1155.64 436.301V518.699L1157.53 520.614H1240.15L1242.07 518.67V436.33L1240.18 434.414H1157.5ZM1157.53 521.227L1155.61 523.166V605.512L1157.51 607.428H1240.17L1242.04 605.535V523.143L1240.15 521.227H1157.53ZM1157.53 608.066L1155.61 610.004V692.351L1157.51 694.266H1240.17L1242.04 692.374V609.982L1240.15 608.066H1157.53ZM1154.98 609.982L1153.09 608.066H1070.47L1068.55 610.004V692.351L1070.44 694.266H1153.11L1154.98 692.373V609.982ZM1067.92 609.982L1066.03 608.066H983.405L981.49 610.004V692.351L983.383 694.266H1066.05L1067.92 692.374V609.982ZM983.405 694.905L981.49 696.843V779.19L983.382 781.105H1066.05L1067.92 779.212V696.821L1066.03 694.905H983.405ZM980.859 696.821L978.966 694.905H896.344L894.429 696.843V779.19L896.321 781.105H978.989L980.859 779.212V696.821ZM893.798 696.821L891.905 694.905H809.282L807.367 696.843V779.19L809.26 781.105H891.927L893.798 779.212V696.821ZM806.736 696.821L804.843 694.905H722.221L720.306 696.843V779.19L722.198 781.105H804.866L806.736 779.212V696.821ZM807.367 867.944V783.682L809.282 781.744H891.905L893.798 783.659V866.051L891.927 867.944H807.367ZM894.429 866.029V783.682L896.344 781.744H978.966L980.859 783.659V866.051L978.989 867.944H896.321L894.429 866.029ZM1153.11 781.105H1070.44L1068.55 779.19V696.843L1070.47 694.905H1153.09L1154.98 696.821V779.212L1153.11 781.105ZM1155.61 779.19V696.843L1157.53 694.905H1240.15L1242.04 696.821V779.212L1240.17 781.105H1157.51L1155.61 779.19ZM1242.67 779.19V696.843L1244.59 694.905H1327.21L1329.1 696.821V779.212L1327.23 781.105H1244.57L1242.67 779.19ZM1327.23 694.266H1244.57L1242.67 692.351V610.004L1244.59 608.066H1327.21L1329.1 609.982V692.373L1327.23 694.266ZM1327.21 607.453H1244.59L1242.7 605.538V523.14L1244.56 521.253H1327.24L1329.13 523.169V605.509L1327.21 607.453ZM1327.21 520.614H1244.59L1242.7 518.699V436.301L1244.56 434.414H1327.24L1329.13 436.33V518.67L1327.21 520.614ZM1329.76 518.699V436.301L1331.63 434.414H1414.3L1416.19 436.33V518.67L1414.27 520.614H1331.65L1329.76 518.699ZM1414.27 433.776H1331.65L1329.76 431.86V349.462L1331.63 347.575H1414.3L1416.19 349.491V431.831L1414.27 433.776ZM1414.27 346.937H1331.65L1329.76 345.021V262.623L1331.63 260.736H1414.3L1416.19 262.652V344.993L1414.27 346.937ZM1416.82 345.021V262.623L1418.69 260.736H1501.36L1503.25 262.652V344.993L1501.33 346.937H1418.71L1416.82 345.021ZM1501.33 260.098H1418.71L1416.82 258.183V175.785L1418.71 173.872H1501.33L1503.25 175.813V258.154L1501.33 260.098ZM1501.33 173.259H1418.71L1416.82 171.344V88.9457L1418.71 87.0332H1501.33L1503.25 88.9744V171.315L1501.33 173.259ZM1503.88 171.343V88.946L1505.77 87.0332H1590.31V171.315L1588.39 173.259H1505.78L1503.88 171.343ZM1505.77 173.872H1588.4L1590.31 175.813V258.154L1588.39 260.098H1505.78L1503.88 258.182V175.785L1505.77 173.872ZM1503.25 349.491L1501.36 347.575H1418.69L1416.82 349.462V431.86L1418.71 433.776H1501.33L1503.25 431.831V349.491ZM1418.69 434.414L1416.82 436.301V518.699L1418.71 520.614H1501.33L1503.25 518.67V436.33L1501.36 434.414H1418.69ZM1418.69 521.253L1416.82 523.14V605.538L1418.71 607.453H1501.33L1503.25 605.509V523.169L1501.36 521.253H1418.69ZM1416.19 523.169L1414.3 521.253H1331.63L1329.76 523.14V605.538L1331.65 607.453H1414.27L1416.19 605.509V523.169ZM1331.63 608.092L1329.76 609.979V692.377L1331.65 694.292H1414.27L1416.19 692.348V610.007L1414.3 608.092H1331.63ZM1331.65 694.905L1329.74 696.843V779.19L1331.63 781.105H1414.3L1416.17 779.212V696.821L1414.27 694.905H1331.65ZM1242.04 783.659L1240.15 781.744H1157.53L1155.61 783.682V866.029L1157.51 867.944H1240.17L1242.04 866.051V783.659ZM1416.8 866.029L1418.69 867.944H1501.36L1503.23 866.051V783.659L1501.33 781.744H1418.71L1416.8 783.682V866.029ZM1588.39 781.131L1590.31 779.187V696.846L1588.42 694.93H1505.75L1503.88 696.818V779.215L1505.78 781.131H1588.39ZM1588.39 520.614H1505.78L1503.88 518.699V436.301L1505.75 434.414H1588.42L1590.31 436.33V518.67L1588.39 520.614ZM1503.25 610.007L1501.36 608.092H1418.69L1416.82 609.979V692.377L1418.71 694.292H1501.33L1503.25 692.348V610.007ZM1418.69 694.93L1416.82 696.817V779.215L1418.71 781.131H1501.33L1503.25 779.187V696.846L1501.36 694.93H1418.69Z" fill="#0B2736" fill-opacity="0.08"/>
</svg>
