<svg width="182" height="478" viewBox="0 0 182 478" fill="none" xmlns="http://www.w3.org/2000/svg">
<rect x="30.3867" y="472.676" width="1.91515" height="4.78788" fill="#888888"/>
<rect x="33.8984" y="399.531" width="1.59596" height="4.78788" transform="rotate(90 33.8984 399.531)" fill="#888888"/>
<rect x="34.2188" y="389" width="1.59596" height="4.78788" transform="rotate(90 34.2188 389)" fill="#888888"/>
<path d="M36.96 454.527L34.688 454.127L34.688 451.871L36.96 451.455L36.96 450.015L26.112 452.127L26.112 453.775L36.96 455.871L36.96 454.527ZM28.432 453.007L28.432 452.991L33.536 452.079L33.536 453.919L28.432 453.007Z" fill="#888888"/>
<path d="M31.888 450.006L31.888 447.622L30.752 447.622L30.752 450.006L31.888 450.006Z" fill="#888888"/>
<path d="M35.904 444.269C35.904 445.085 35.296 445.437 34.48 445.437L28.592 445.437C27.776 445.437 27.168 445.085 27.168 444.269C27.168 443.453 27.776 443.101 28.592 443.101L34.48 443.101C35.296 443.101 35.904 443.453 35.904 444.269ZM37.072 444.269C37.072 442.509 35.856 441.693 34.256 441.693L28.816 441.693C27.216 441.693 26 442.509 26 444.269C26 446.029 27.216 446.845 28.816 446.845L34.256 446.845C35.856 446.845 37.072 446.029 37.072 444.269Z" fill="#888888"/>
<path d="M35.904 438.205C35.904 439.021 35.296 439.373 34.48 439.373L28.592 439.373C27.776 439.373 27.168 439.021 27.168 438.205C27.168 437.389 27.776 437.037 28.592 437.037L34.48 437.037C35.296 437.037 35.904 437.389 35.904 438.205ZM37.072 438.205C37.072 436.445 35.856 435.629 34.256 435.629L28.816 435.629C27.216 435.629 26 436.445 26 438.205C26 439.965 27.216 440.781 28.816 440.781L34.256 440.781C35.856 440.781 37.072 439.965 37.072 438.205Z" fill="#888888"/>
<path d="M36.96 434.748L36.96 430.204L35.808 430.204L35.808 433.404L35.072 433.404C34.128 433.404 33.792 433.084 33.2 432.54L31.888 431.308C30.912 430.412 30.24 430.14 29.232 430.14L28.192 430.14C26.736 430.14 26 430.892 26 432.412C26 433.9 26.8 434.716 28.288 434.716L29.568 434.716L29.568 433.404L28.256 433.404C27.424 433.404 27.136 433.004 27.136 432.444C27.136 431.916 27.376 431.516 28.192 431.516L29.12 431.516C29.968 431.516 30.432 431.708 31.104 432.332L32.272 433.42C33.312 434.364 33.952 434.748 35.072 434.748L36.96 434.748Z" fill="#888888"/>
<rect x="29.9609" y="215" width="3.67341" height="3.67341" fill="#FA0339"/>
<rect x="29.9609" y="295.082" width="3.67341" height="3.67341" fill="#FA0339"/>
<rect x="29.9609" y="305.734" width="3.67341" height="3.67341" fill="#FA0339"/>
<path d="M30.5664 160.133H31.7532V164.88H30.5664V160.133Z" fill="#717A88"/>
<path d="M33.5312 90.1133L33.5312 91.8935L28.784 91.8935L28.784 90.1133L33.5312 90.1133Z" fill="#717A88"/>
<path d="M32.9375 203.449L32.9375 205.229L29.3771 205.229L29.3771 203.449L32.9375 203.449Z" fill="#717A88"/>
<path d="M34.125 80.0234L34.125 81.2102L29.3778 81.2102L29.3778 80.0234L34.125 80.0234Z" fill="#717A88"/>
<path d="M58.4531 160.133H60.2333V164.88H58.4531V160.133Z" fill="#717A88"/>
<path d="M86.3438 160.133H88.124V164.88H86.3438V160.133Z" fill="#717A88"/>
<path d="M159.336 203.449H162.896V205.229H159.336V203.449Z" fill="#717A88"/>
<path d="M114.828 160.133H116.015V164.88H114.828V160.133Z" fill="#717A88"/>
<path d="M32.8843 134.56L31.7884 134.366L31.7884 133.274L32.8843 133.072L32.8843 132.375L27.6517 133.398L27.6517 134.196L32.8843 135.211L32.8843 134.56ZM28.7707 133.824L28.7707 133.816L31.2327 133.374L31.2327 134.266L28.7707 133.824Z" fill="#717A88"/>
<path d="M30.4378 132.371L30.4378 131.216L29.8898 131.216L29.8898 132.371L30.4378 132.371Z" fill="#717A88"/>
<path d="M32.3749 129.592C32.3749 129.987 32.0816 130.158 31.688 130.158L28.8479 130.158C28.4543 130.158 28.161 129.987 28.161 129.592C28.161 129.197 28.4543 129.026 28.8479 129.026L31.688 129.026C32.0816 129.026 32.3749 129.197 32.3749 129.592ZM32.9383 129.592C32.9383 128.74 32.3517 128.344 31.58 128.344L28.956 128.344C28.1842 128.344 27.5977 128.74 27.5977 129.592C27.5977 130.444 28.1842 130.84 28.956 130.84L31.58 130.84C32.3517 130.84 32.9383 130.444 32.9383 129.592Z" fill="#717A88"/>
<path d="M32.3749 126.655C32.3749 127.05 32.0816 127.221 31.688 127.221L28.8479 127.221C28.4543 127.221 28.161 127.05 28.161 126.655C28.161 126.26 28.4543 126.089 28.8479 126.089L31.688 126.089C32.0816 126.089 32.3749 126.26 32.3749 126.655ZM32.9383 126.655C32.9383 125.803 32.3517 125.407 31.58 125.407L28.956 125.407C28.1842 125.407 27.5977 125.803 27.5977 126.655C27.5977 127.507 28.1842 127.903 28.956 127.903L31.58 127.903C32.3517 127.903 32.9383 127.507 32.9383 126.655Z" fill="#717A88"/>
<path d="M32.8843 124.981L32.8843 122.78L32.3286 122.78L32.3286 124.33L31.9736 124.33C31.5182 124.33 31.3562 124.175 31.0706 123.912L30.4378 123.315C29.967 122.881 29.6428 122.749 29.1566 122.749L28.655 122.749C27.9527 122.749 27.5977 123.114 27.5977 123.85C27.5977 124.57 27.9835 124.966 28.7013 124.966L29.3187 124.966L29.3187 124.33L28.6858 124.33C28.2845 124.33 28.1456 124.137 28.1456 123.865C28.1456 123.61 28.2614 123.416 28.655 123.416L29.1026 123.416C29.5116 123.416 29.7355 123.509 30.0596 123.811L30.623 124.338C31.1246 124.795 31.4333 124.981 31.9736 124.981L32.8843 124.981Z" fill="#717A88"/>
<path d="M133.353 133.345L133.353 132.827L134.379 132.827C134.788 132.827 135.035 132.995 135.035 133.383C135.035 133.787 134.734 133.947 134.34 133.947L131.516 133.947C131.122 133.947 130.821 133.779 130.821 133.36C130.821 132.934 131.06 132.812 131.469 132.812L131.979 132.812L131.979 132.187L131.516 132.187C130.775 132.187 130.258 132.461 130.258 133.375C130.258 134.244 130.844 134.617 131.616 134.617L134.24 134.617C135.004 134.617 135.598 134.282 135.598 133.52C135.598 133.033 135.359 132.812 135.027 132.697L135.544 132.697L135.544 132.187L132.812 132.187L132.812 133.345L133.353 133.345Z" fill="#717A88"/>
<path d="M135.544 130.008L135.544 129.292L133.144 130.305C133.059 129.696 132.727 129.444 132.118 129.444L131.4 129.444C130.713 129.444 130.312 129.757 130.312 130.572L130.312 131.722L135.544 131.722L135.544 131.052L133.028 131.052L135.544 130.008ZM130.868 130.648C130.868 130.29 131.037 130.115 131.377 130.115L132.172 130.115C132.519 130.115 132.689 130.29 132.689 130.648L132.689 131.052L130.868 131.052L130.868 130.648Z" fill="#717A88"/>
<path d="M130.312 127.1L134.325 127.808L134.325 127.816L130.312 128.517L130.312 129.195L135.544 128.197L135.544 127.458L130.312 126.468L130.312 127.1Z" fill="#717A88"/>
<path d="M135.544 126.084L134.449 125.894L134.449 124.82L135.544 124.622L135.544 123.936L130.312 124.942L130.312 125.726L135.544 126.724L135.544 126.084ZM131.431 125.361L131.431 125.353L133.893 124.919L133.893 125.795L131.431 125.361Z" fill="#717A88"/>
<path fill-rule="evenodd" clip-rule="evenodd" d="M85.5331 100.793H134.128L181.882 0.507812H133.172L109.827 49.6505L86.4828 0.507812H37.7787L42.7518 10.9491L0.894531 100.793H49.4831L67.5787 63.0979L85.5331 100.793ZM49.2016 100.346L67.5803 62.0613L85.8156 100.346H133.846L181.174 0.954574H133.455L109.827 50.6926L86.2 0.954574H38.4868L43.2461 10.947L1.596 100.346H49.2016Z" fill="#717A88"/>
</svg>
