<svg width="42" height="42" viewBox="0 0 42 42" fill="none" xmlns="http://www.w3.org/2000/svg">
<path opacity="0.5" d="M41 1H1V41H41V1Z" stroke="#FA0339" stroke-miterlimit="10"/>
<path d="M27.6856 21.1576C27.6856 24.8022 24.6919 27.7573 20.9982 27.7573C17.3046 27.7573 14.3109 24.8022 14.3109 21.1576C14.3109 17.5131 17.3046 14.558 20.9982 14.558C24.6919 14.558 27.6856 17.5131 27.6856 21.1576Z" fill="#FA0339" stroke="#FA0339" stroke-width="0.0514524"/>
<path d="M18.1872 11.983C18.1872 13.616 16.8458 14.9403 15.1904 14.9403C13.5351 14.9403 12.1937 13.616 12.1937 11.983C12.1937 10.3501 13.5351 9.02573 15.1904 9.02573C16.8458 9.02573 18.1872 10.3501 18.1872 11.983Z" fill="#FA0339" stroke="#FA0339" stroke-width="0.0514524"/>
<path d="M13.6299 15.0809C12.236 16.7256 11.3976 18.8442 11.3976 21.1565C11.3976 26.3908 15.6971 30.6337 20.9997 30.6337C26.3029 30.6337 30.6024 26.3908 30.6024 21.1565C30.6024 15.9218 26.3029 11.6789 20.9997 11.6789C20.2052 11.6789 19.4333 11.7742 18.6949 11.9539C18.6881 11.1137 18.3775 10.344 17.8662 9.7484C18.865 9.48163 19.9156 9.3392 20.9997 9.3392C27.6135 9.3392 32.9743 14.6304 32.9743 21.1565C32.9743 27.6826 27.6135 32.9739 20.9997 32.9739C14.3865 32.9739 9.02573 27.6826 9.02573 21.1565C9.02573 18.1787 10.1419 15.458 11.9838 13.3797C12.3143 14.119 12.8997 14.7221 13.6299 15.0809Z" fill="#FA0339" stroke="#FA0339" stroke-width="0.0514524"/>
<path d="M37.2568 1H41.0004V4.74356" stroke="#FA0339" stroke-width="2" stroke-miterlimit="10"/>
<path d="M1 4.74356V1H4.74356" stroke="#FA0339" stroke-width="2" stroke-miterlimit="10"/>
<path d="M1 37.2559V40.9994H4.74356" stroke="#FA0339" stroke-width="2" stroke-miterlimit="10"/>
<path d="M41.0004 37.2559V40.9994H37.2568" stroke="#FA0339" stroke-width="2" stroke-miterlimit="10"/>
</svg>
