<svg width="42" height="42" viewBox="0 0 42 42" fill="none" xmlns="http://www.w3.org/2000/svg">
<path opacity="0.5" d="M41 1H1V41H41V1Z" stroke="white" stroke-miterlimit="10"/>
<rect x="4" y="4" width="34" height="34" fill="white"/>
<path d="M37.2559 1H40.9994V4.74356" stroke="white" stroke-width="2" stroke-miterlimit="10"/>
<path d="M1 4.74356V1H4.74356" stroke="white" stroke-width="2" stroke-miterlimit="10"/>
<path d="M1 37.2546V40.9982H4.74356" stroke="white" stroke-width="2" stroke-miterlimit="10"/>
<path d="M40.9994 37.2546V40.9982H37.2559" stroke="white" stroke-width="2" stroke-miterlimit="10"/>
<path fill-rule="evenodd" clip-rule="evenodd" d="M31 13H25.4278L21.4633 22.8189L16.958 13H11.0045V13.4879L13.102 16.0105L13.0734 25.7537L11 28.5388L11.0045 29H16.86L16.8751 28.5759L14.422 25.7537L14.4868 17.8687L19.6597 29H20.2835L24.8778 17.6047V26.8734L22.9943 28.6263V29H31V28.5521L29.1647 26.8393L29.1391 15.0554L31 13.4909V13Z" fill="#141F32"/>
</svg>
