<svg width="50" height="50" viewBox="0 0 50 50" fill="none" xmlns="http://www.w3.org/2000/svg">
<path opacity="0.5" d="M48.9998 1H1V48.9998H48.9998V1Z" stroke="#FA0339" stroke-miterlimit="10"/>
<path d="M33.0279 25.1878C33.0279 29.5642 29.4331 33.1125 24.998 33.1125C20.5629 33.1125 16.9681 29.5642 16.9681 25.1878C16.9681 20.8114 20.5629 17.263 24.998 17.263C29.4331 17.263 33.0279 20.8114 33.0279 25.1878Z" fill="#FA0339" stroke="#FA0339" stroke-width="0.0514524"/>
<path d="M21.6295 14.1792C21.6295 16.1416 20.0175 17.7331 18.0283 17.7331C16.0391 17.7331 14.4271 16.1416 14.4271 14.1792C14.4271 12.2168 16.0391 10.6253 18.0283 10.6253C20.0175 10.6253 21.6295 12.2168 21.6295 14.1792Z" fill="#FA0339" stroke="#FA0339" stroke-width="0.0514524"/>
<path d="M16.1637 17.8947C14.4891 19.8682 13.4818 22.4113 13.4818 25.1872C13.4818 31.4654 18.6388 36.5546 24.9992 36.5546C31.3603 36.5546 36.5173 31.4654 36.5173 25.1872C36.5173 18.9084 31.3603 13.8192 24.9992 13.8192C24.0439 13.8192 23.116 13.9341 22.2283 14.1506C22.2217 13.1382 21.847 12.2108 21.2297 11.4946C22.431 11.173 23.6949 11.0013 24.9992 11.0013C32.9385 11.0013 39.3738 17.353 39.3738 25.1872C39.3738 33.0214 32.9385 39.3731 24.9992 39.3731C17.0606 39.3731 10.6253 33.0214 10.6253 25.1872C10.6253 21.6097 11.9674 18.3412 14.1816 15.8457C14.578 16.737 15.2833 17.4639 16.1637 17.8947Z" fill="#FA0339" stroke="#FA0339" stroke-width="0.0514524"/>
<path d="M44.5088 1H49.001V5.49225" stroke="#FA0339" stroke-width="2" stroke-miterlimit="10"/>
<path d="M1 5.49225V1H5.49225" stroke="#FA0339" stroke-width="2" stroke-miterlimit="10"/>
<path d="M1 44.5078V49.0001H5.49225" stroke="#FA0339" stroke-width="2" stroke-miterlimit="10"/>
<path d="M49.001 44.5078V49.0001H44.5088" stroke="#FA0339" stroke-width="2" stroke-miterlimit="10"/>
</svg>
