<svg width="100" height="100" viewBox="0 0 100 100" fill="none" xmlns="http://www.w3.org/2000/svg">
<rect width="100" height="100" fill="#FA0339"/>
<path d="M51.6423 15.5996C32.6622 15.5996 17.2227 31.0415 17.2227 50.0216C17.2227 52.5133 17.4884 54.9444 17.9965 57.2869L20.1339 52.6928C20.057 51.8117 20.0197 50.9213 20.0197 50.0216C20.0197 42.6981 22.523 35.9479 26.7139 30.5823C26.9004 30.3446 27.0891 30.1092 27.2803 29.8784C27.3525 29.7922 27.4225 29.7059 27.4947 29.622C27.7278 29.347 27.9679 29.0743 28.2126 28.8062C34.0001 22.4173 42.3609 18.3966 51.6423 18.3966C60.9261 18.3966 69.2869 22.4173 75.0767 28.8062L78.7315 28.8062C72.4242 20.7718 62.6253 15.5996 51.6423 15.5996ZM83.4328 36.8243L81.7569 40.3509C82.7382 43.3997 83.2673 46.6489 83.2673 50.0216C83.2673 67.4587 69.0818 81.6443 51.6423 81.6443C42.3609 81.6443 33.9978 77.6236 28.2103 71.2347H24.5555C30.8605 79.2715 40.6594 84.4413 51.6423 84.4413C70.6225 84.4413 86.0643 69.0017 86.0643 50.0216C86.0643 45.3483 85.1273 40.8917 83.4328 36.8243ZM20.5301 55.7066L18.6328 59.7856C19.6817 63.3284 21.2877 66.6359 23.3505 69.6031H26.8281C23.6861 65.629 21.4765 60.8857 20.5301 55.7066ZM79.9365 30.4378L76.4589 30.4378C78.3119 32.7803 79.8386 35.3885 80.9761 38.1972L82.5518 34.8804C81.7896 33.3304 80.9155 31.8456 79.9365 30.4378Z" fill="white"/>
<path d="M27.2931 29.8873L27.1719 29.6309H27.5075C27.4353 29.7148 27.3653 29.801 27.2931 29.8873Z" fill="white"/>
<path d="M84.664 30.4434L82.5499 34.886L80.9742 38.2028L66.0358 69.6086H47.079L40.0748 54.887L33.017 69.6086H14.0625L18.631 59.7911L20.5283 55.7121L30.3901 34.5223L28.4485 30.4434L47.4496 30.4434L56.5562 49.6356L65.6629 30.4434L84.664 30.4434Z" fill="white"/>
</svg>
