<svg width="60" height="60" viewBox="0 0 60 60" fill="none" xmlns="http://www.w3.org/2000/svg">
<rect width="60" height="60" fill="#FA0339"/>
<path d="M30.6264 15C22.3552 15 15.627 21.7293 15.627 30.0005C15.627 31.0863 15.7427 32.1458 15.9642 33.1666L16.8956 31.1645C16.8621 30.7806 16.8458 30.3926 16.8458 30.0005C16.8458 26.809 17.9368 23.8674 19.7631 21.5292C19.8443 21.4256 19.9266 21.323 20.0099 21.2224C20.0414 21.1849 20.0718 21.1473 20.1033 21.1107C20.2049 20.9909 20.3095 20.872 20.4162 20.7552C22.9383 17.9711 26.5818 16.2189 30.6264 16.2189C34.6722 16.2189 38.3156 17.9711 40.8387 20.7552H42.4314C39.6828 17.2539 35.4126 15 30.6264 15ZM44.4802 24.2494L43.7499 25.7862C44.1775 27.1148 44.4081 28.5307 44.4081 30.0005C44.4081 37.5993 38.2262 43.7811 30.6264 43.7811C26.5818 43.7811 22.9373 42.0289 20.4152 39.2448H18.8225C21.5701 42.7471 25.8403 45 30.6264 45C38.8976 45 45.627 38.2717 45.627 30.0005C45.627 27.9639 45.2186 26.0218 44.4802 24.2494ZM17.0683 32.4779L16.2415 34.2555C16.6986 35.7994 17.3984 37.2407 18.2973 38.5338H19.8128C18.4436 36.8019 17.4807 34.7349 17.0683 32.4779ZM42.9566 21.4662H41.4411C42.2486 22.487 42.9139 23.6237 43.4096 24.8476L44.0962 23.4022C43.7641 22.7268 43.3832 22.0797 42.9566 21.4662Z" fill="white"/>
<path d="M20.0108 21.2245L19.958 21.1128H20.1043C20.0728 21.1494 20.0423 21.1869 20.0108 21.2245Z" fill="white"/>
<path d="M45.0169 21.468L44.0956 23.404L43.409 24.8494L36.8991 38.5356H28.638L25.5857 32.1201L22.51 38.5356H14.25L16.2409 34.2573L17.0677 32.4797L21.3653 23.2456L20.5192 21.468H28.7995L32.768 29.8317L36.7365 21.468H45.0169Z" fill="white"/>
</svg>
