<svg width="824" height="155" viewBox="0 0 824 155" fill="none" xmlns="http://www.w3.org/2000/svg">
<path d="M246.375 25.2891L185.508 153.584L247.597 153.584L308.621 25.2891L246.375 25.2891Z" fill="white"/>
<path d="M308.225 25.5391L247.439 153.334L185.903 153.334L246.534 25.5391L308.225 25.5391Z" stroke="black" stroke-opacity="0.2" stroke-width="0.5"/>
<path d="M169.032 25.2891L139.201 88.1575L109.37 25.2891L47.1329 25.2891L53.4878 38.6467L-7.59139e-06 153.584L62.0895 153.584L85.2131 105.361L108.156 153.584H108.165L170.246 153.584H170.254L231.277 25.2891L169.032 25.2891Z" fill="white"/>
<path d="M230.882 25.5391L170.096 153.334L108.314 153.334L85.4389 105.253L85.214 104.781L84.9877 105.253L61.9321 153.334L0.392081 153.334L53.7145 38.7521L53.7641 38.6455L53.7135 38.5393L47.5287 25.5391L109.212 25.5391L138.975 88.2647L139.201 88.7407L139.427 88.2647L169.19 25.5391L230.882 25.5391Z" stroke="black" stroke-opacity="0.2" stroke-width="0.5"/>
<path d="M823.037 48.5925L758.504 0L745.696 26.6988L627.462 26.6988L581.477 26.6988L581.026 26.6988C576.737 26.6988 572.621 27.814 569.013 29.8066C564.003 32.4633 559.862 36.7027 557.369 42.049L544.799 70.478H544.807L525.619 111.658L522.413 118.218C514.205 134.995 526.423 154.56 545.094 154.56L650.963 154.56C661.303 154.56 670.7 148.574 675.07 139.209L688.346 111.461H688.166L706.082 75.0535L642.574 75.0535L625.297 111.461L585.757 111.461L605.921 70.478L724.68 70.478L711.978 96.9472L823.037 48.5925Z" fill="white"/>
<path d="M705.681 75.3035L687.941 111.351L687.764 111.711H687.949L674.845 139.101L674.844 139.104C670.514 148.38 661.206 154.31 650.963 154.31L545.094 154.31C526.608 154.31 514.511 134.938 522.638 118.328L522.638 118.327L525.844 111.768L525.846 111.763L545.034 70.5835L545.199 70.228H545.183L557.596 42.1546C557.596 42.1539 557.597 42.1531 557.597 42.1524C560.066 36.8577 564.168 32.659 569.13 30.0274L569.13 30.0275L569.134 30.0254C572.706 28.0526 576.781 26.9488 581.026 26.9488L581.477 26.9488L627.462 26.9488L745.696 26.9488L745.853 26.9488L745.921 26.8069L758.597 0.383279L822.544 48.5344L712.494 96.4499L724.905 70.5861L725.077 70.228L724.68 70.228L605.921 70.228L605.765 70.228L605.696 70.3676L585.533 111.351L585.356 111.711L585.757 111.711L625.297 111.711L625.455 111.711L625.523 111.568L642.732 75.3035L705.681 75.3035Z" stroke="black" stroke-opacity="0.2" stroke-width="0.5"/>
<path d="M399.858 69.0666C412.666 67.0741 418.545 66.4099 424.4 54.1511L438.184 25.2793L324.156 25.2793L303.714 69.0666L325.886 69.0666L313.841 94.4535L285.789 153.583L347.879 153.583L380.949 84.056C380.94 84.056 387.041 71.0674 399.858 69.0666Z" fill="white"/>
<path d="M399.819 68.8196L399.819 68.8196C393.333 69.8322 388.555 73.6234 385.407 77.145C383.833 78.9069 382.662 80.6054 381.885 81.864C381.496 82.4934 381.206 83.0132 381.012 83.3766C380.916 83.5582 380.843 83.7009 380.795 83.7987C380.781 83.8267 380.769 83.8511 380.759 83.8717C380.752 83.8871 380.745 83.9004 380.74 83.9115L380.725 83.9427L380.72 83.9543L380.72 83.9547L347.721 153.333L286.184 153.333L314.067 94.5606L326.112 69.1738L326.282 68.8166H325.886L304.107 68.8166L324.315 25.5293L437.787 25.5293L424.174 54.0433C421.261 60.1431 418.36 63.3221 414.622 65.2362C411.019 67.0815 406.62 67.7641 400.606 68.6974C400.347 68.7377 400.084 68.7784 399.819 68.8196Z" stroke="black" stroke-opacity="0.2" stroke-width="0.5"/>
<path d="M518.73 99.0773L524.051 87.9255L540.623 52.7398C551.324 25.2784 526.397 25.0488 526.397 25.0488L515.729 25.0488L452.893 25.0488L435.944 60.5215L465.816 60.5215C465.816 60.5215 472.769 61.0955 472.302 67.0076C471.826 72.9197 466.775 73.4117 466.775 73.4117L447.555 74.1989C447.555 74.1989 438.174 73.8955 416.723 75.8717C399.208 78.4792 389.155 98.2081 389.155 98.2081L361.973 153.352L424.062 153.352L438.125 122.857C438.158 122.791 438.19 122.726 438.215 122.66C439.814 118.79 440.7 117.248 442.823 117.248C444.718 117.248 446.464 122.734 446.464 122.734L456.353 153.352L518.516 153.352L502.732 115.641C512.375 111.59 518.73 99.0773 518.73 99.0773Z" fill="white"/>
<path d="M465.836 60.2723L465.826 60.2715H465.816L436.34 60.2715L453.05 25.2988L515.729 25.2988L526.395 25.2988H526.397L526.398 25.2989L526.41 25.2991L526.461 25.3002C526.506 25.3015 526.574 25.3037 526.662 25.3078C526.839 25.3161 527.098 25.3317 527.424 25.3613C528.077 25.4205 529 25.5355 530.073 25.7586C532.224 26.2052 534.969 27.0822 537.378 28.7998C539.781 30.5139 541.853 33.0663 542.67 36.8802C543.489 40.6989 543.055 45.8081 540.393 52.6411L523.826 87.8178L523.825 87.819L518.507 98.9641L518.507 98.9645L518.506 98.966L518.504 98.9696L518.503 98.9724L518.489 98.9984C518.477 99.0216 518.459 99.0564 518.435 99.1021C518.387 99.1936 518.314 99.3287 518.219 99.5024C518.028 99.8498 517.743 100.352 517.372 100.967C516.629 102.197 515.539 103.88 514.149 105.688C511.364 109.31 507.397 113.41 502.635 115.411L502.405 115.507L502.501 115.738L518.141 153.102L456.535 153.102L446.702 122.658L446.702 122.658L446.702 122.657L446.702 122.657L446.701 122.654L446.697 122.641L446.681 122.594C446.668 122.553 446.648 122.493 446.622 122.417C446.57 122.265 446.493 122.049 446.396 121.789C446.201 121.27 445.92 120.576 445.579 119.881C445.238 119.188 444.832 118.482 444.383 117.945C443.944 117.42 443.415 116.998 442.823 116.998C442.261 116.998 441.767 117.101 441.32 117.326C440.873 117.552 440.486 117.892 440.126 118.348C439.414 119.249 438.781 120.636 437.984 122.565L437.984 122.565L437.981 122.572C437.962 122.624 437.935 122.677 437.901 122.745L437.901 122.745L437.898 122.752L423.902 153.102L362.375 153.102L389.378 98.3215L389.378 98.321L389.379 98.3187L389.38 98.3186L389.385 98.3085L389.406 98.2673C389.425 98.2307 389.454 98.1759 389.493 98.1042C389.57 97.9607 389.685 97.7492 389.839 97.4787C390.146 96.9377 390.605 96.1609 391.21 95.22C392.421 93.3379 394.217 90.8014 396.557 88.1844C401.242 82.9469 408.082 77.4133 416.753 76.12C427.47 75.1328 435.171 74.715 440.192 74.5441C442.702 74.4586 444.543 74.4348 445.754 74.4324C446.36 74.4311 446.809 74.4353 447.106 74.4397C447.255 74.4419 447.365 74.4442 447.438 74.4459L447.52 74.448L447.54 74.4486L447.545 74.4487L447.546 74.4487L447.547 74.4488L447.555 74.1989L447.547 74.4488L447.556 74.4491L447.565 74.4487L466.785 73.6615L466.786 73.6619L466.8 73.6605L466.775 73.4117C466.8 73.6605 466.8 73.6605 466.8 73.6605L466.8 73.6604L466.802 73.6603L466.805 73.6599L466.819 73.6584C466.83 73.6572 466.846 73.6552 466.866 73.6525C466.906 73.647 466.964 73.6382 467.037 73.6251C467.184 73.5988 467.391 73.5546 467.641 73.4827C468.14 73.3391 468.81 73.0838 469.497 72.6361C470.879 71.735 472.307 70.0665 472.551 67.0276L472.551 67.0273C472.672 65.4965 472.313 64.296 471.694 63.3619C471.078 62.4317 470.215 61.7806 469.35 61.3262C468.485 60.8717 467.609 60.609 466.95 60.4598C466.621 60.385 466.344 60.3383 466.149 60.3103C466.052 60.2962 465.975 60.2868 465.921 60.2809C465.895 60.278 465.874 60.2759 465.86 60.2745L465.843 60.2729L465.839 60.2725L465.837 60.2724L465.837 60.2724C465.837 60.2724 465.836 60.2723 465.816 60.5215L465.836 60.2723Z" stroke="black" stroke-opacity="0.2" stroke-width="0.5"/>
</svg>
