<svg width="42" height="42" viewBox="0 0 42 42" fill="none" xmlns="http://www.w3.org/2000/svg">
<path opacity="0.2" d="M41 1H1V41H41V1Z" stroke="#FA0339" stroke-miterlimit="10"/>
<path d="M12.327 22.3889L20.9978 8.42778L29.6729 22.3889L20.9978 26.3523L12.327 22.3889Z" fill="#FA0339" stroke="#FA0339" stroke-width="0.451467"/>
<path d="M20.9038 28.6527L20.9977 28.6957L21.0916 28.6527L29.1132 24.9839L20.9978 34.068L12.8865 24.984L20.9038 28.6527Z" fill="#FA0339" stroke="#FA0339" stroke-width="0.451467"/>
<path d="M20.772 28.5924V33.8151L12.8865 24.984L20.772 28.5924Z" fill="#FA0339" stroke="#FA0339" stroke-width="0.451467"/>
<path d="M20.772 8.79132V26.2491L12.327 22.3889L20.772 8.79132Z" fill="#FA0339" stroke="#FA0339" stroke-width="0.451467"/>
<path opacity="0.3" d="M12.6079 22.5171L21.0828 19.6022L29.3963 22.5151L20.9978 26.3521L12.6079 22.5171Z" fill="#FA0339" stroke="#FA0339" stroke-width="0.451467"/>
<path d="M37.2568 1H41.0004V4.74356" stroke="#FA0339" stroke-width="2" stroke-miterlimit="10"/>
<path d="M1 4.74356V1H4.74356" stroke="#FA0339" stroke-width="2" stroke-miterlimit="10"/>
<path d="M1 37.2559V40.9994H4.74356" stroke="#FA0339" stroke-width="2" stroke-miterlimit="10"/>
<path d="M41.0004 37.2559V40.9994H37.2568" stroke="#FA0339" stroke-width="2" stroke-miterlimit="10"/>
</svg>
