<svg width="311" height="39" viewBox="0 0 311 39" fill="none" xmlns="http://www.w3.org/2000/svg">
<path d="M66.5094 34.579C63.9045 37.1629 60.4173 38.4444 56.0478 38.4444C51.6782 38.4444 48.191 37.1629 45.5651 34.579C42.9392 31.9951 41.6367 28.697 41.6367 24.6845C41.6367 20.6722 42.9392 17.374 45.5651 14.8111C48.191 12.2482 51.6782 10.9668 56.0478 10.9668C60.4173 10.9668 63.9045 12.2482 66.5094 14.8111C69.1143 17.374 70.4168 20.6722 70.4168 24.6845C70.4168 28.697 69.1143 31.9951 66.5094 34.579ZM56.0478 31.4489C57.9384 31.4489 59.4509 30.8187 60.5643 29.5583C61.6777 28.2978 62.2239 26.6802 62.2239 24.6845C62.2239 22.6678 61.6777 21.0503 60.5643 19.7899C59.4509 18.5294 57.9384 17.8992 56.0478 17.8992C54.1151 17.8992 52.6026 18.5294 51.5102 19.7899C50.4178 21.0503 49.8716 22.6889 49.8716 24.6845C49.8716 26.7013 50.4178 28.3188 51.5102 29.5793C52.6026 30.8397 54.1151 31.4489 56.0478 31.4489Z" fill="#132239"/>
<path d="M74.1562 37.6452V0H82.3911V37.6452H74.1562Z" fill="#132239"/>
<path d="M113.612 37.6452H103.55L95.315 26.4062V37.6452H87.0801V0H95.315V22.5409L103.76 11.7431H113.444L103.13 24.0114L113.612 37.6452Z" fill="#132239"/>
<path d="M125.335 38.3377C121.575 38.3377 118.592 37.0563 116.407 34.5144C114.222 31.9725 113.13 28.6953 113.13 24.6829C113.13 20.7335 114.264 17.4774 116.512 14.8935C118.76 12.3096 121.743 11.0281 125.44 11.0281C127.142 11.0071 128.822 11.4063 130.335 12.2045C131.7 12.9398 132.835 14.0532 133.57 15.4397V11.7214H141.742V37.6445H133.57V33.9892C132.856 35.2706 131.742 36.321 130.272 37.1403C128.759 37.9386 127.058 38.3587 125.335 38.3377ZM127.709 31.5103C129.684 31.5103 131.196 30.8591 132.289 29.5777C133.381 28.2962 133.906 26.6576 133.906 24.6829C133.906 22.7503 133.36 21.1327 132.289 19.8512C131.217 18.5698 129.684 17.9185 127.709 17.9185C125.839 17.9185 124.348 18.5488 123.213 19.8092C122.079 21.0697 121.512 22.6872 121.512 24.6829C121.512 26.6996 122.079 28.3382 123.213 29.5987C124.348 30.8801 125.839 31.5103 127.709 31.5103Z" fill="#132239"/>
<path d="M157.594 38.4444C153.876 38.4444 150.893 37.6461 148.666 36.0285C146.44 34.4109 145.326 32.3522 145.326 29.8524H153.498C153.498 30.7557 153.897 31.4909 154.674 32.0581C155.473 32.6253 156.481 32.9194 157.742 32.9194C158.645 32.9194 159.359 32.7094 159.926 32.2682C160.472 31.8481 160.788 31.1968 160.767 30.5036C160.767 29.3272 160.136 28.5919 158.876 28.2978L152.532 26.6802C150.41 26.1341 148.813 25.2307 147.7 23.9283C146.587 22.6258 146.04 21.0503 146.04 19.2017C146.04 16.7648 147.049 14.7901 149.044 13.2566C151.04 11.7231 153.75 10.9668 157.111 10.9668C160.83 10.9668 163.708 11.681 165.682 13.1095C167.657 14.538 168.686 16.5337 168.686 19.0336H160.556C160.599 18.2143 160.241 17.4371 159.611 16.9329C158.981 16.4287 158.12 16.1766 157.006 16.1766C156.103 16.1766 155.389 16.3657 154.864 16.7648C154.338 17.1219 154.044 17.7102 154.065 18.3194C154.065 19.4748 154.8 20.231 156.271 20.6302L162.405 22.3107C164.443 22.8569 166.06 23.7392 167.216 24.9787C168.371 26.1971 169.001 27.8356 168.959 29.5162C168.959 32.2052 167.951 34.3689 165.913 35.9865C163.876 37.6041 161.103 38.4444 157.594 38.4444Z" fill="#132239"/>
<path d="M184.53 31.2373C185.475 31.2583 186.442 31.1953 187.387 31.0692V37.6235C185.581 37.9176 183.732 38.0647 181.904 38.0437C181.085 38.0437 180.245 38.0017 179.425 37.8756C178.585 37.7286 177.787 37.4975 177.01 37.1404C176.169 36.8042 175.413 36.2791 174.804 35.6068C174.237 34.9556 173.732 34.0313 173.333 32.8129C172.892 31.4264 172.682 29.9769 172.724 28.5063V0.146484H180.959V11.7215H186.82V18.2338H180.959V26.8468C180.959 28.6114 181.274 29.7668 181.862 30.376C182.45 30.9642 183.354 31.2583 184.53 31.2373Z" fill="#132239"/>
<path d="M202.345 38.3378C198.585 38.3378 195.602 37.0564 193.417 34.5145C191.232 31.9726 190.14 28.6954 190.14 24.683C190.14 20.7337 191.274 17.4775 193.522 14.8936C195.791 12.3097 198.753 11.0283 202.45 11.0283C204.152 10.9862 205.832 11.4064 207.345 12.2047C208.71 12.9399 209.845 14.0533 210.559 15.4398V11.7215H218.731V37.6446H210.559V33.9893C209.845 35.2707 208.731 36.3211 207.261 37.1404C205.748 37.9387 204.068 38.3588 202.345 38.3378ZM204.719 31.5104C206.693 31.5104 208.206 30.8592 209.298 29.5777C210.37 28.2963 210.916 26.6577 210.916 24.683C210.916 22.7504 210.37 21.1328 209.298 19.8513C208.227 18.5699 206.693 17.9187 204.719 17.9187C202.849 17.9187 201.358 18.5489 200.223 19.8093C199.089 21.0698 198.522 22.6873 198.522 24.683C198.522 26.6997 199.089 28.3383 200.223 29.5987C201.337 30.8802 202.849 31.5104 204.719 31.5104Z" fill="#132239"/>
<path d="M222.463 37.6448V11.7217H230.698V17.1416C231.118 15.2719 232.021 13.8434 233.366 12.8141C234.647 11.8057 236.223 11.2805 237.861 11.2805C238.576 11.2595 239.311 11.3436 240.004 11.4906V19.1163C239.185 19.0112 238.365 18.9692 237.525 18.9482C232.967 18.9482 230.698 21.8263 230.698 27.6033V37.6028L222.463 37.6448Z" fill="#132239"/>
<path d="M255.616 31.2373C256.561 31.2583 257.528 31.1953 258.473 31.0692V37.6235C256.666 37.9176 254.818 38.0647 252.99 38.0437C252.171 38.0437 251.331 38.0017 250.511 37.8756C249.671 37.7286 248.873 37.4975 248.095 37.1404C247.255 36.8042 246.499 36.2791 245.89 35.6068C245.322 34.9556 244.818 34.0313 244.419 32.8129C243.978 31.4264 243.768 29.9769 243.81 28.5063V0.146484H252.045V11.7215H257.906V18.2338H252.045V26.8468C252.045 28.6114 252.339 29.7668 252.948 30.376C253.557 30.9852 254.44 31.2583 255.616 31.2373Z" fill="#132239"/>
<path d="M288.749 23.3387C288.749 24.5361 288.665 25.7545 288.539 26.9309H269.401C269.464 28.6115 270.052 29.914 271.123 30.8593C272.195 31.8046 273.644 32.2668 275.472 32.2458C277.972 32.2458 279.589 31.4475 280.304 29.83H288.37C287.971 32.3718 286.585 34.4516 284.211 36.0481C281.837 37.6447 278.917 38.443 275.472 38.443C271.06 38.443 267.594 37.2245 265.031 34.7877C262.489 32.3508 261.208 28.9897 261.208 24.6832C261.208 20.4606 262.489 17.1205 265.031 14.6626C267.573 12.2048 270.955 10.9863 275.199 10.9863C279.211 10.9863 282.467 12.1417 284.988 14.4315C287.488 16.7003 288.749 19.6834 288.749 23.3387ZM269.401 21.8262H280.64C280.598 20.1035 280.115 18.7801 279.19 17.8557C278.266 16.9314 276.922 16.4692 275.157 16.4692C273.392 16.4692 272.006 16.9524 270.997 17.9398C269.968 18.9061 269.422 20.2085 269.401 21.8262Z" fill="#132239"/>
<path d="M292.486 37.6448V11.7217H300.721V17.1416C301.141 15.2719 302.045 13.8434 303.389 12.8141C304.671 11.8057 306.246 11.2805 307.885 11.2805C308.599 11.2595 309.334 11.3436 310.027 11.4906V19.1163C309.208 19.0112 308.389 18.9692 307.549 18.9482C302.99 18.9482 300.721 21.8263 300.721 27.6033V37.6028L292.486 37.6448Z" fill="#132239"/>
<path fill-rule="evenodd" clip-rule="evenodd" d="M36.4497 3.84533C33.9124 1.28178 30.6817 0 26.7842 0H10.7881V10.0711V15.4447C14.2768 16.5528 16.8046 19.818 16.8046 23.6736C16.8046 27.5293 14.2768 30.7944 10.7881 31.9026V37.6031H19.4859V27.1789H26.7972C30.6949 27.1789 33.9254 25.8972 36.4629 23.3335C39.0002 20.77 40.2821 17.5263 40.2821 13.5894C40.2821 9.65256 39.0002 6.40888 36.4497 3.84533ZM29.7662 18.2718C28.6415 19.4882 27.2027 20.103 25.437 20.103H19.4728V7.1021H25.437C27.1896 7.1021 28.6282 7.71681 29.7662 8.9332C30.8911 10.1496 31.4535 11.706 31.4535 13.6025C31.4665 15.499 30.8911 17.0555 29.7662 18.2718Z" fill="#132239"/>
<path d="M6.3022 30.0419C9.7828 30.0419 12.6044 27.2204 12.6044 23.7397C12.6044 20.2591 9.7828 17.4375 6.3022 17.4375C2.8216 17.4375 0 20.2591 0 23.7397C0 27.2204 2.8216 30.0419 6.3022 30.0419Z" fill="#FF3465"/>
</svg>
