<svg width="335" height="64" viewBox="0 0 335 64" fill="none" xmlns="http://www.w3.org/2000/svg">
<path d="M88.5588 47.7445H80.8877V16.1387H91.6886C99.1755 16.1387 103.41 19.9436 103.41 26.5103C103.41 33.1383 98.9914 37.4342 92.1795 37.4342H88.5588V47.7445ZM90.6453 31.1745C93.8365 31.1745 95.6775 29.5788 95.6775 26.8171C95.6775 24.2396 93.8978 22.4598 91.1976 22.4598H88.5588V31.1745H90.6453Z" fill="#132239"/>
<path d="M149.866 31.9727C149.866 40.9942 142.502 48.2973 133.358 48.2973C123.968 48.2973 116.481 41.1169 116.481 32.0341C116.481 27.4313 118.322 23.1967 121.759 19.9441C124.766 17.121 128.878 15.5254 133.542 15.5254C142.87 15.5254 149.866 22.583 149.866 31.9727ZM124.275 31.9727C124.275 37.1892 128.203 41.2396 133.235 41.2396C138.145 41.2396 142.133 37.1892 142.133 32.0954C142.133 26.6948 138.329 22.6444 133.296 22.6444C128.08 22.6444 124.275 26.5721 124.275 31.9727Z" fill="#132239"/>
<path d="M182.757 41.5461V47.7445H164.837V16.1387H172.508V41.5461H182.757Z" fill="#132239"/>
<path d="M208.167 47.7445H200.496V33.8134L190.125 16.1387H199.269L204.362 25.8352L209.395 16.1387H218.355L208.167 33.8134V47.7445Z" fill="#132239"/>
<path d="M261.496 29.702C261.557 30.3157 261.557 31.0521 261.557 31.359C261.557 36.5755 259.839 40.5646 256.341 43.8786C253.15 46.7016 249.038 48.3586 244.743 48.3586C235.414 48.3586 228.234 41.301 228.234 32.0341C228.234 22.6444 235.353 15.5254 244.62 15.5254C249.897 15.5254 254.684 17.7961 257.875 21.7852L252.045 26.2652C250.02 23.749 247.811 22.6444 244.804 22.6444C239.772 22.6444 235.905 26.6948 235.905 32.0954C235.905 37.3119 239.956 41.4238 245.111 41.4238C248.731 41.4238 251.739 39.3372 253.027 35.9618H245.295V29.702H261.496Z" fill="#132239"/>
<path d="M282.301 28.781H292.672V34.9794H282.301V41.4847H292.672V47.6831H274.63V16.1387H292.672V22.3371H282.301V28.781Z" fill="#132239"/>
<path d="M315.81 47.7445H308.139V16.1387H315.81L327.286 33.8748V16.1387H334.957V47.7445H327.286L315.81 29.7629V47.7445Z" fill="#132239"/>
<path d="M4.17306 12.8264L24.6088 1.10467C25.8975 0.368223 27.309 0 28.7819 0C30.2547 0 31.6662 0.368223 32.9549 1.10467L53.3906 12.8264C54.6794 13.5629 55.7226 14.6062 56.4591 15.895C57.1955 17.1838 57.5637 18.5953 57.5637 20.0682V43.5731C57.5637 45.046 57.1955 46.4575 56.4591 47.7463C55.7226 49.0351 54.6794 50.0784 53.3906 50.7534L32.9549 62.4752C31.6662 63.2117 30.2547 63.5799 28.7819 63.5799C27.309 63.5799 25.8975 63.2117 24.6088 62.4752L4.17306 50.6921C2.88432 49.9556 1.84106 48.9123 1.10463 47.6235C0.368211 46.3348 0 44.9232 0 43.4503V20.0068C0 18.5339 0.368211 17.1224 1.10463 15.8336C1.84106 14.6062 2.88432 13.5629 4.17306 12.8264ZM35.8392 38.9089V25.1619C35.8392 24.5482 35.9006 24.4868 35.3483 24.18L35.2255 24.1186C34.6732 23.8118 34.2436 23.3208 34.0595 22.7685C33.8754 22.1548 33.9368 21.5411 34.1823 20.9887C34.4891 20.4364 34.9801 20.0068 35.5324 19.8227C36.1461 19.6386 36.7598 19.6999 37.3734 19.9454L37.4962 20.0068C39.7055 21.1115 40.626 22.7685 40.626 25.2233V38.9703C40.626 40.1363 40.3191 41.3024 39.6441 42.3457C39.0304 43.389 38.1099 44.1868 37.0666 44.6777L22.645 51.7967C22.3382 51.9195 22.154 52.165 21.9699 52.4104C21.7858 52.6559 21.7245 52.9628 21.7245 53.2696V55.0494C21.7245 55.1107 21.7245 55.2335 21.7858 55.2949C21.8472 55.3562 21.9086 55.4176 21.9699 55.479L27.0022 58.3634C27.5545 58.6702 28.1682 58.8543 28.7819 58.8543C29.3955 58.8543 30.0092 58.6702 30.5615 58.3634L35.5938 55.479C35.6551 55.4176 35.7165 55.3562 35.7779 55.2949C35.8392 55.2335 35.8392 55.1721 35.8392 55.0494V53.2696C35.8392 52.6559 35.9006 52.4718 35.2869 52.2263L35.1642 52.165C34.6119 51.8581 34.1823 51.3671 33.9982 50.8148C33.8141 50.2011 33.8754 49.5874 34.1209 49.0351C34.3664 48.4827 34.9187 48.0531 35.471 47.869C36.0847 47.6849 36.6984 47.7463 37.3121 47.9918L37.4348 48.0531C39.3986 49.0351 40.3191 50.5079 40.5646 52.6559L50.9973 46.6416C51.5496 46.3348 51.9792 45.9052 52.286 45.3528C52.5928 44.8005 52.777 44.1868 52.777 43.5731V20.0068C52.777 19.3931 52.5928 18.7794 52.286 18.227C51.9792 17.6747 51.4882 17.2451 50.9973 16.9383L40.5646 10.924C40.5646 12.09 40.1964 13.1947 39.5827 14.238C38.969 15.2199 38.0485 16.0177 37.0052 16.5087L22.645 23.6277C22.3382 23.7504 22.154 23.9959 21.9699 24.2414C21.7858 24.4868 21.7245 24.7937 21.7245 25.1005V38.8475C21.7245 39.4613 21.7245 39.8295 22.2768 40.1363L22.3995 40.1977C22.9518 40.5046 23.3814 40.9955 23.5655 41.5479C23.7496 42.1616 23.7496 42.7753 23.4428 43.3276C23.1359 43.8799 22.645 44.3095 22.0927 44.4936C21.479 44.6778 20.8653 44.6164 20.2516 44.3709L20.1289 44.3095C17.9196 43.2049 16.9377 41.241 16.9377 38.8475V25.1619C16.9377 23.9959 17.2446 22.8298 17.9196 21.7865C18.5333 20.7432 19.4538 19.9454 20.4971 19.4545L34.8573 12.3355C35.1642 12.2127 35.3483 11.9673 35.5324 11.7218C35.7165 11.4763 35.7779 11.1694 35.7779 10.8626V8.53051C35.7779 8.46913 35.7779 8.34639 35.7165 8.28502C35.6551 8.22365 35.5938 8.16228 35.5324 8.10091L30.5002 5.2165C29.9479 4.90964 29.3342 4.72553 28.7205 4.72553C28.1068 4.72553 27.4931 4.90964 26.9408 5.2165L21.9086 8.10091C21.8472 8.16228 21.7858 8.22365 21.7245 8.28502C21.6631 8.34639 21.6631 8.40776 21.6631 8.53051V10.8626C21.6631 11.1694 21.7245 11.4763 21.9086 11.7218C22.0927 11.9673 22.3382 12.2127 22.5836 12.3355L22.7064 12.3968C23.8724 12.9492 24.0565 14.1766 23.4428 15.3426C22.8291 16.5087 20.8039 17.061 19.6379 16.5087L19.5152 16.4473C17.3673 15.404 16.9377 13.3788 16.8764 10.9853L6.4437 16.9996C5.89138 17.3065 5.4618 17.7361 5.15496 18.2884C4.90948 18.7794 4.72538 19.3931 4.72538 20.0068V43.5117C4.72538 44.1254 4.90948 44.7391 5.21633 45.2915C5.52317 45.8438 6.01412 46.2734 6.50507 46.5802L16.9991 52.5946C17.1218 51.5513 17.49 50.5079 18.1037 49.5874C18.7174 48.7282 19.5766 47.9918 20.4971 47.5008L34.8573 40.3818C35.1642 40.2591 35.3483 40.0136 35.5324 39.7681C35.7165 39.5226 35.8392 39.2158 35.8392 38.9089Z" fill="url(#paint0_linear_3752_6193)"/>
<defs>
<linearGradient id="paint0_linear_3752_6193" x1="50.6908" y1="53.7731" x2="6.87756" y2="9.73909" gradientUnits="userSpaceOnUse">
<stop stop-color="#9C61FD"/>
<stop offset="0.1" stop-color="#AD55D8"/>
<stop offset="0.28" stop-color="#C644A2"/>
<stop offset="0.44" stop-color="#DA3675"/>
<stop offset="0.6" stop-color="#EA2B52"/>
<stop offset="0.75" stop-color="#F62339"/>
<stop offset="0.89" stop-color="#FD1F2A"/>
<stop offset="1" stop-color="#FF1D25"/>
</linearGradient>
</defs>
</svg>
