<svg width="399" height="392" viewBox="0 0 399 392" fill="none" xmlns="http://www.w3.org/2000/svg">
<path fill-rule="evenodd" clip-rule="evenodd" d="M15.2154 0L0 14.9675V0H15.2154ZM95.7811 0L0 94.2206V58.6727L59.6445 0H95.7811ZM0 173.399L176.271 0H140.21L0 137.926V173.399ZM256.76 0L0 252.577V217.104L220.7 0H256.76ZM0 331.755L337.326 0H301.189L0 296.282V331.755ZM398.568 0V18.9339L19.3236 392H0V375.46L381.755 0H398.568ZM398.565 98.1117V62.6387L63.75 391.999H99.8866L398.565 98.1117ZM398.564 141.817V177.365L180.375 392H144.314L398.564 141.817ZM398.577 256.544V221.071L224.816 392H260.877L398.577 256.544ZM398.577 300.248V335.796L341.367 391.999H305.307L398.577 300.248ZM398.566 391.999V379.426L385.785 391.999H398.566Z" fill="#ECEFF3"/>
</svg>
