<svg width="1920" height="176" viewBox="0 0 1920 176" fill="none" xmlns="http://www.w3.org/2000/svg">
<path d="M306.597 1H1487.22L2778.81 296.61H-985L306.597 1Z" stroke="#95A2B4" stroke-width="0.25" stroke-miterlimit="10" stroke-linejoin="round"/>
<path d="M-449.316 174.043H2243.12" stroke="#95A2B4" stroke-width="0.25" stroke-miterlimit="10" stroke-linejoin="round"/>
<path d="M-281.664 135.709H2075.64" stroke="#95A2B4" stroke-width="0.25" stroke-miterlimit="10" stroke-linejoin="round"/>
<path d="M-151.324 105.857H1945.14" stroke="#95A2B4" stroke-width="0.25" stroke-miterlimit="10" stroke-linejoin="round"/>
<path d="M-46.4883 81.8242H1840.45" stroke="#95A2B4" stroke-width="0.25" stroke-miterlimit="10" stroke-linejoin="round"/>
<path d="M38.9922 62.2832H1754.98" stroke="#95A2B4" stroke-width="0.25" stroke-miterlimit="10" stroke-linejoin="round"/>
<path d="M110.453 45.9863H1683.51" stroke="#95A2B4" stroke-width="0.25" stroke-miterlimit="10" stroke-linejoin="round"/>
<path d="M170.746 32.1816H1623.22" stroke="#95A2B4" stroke-width="0.25" stroke-miterlimit="10" stroke-linejoin="round"/>
<path d="M222.383 20.291H1571.44" stroke="#95A2B4" stroke-width="0.25" stroke-miterlimit="10" stroke-linejoin="round"/>
<path d="M267.402 9.98047H1526.41" stroke="#95A2B4" stroke-width="0.25" stroke-miterlimit="10" stroke-linejoin="round"/>
<path d="M1380.01 1L2437.06 296.61" stroke="#95A2B4" stroke-width="0.25" stroke-miterlimit="10" stroke-linejoin="round"/>
<path d="M1272.5 1L2094.21 296.61" stroke="#95A2B4" stroke-width="0.25" stroke-miterlimit="10" stroke-linejoin="round"/>
<path d="M1165.3 1L1752.46 296.61" stroke="#95A2B4" stroke-width="0.25" stroke-miterlimit="10" stroke-linejoin="round"/>
<path d="M1058.1 1L1410.55 296.61" stroke="#95A2B4" stroke-width="0.25" stroke-miterlimit="10" stroke-linejoin="round"/>
<path d="M950.586 1L1067.86 296.61" stroke="#95A2B4" stroke-width="0.25" stroke-miterlimit="10" stroke-linejoin="round"/>
<path d="M843.385 1L725.953 296.61" stroke="#95A2B4" stroke-width="0.25" stroke-miterlimit="10" stroke-linejoin="round"/>
<path d="M735.869 1L383.258 296.61" stroke="#95A2B4" stroke-width="0.25" stroke-miterlimit="10" stroke-linejoin="round"/>
<path d="M628.515 1L41.5117 296.61" stroke="#95A2B4" stroke-width="0.25" stroke-miterlimit="10" stroke-linejoin="round"/>
<path d="M521.312 1L-300.398 296.61" stroke="#95A2B4" stroke-width="0.25" stroke-miterlimit="10" stroke-linejoin="round"/>
<path d="M413.8 1L-643.09 296.61" stroke="#95A2B4" stroke-width="0.25" stroke-miterlimit="10" stroke-linejoin="round"/>
</svg>
