<svg width="20" height="22" viewBox="0 0 20 22" fill="none" xmlns="http://www.w3.org/2000/svg">
<path d="M19.6959 19.7002L14.7656 14.4583C16.0332 12.9178 16.7278 10.9795 16.7278 8.96173C16.7278 4.24734 12.9757 0.411743 8.36391 0.411743C3.75212 0.411743 0 4.24734 0 8.96173C0 13.6761 3.75212 17.5117 8.36391 17.5117C10.0952 17.5117 11.7451 16.9779 13.1557 15.9645L18.1235 21.2462C18.3311 21.4667 18.6104 21.5882 18.9097 21.5882C19.193 21.5882 19.4617 21.4778 19.6657 21.2771C20.0992 20.8507 20.113 20.1436 19.6959 19.7002ZM8.36391 2.64218C11.7727 2.64218 14.5459 5.47706 14.5459 8.96173C14.5459 12.4464 11.7727 15.2813 8.36391 15.2813C4.95507 15.2813 2.18189 12.4464 2.18189 8.96173C2.18189 5.47706 4.95507 2.64218 8.36391 2.64218Z" fill="#333333"/>
</svg>
