<svg width="220" height="216" viewBox="0 0 220 216" fill="none" xmlns="http://www.w3.org/2000/svg">
    <path d="M219.225 107.192C219.225 49.2185 175.581 2.02835 121.044 0.0827897V0H98.2209V1.96625C51.3576 11.5078 15.9551 54.9723 15.9551 107.192C15.9551 159.412 51.3576 202.876 98.2405 212.418V215.108H122.437C176.326 212.459 219.225 164.689 219.225 107.192Z" fill="#F9AE40"/>
    <path d="M161.314 10.4522C149.049 4.28437 135.429 0.600225 121.045 0.0827897V0H98.2214V1.96625C89.6455 3.70484 81.4621 6.60248 73.8086 10.4522H161.314Z" fill="#F98640"/>
    <path d="M190.923 33.0729C187.156 28.9334 183.093 25.1044 178.737 21.6272H56.4173C52.0606 25.0837 47.9984 28.9334 44.2305 33.0729H190.923Z" fill="#F98640"/>
    <path d="M35.3814 44.2283C23.175 61.9039 15.9336 83.6362 15.9336 107.19C15.9336 125.817 20.4668 143.307 28.3951 158.561C86.8368 161.065 145.396 160.527 203.759 164.17C213.532 147.57 219.204 128.032 219.204 107.19C219.204 83.6362 211.962 61.9039 199.756 44.2283H35.3814V44.2283Z" fill="#F98640"/>
    <path d="M35.2627 169.99C39.5016 176.158 44.3488 181.85 49.7063 186.921H185.979C189.805 183.216 193.338 179.201 196.596 174.916C142.903 171.874 89.0338 172.101 35.2627 169.99Z" fill="#F98640"/>
    <path d="M63.7764 198.094C74.1577 204.945 85.7754 209.891 98.2369 212.416V215.107H122.434C140.783 214.196 157.856 208.049 172.398 198.073H63.7764V198.094Z" fill="#F98640"/>
    <path d="M204.013 107.192C204.013 166.407 158.504 214.384 102.378 214.384C46.2523 214.384 0.743164 166.387 0.743164 107.192C0.743164 47.9973 46.2327 0 102.378 0C158.504 0 204.013 47.9973 204.013 107.192Z" fill="#F7EB32"/>
    <path d="M192.26 107.193C192.26 159.558 152.01 201.987 102.38 201.987C52.7498 201.987 12.5 159.537 12.5 107.193C12.5 54.8493 52.7498 12.3989 102.38 12.3989C152.01 12.3989 192.26 54.8493 192.26 107.193Z" fill="#F98640"/>
    <path d="M183.962 107.193C183.962 154.715 147.441 193.233 102.363 193.233C57.3053 193.233 20.7842 154.715 20.7842 107.193C20.7842 59.6722 57.3053 21.1543 102.363 21.1543C147.441 21.1543 183.962 59.6722 183.962 107.193Z" fill="#F7CE32"/>
    <path opacity="0.4" d="M153.401 40.0696C162.213 53.8127 167.374 70.3913 167.374 88.2325C167.374 135.754 130.853 174.272 85.7951 174.272C66.4846 174.272 48.7441 167.172 34.7715 155.354C49.431 178.204 74.2559 193.23 102.397 193.23C147.455 193.23 183.996 154.713 183.996 107.191C183.957 80.0363 172.025 55.841 153.401 40.0696Z" fill="#F7CE32"/>
    <path d="M142.347 113.75L103.216 47.3323L64.1045 113.75L103.216 132.606L142.347 113.75Z" fill="#F98640"/>
    <path d="M103.217 141.071L64.1055 122.195L103.217 168.391L142.348 122.195L103.217 141.071Z" fill="#F98640"/>
    <path d="M64.1055 122.195L103.217 168.391V141.071L64.1055 122.195Z" fill="#F7EB32"/>
    <path d="M64.1045 113.75L103.216 132.606V47.3323L64.1045 113.75Z" fill="#F7EB32"/>
    <path opacity="0.3" d="M142.348 113.75L103.59 99.427L64.1055 113.75L103.217 132.605L142.348 113.75Z" fill="#BC1E2D"/>
</svg>
