<svg width="1920" height="920" viewBox="0 0 1920 920" fill="none" xmlns="http://www.w3.org/2000/svg">
<g clip-path="url(#clip0_2913_4742)">
<rect width="1920" height="920" fill="white"/>
<rect y="-1" width="1920" height="921" fill="#040404"/>
<path opacity="0.05" d="M959.247 -1.46094V1078.49H1919.8V-1.46094H959.247ZM1745.24 -0.768384H1831.88V96.6219H1745.24V-0.768384ZM1831.9 194.762H1745.27V97.3433H1831.9V194.762ZM1831.9 292.874H1745.27V195.455H1831.9V292.874ZM1831.9 390.986H1745.27V293.596H1831.9V390.986ZM1831.9 489.098H1745.27V391.707H1831.9V489.098ZM1831.9 587.209H1745.27V489.819H1831.9V587.209ZM1831.9 685.321H1745.27V587.931H1831.9V685.321ZM1831.9 783.433H1745.27V686.042H1831.9V783.433ZM1831.9 881.544H1745.27V784.154H1831.9V881.544ZM1831.9 979.656H1745.27V882.266H1831.9V979.656ZM1047.12 882.237H1133.75V979.627H1047.12V882.237ZM1047.12 784.125H1133.75V881.515H1047.12V784.125ZM1047.12 686.013H1133.75V783.404H1047.12V686.013ZM1047.12 587.902H1133.75V685.292H1047.12V587.902ZM1047.12 489.79H1133.75V587.18H1047.12V489.79ZM1047.12 391.678H1133.75V489.069H1047.12V391.678ZM1047.12 293.567H1133.75V390.957H1047.12V293.567ZM1047.12 195.455H1133.75V292.845H1047.12V195.455ZM1047.12 97.3433H1133.75V194.734H1047.12V97.3433ZM1744.64 194.762H1658V97.3433H1744.64V194.762ZM1744.64 292.874H1658V195.455H1744.64V292.874ZM1744.64 390.986H1658V293.596H1744.64V390.986ZM1744.64 489.098H1658V391.707H1744.64V489.098ZM1744.64 587.209H1658V489.819H1744.64V587.209ZM1744.64 685.321H1658V587.931H1744.64V685.321ZM1744.64 783.433H1658V686.042H1744.64V783.433ZM1744.64 881.544H1658V784.154H1744.64V881.544ZM1134.39 784.125H1221.02V881.515H1134.39V784.125ZM1134.39 686.013H1221.02V783.404H1134.39V686.013ZM1134.39 587.902H1221.02V685.292H1134.39V587.902ZM1134.39 489.79H1221.02V587.18H1134.39V489.79ZM1134.39 391.678H1221.02V489.069H1134.39V391.678ZM1134.39 293.567H1221.02V390.957H1134.39V293.567ZM1134.39 195.455H1221.02V292.845H1134.39V195.455ZM1657.37 292.874H1570.74V195.455H1657.37V292.874ZM1657.37 390.986H1570.74V293.596H1657.37V390.986ZM1657.37 489.098H1570.74V391.707H1657.37V489.098ZM1657.37 587.209H1570.74V489.819H1657.37V587.209ZM1657.37 685.321H1570.74V587.931H1657.37V685.321ZM1657.37 783.433H1570.74V686.042H1657.37V783.433ZM1221.65 686.013H1308.28V783.404H1221.65V686.013ZM1221.65 587.902H1308.28V685.292H1221.65V587.902ZM1221.65 489.79H1308.28V587.18H1221.65V489.79ZM1221.65 391.678H1308.28V489.069H1221.65V391.678ZM1221.65 293.567H1308.28V390.957H1221.65V293.567ZM1570.11 390.986H1483.47V293.596H1570.11V390.986ZM1570.11 489.098H1483.47V391.707H1570.11V489.098ZM1570.11 587.209H1483.47V489.819H1570.11V587.209ZM1570.11 685.321H1483.47V587.931H1570.11V685.321ZM1308.92 587.902H1395.55V685.292H1308.92V587.902ZM1308.92 489.79H1395.55V587.18H1308.92V489.79ZM1308.92 391.678H1395.55V489.069H1308.92V391.678ZM1482.84 489.098H1396.21V391.707H1482.84V489.098ZM1482.84 587.209H1396.21V489.819H1482.84V587.209ZM1396.18 587.902H1482.81V685.292H1396.18V587.902ZM1482.84 390.986H1396.21V293.596H1482.84V390.986ZM1395.57 390.986H1308.94V293.596H1395.57V390.986ZM1308.92 686.013H1395.55V783.404H1308.92V686.013ZM1396.18 686.013H1482.81V783.404H1396.18V686.013ZM1483.45 686.013H1570.08V783.404H1483.45V686.013ZM1570.11 292.874H1483.47V195.455H1570.11V292.874ZM1482.84 292.874H1396.21V195.455H1482.84V292.874ZM1395.57 292.874H1308.94V195.455H1395.57V292.874ZM1308.31 292.874H1221.68V195.455H1308.31V292.874ZM1221.65 784.125H1308.28V881.515H1221.65V784.125ZM1308.92 784.125H1395.55V881.515H1308.92V784.125ZM1396.18 784.125H1482.81V881.515H1396.18V784.125ZM1483.45 784.125H1570.08V881.515H1483.45V784.125ZM1570.71 784.125H1657.35V881.515H1570.71V784.125ZM1657.37 194.762H1570.74V97.3433H1657.37V194.762ZM1570.11 194.762H1483.47V97.3433H1570.11V194.762ZM1482.84 194.762H1396.21V97.3433H1482.84V194.762ZM1395.57 194.762H1308.94V97.3433H1395.57V194.762ZM1308.31 194.762H1221.68V97.3433H1308.31V194.762ZM1221.04 194.762H1134.39V97.3433H1221.02V194.762H1221.04ZM1134.39 882.237H1221.02V979.627H1134.39V882.237ZM1221.65 882.237H1308.28V979.627H1221.65V882.237ZM1308.92 882.237H1395.55V979.627H1308.92V882.237ZM1396.18 882.237H1482.81V979.627H1396.18V882.237ZM1483.45 882.237H1570.08V979.627H1483.45V882.237ZM1570.71 882.237H1657.35V979.627H1570.71V882.237ZM1657.98 882.237H1744.61V979.627H1657.98V882.237ZM1657.98 -0.768384H1744.61V96.6219H1657.98V-0.768384ZM1570.71 -0.768384H1657.35V96.6219H1570.71V-0.768384ZM1483.45 -0.768384H1570.08V96.6219H1483.45V-0.768384ZM1396.18 -0.768384H1482.81V96.6219H1396.18V-0.768384ZM1308.92 -0.768384H1395.55V96.6219H1308.92V-0.768384ZM1221.65 -0.768384H1308.28V96.6219H1221.65V-0.768384ZM1134.39 -0.768384H1221.02V96.6219H1134.39V-0.768384ZM1047.12 -0.768384H1133.75V96.6219H1047.12V-0.768384ZM959.854 -0.768384H1046.49V96.6219H959.854V-0.768384ZM959.854 97.3433H1046.49V194.734H959.854V97.3433ZM959.854 195.455H1046.49V292.845H959.854V195.455ZM959.854 293.567H1046.49V390.957H959.854V293.567ZM959.854 391.678H1046.49V489.069H959.854V391.678ZM959.854 489.79H1046.49V587.18H959.854V489.79ZM959.854 587.902H1046.49V685.292H959.854V587.902ZM959.854 686.013H1046.49V783.404H959.854V686.013ZM959.854 784.125H1046.49V881.515H959.854V784.125ZM959.854 882.237H1046.49V979.627H959.854V882.237ZM1046.51 1077.77H959.854V980.377H1046.49V1077.77H1046.51ZM1133.78 1077.77H1047.12V980.377H1133.75V1077.77H1133.78ZM1221.04 1077.77H1134.39V980.377H1221.02V1077.77H1221.04ZM1308.31 1077.77H1221.68V980.377H1308.31V1077.77ZM1395.57 1077.77H1308.94V980.377H1395.57V1077.77ZM1482.84 1077.77H1396.21V980.377H1482.84V1077.77ZM1570.11 1077.77H1483.47V980.377H1570.11V1077.77ZM1657.37 1077.77H1570.74V980.377H1657.37V1077.77ZM1744.64 1077.77H1658V980.377H1744.64V1077.77ZM1831.9 1077.77H1745.27V980.377H1831.9V1077.77ZM1919.17 1077.77H1832.53V980.377H1919.17V1077.77ZM1919.17 979.656H1832.53V882.266H1919.17V979.656ZM1919.17 881.544H1832.53V784.154H1919.17V881.544ZM1919.17 783.433H1832.53V686.042H1919.17V783.433ZM1919.17 685.321H1832.53V587.931H1919.17V685.321ZM1919.17 587.209H1832.53V489.819H1919.17V587.209ZM1919.17 489.098H1832.53V391.707H1919.17V489.098ZM1919.17 390.986H1832.53V293.596H1919.17V390.986ZM1919.17 292.874H1832.53V195.455H1919.17V292.874ZM1919.17 194.762H1832.53V97.3433H1919.17V194.762ZM1832.51 96.6508V-0.768384H1919.14V96.6219H1832.51V96.6508Z" fill="#DEE3EB"/>
<path opacity="0.05" d="M1311.14 1078.11L1308.61 1081L1306.08 1078.11L1308.61 1075.23L1311.14 1078.11ZM1221.35 -4L1218.82 -1.11436L1221.35 1.77128L1223.88 -1.11436L1221.35 -4ZM1134.08 -4L1131.55 -1.11436L1134.08 1.77128L1136.61 -1.11436L1134.08 -4ZM1221.35 94.1117L1218.82 96.9973L1221.35 99.883L1223.88 96.9973L1221.35 94.1117ZM1221.35 192.223L1218.82 195.109L1221.35 197.995L1223.88 195.109L1221.35 192.223ZM1308.61 780.894L1306.08 783.779L1308.61 786.665L1311.14 783.779L1308.61 780.894ZM1308.61 879.005L1306.08 881.891L1308.61 884.777L1311.14 881.891L1308.61 879.005ZM1221.35 977.117L1218.82 980.003L1221.35 982.888L1223.88 980.003L1221.35 977.117ZM1308.61 682.782L1306.08 685.668L1308.61 688.553L1311.14 685.668L1308.61 682.782ZM1221.35 879.005L1218.82 881.891L1221.35 884.777L1223.88 881.891L1221.35 879.005ZM1221.35 1075.23L1218.82 1078.11L1221.35 1081L1223.88 1078.11L1221.35 1075.23ZM1221.35 780.894L1218.82 783.779L1221.35 786.665L1223.88 783.779L1221.35 780.894ZM1221.35 388.447L1218.82 391.332L1221.35 394.218L1223.88 391.332L1221.35 388.447ZM1221.35 486.559L1218.82 489.444L1221.35 492.33L1223.88 489.444L1221.35 486.559ZM1221.35 584.67L1218.82 587.556L1221.35 590.441L1223.88 587.556L1221.35 584.67ZM1221.35 682.782L1218.82 685.668L1221.35 688.553L1223.88 685.668L1221.35 682.782ZM1221.35 290.335L1218.82 293.221L1221.35 296.106L1223.88 293.221L1221.35 290.335ZM1395.88 486.559L1393.35 489.444L1395.88 492.33L1398.41 489.444L1395.88 486.559ZM1395.88 584.67L1393.35 587.556L1395.88 590.441L1398.41 587.556L1395.88 584.67ZM1395.88 682.782L1393.35 685.668L1395.88 688.553L1398.41 685.668L1395.88 682.782ZM1395.88 879.005L1393.35 881.891L1395.88 884.777L1398.41 881.891L1395.88 879.005ZM1395.88 780.894L1393.35 783.779L1395.88 786.665L1398.41 783.779L1395.88 780.894ZM1395.88 192.223L1393.35 195.109L1395.88 197.995L1398.41 195.109L1395.88 192.223ZM1395.88 388.447L1393.35 391.332L1395.88 394.218L1398.41 391.332L1395.88 388.447ZM1395.88 290.335L1393.35 293.221L1395.88 296.106L1398.41 293.221L1395.88 290.335ZM1395.88 1075.23L1393.35 1078.11L1395.88 1081L1398.41 1078.11L1395.88 1075.23ZM1308.61 290.335L1306.08 293.221L1308.61 296.106L1311.14 293.221L1308.61 290.335ZM1308.61 192.223L1306.08 195.109L1308.61 197.995L1311.14 195.109L1308.61 192.223ZM1308.61 388.447L1306.08 391.332L1308.61 394.218L1311.14 391.332L1308.61 388.447ZM1308.61 486.559L1306.08 489.444L1308.61 492.33L1311.14 489.444L1308.61 486.559ZM1308.61 -4L1306.08 -1.11436L1308.61 1.77128L1311.14 -1.11436L1308.61 -4ZM1308.61 584.67L1306.08 587.556L1308.61 590.441L1311.14 587.556L1308.61 584.67ZM1395.88 977.117L1393.35 980.003L1395.88 982.888L1398.41 980.003L1395.88 977.117ZM959.55 388.447L957.021 391.332L959.55 394.218L962.079 391.332L959.55 388.447ZM1046.82 1075.23L1044.29 1078.11L1046.82 1081L1049.34 1078.11L1046.82 1075.23ZM959.55 290.335L957.021 293.221L959.55 296.106L962.079 293.221L959.55 290.335ZM959.55 94.1117L957.021 96.9973L959.55 99.883L962.079 96.9973L959.55 94.1117ZM1134.08 94.1117L1131.55 96.9973L1134.08 99.883L1136.61 96.9973L1134.08 94.1117ZM959.55 -4L957.021 -1.11436L959.55 1.77128L962.079 -1.11436L959.55 -4ZM1046.82 780.894L1044.29 783.779L1046.82 786.665L1049.34 783.779L1046.82 780.894ZM1046.82 879.005L1044.29 881.891L1046.82 884.777L1049.34 881.891L1046.82 879.005ZM1919.47 1.77128L1922 -1.11436L1919.47 -4L1916.94 -1.11436L1919.47 1.77128ZM959.55 1075.23L957.021 1078.11L959.55 1081L962.079 1078.11L959.55 1075.23ZM959.55 977.117L957.021 980.003L959.55 982.888L962.079 980.003L959.55 977.117ZM959.55 780.894L957.021 783.779L959.55 786.665L962.079 783.779L959.55 780.894ZM959.55 682.782L957.021 685.668L959.55 688.553L962.079 685.668L959.55 682.782ZM959.55 486.559L957.021 489.444L959.55 492.33L962.079 489.444L959.55 486.559ZM959.55 584.67L957.021 587.556L959.55 590.441L962.079 587.556L959.55 584.67ZM1395.88 94.1117L1393.35 96.9973L1395.88 99.883L1398.41 96.9973L1395.88 94.1117ZM959.55 192.223L957.021 195.109L959.55 197.995L962.079 195.109L959.55 192.223ZM1134.08 879.005L1131.55 881.891L1134.08 884.777L1136.61 881.891L1134.08 879.005ZM1134.08 584.67L1131.55 587.556L1134.08 590.441L1136.61 587.556L1134.08 584.67ZM1134.08 682.782L1131.55 685.668L1134.08 688.553L1136.61 685.668L1134.08 682.782ZM1134.08 780.894L1131.55 783.779L1134.08 786.665L1136.61 783.779L1134.08 780.894ZM1134.08 486.559L1131.55 489.444L1134.08 492.33L1136.61 489.444L1134.08 486.559ZM1046.82 584.67L1044.29 587.556L1046.82 590.441L1049.34 587.556L1046.82 584.67ZM1134.08 290.335L1131.55 293.221L1134.08 296.106L1136.61 293.221L1134.08 290.335ZM1134.08 388.447L1131.55 391.332L1134.08 394.218L1136.61 391.332L1134.08 388.447ZM1134.08 192.223L1131.55 195.109L1134.08 197.995L1136.61 195.109L1134.08 192.223ZM1046.82 192.223L1044.29 195.109L1046.82 197.995L1049.34 195.109L1046.82 192.223ZM1134.08 977.117L1131.55 980.003L1134.08 982.888L1136.61 980.003L1134.08 977.117ZM1046.82 486.559L1044.29 489.444L1046.82 492.33L1049.34 489.444L1046.82 486.559ZM1046.82 290.335L1044.29 293.221L1046.82 296.106L1049.34 293.221L1046.82 290.335ZM1134.08 1075.23L1131.55 1078.11L1134.08 1081L1136.61 1078.11L1134.08 1075.23ZM1046.82 -4L1044.29 -1.11436L1046.82 1.77128L1049.34 -1.11436L1046.82 -4ZM959.55 879.005L957.021 881.891L959.55 884.777L962.079 881.891L959.55 879.005ZM1744.94 94.1117L1742.41 96.9973L1744.94 99.883L1747.47 96.9973L1744.94 94.1117ZM1744.94 290.335L1742.41 293.221L1744.94 296.106L1747.47 293.221L1744.94 290.335ZM1832.2 1075.23L1829.68 1078.11L1832.2 1081L1834.73 1078.11L1832.2 1075.23ZM1744.94 192.223L1742.41 195.109L1744.94 197.995L1747.47 195.109L1744.94 192.223ZM1744.94 -4L1742.41 -1.11436L1744.94 1.77128L1747.47 -1.11436L1744.94 -4ZM1832.2 584.67L1829.68 587.556L1832.2 590.441L1834.73 587.556L1832.2 584.67ZM1657.67 -4L1655.14 -1.11436L1657.67 1.77128L1660.2 -1.11436L1657.67 -4ZM1832.2 780.894L1829.68 783.779L1832.2 786.665L1834.73 783.779L1832.2 780.894ZM1744.94 388.447L1742.41 391.332L1744.94 394.218L1747.47 391.332L1744.94 388.447ZM1744.94 780.894L1742.41 783.779L1744.94 786.665L1747.47 783.779L1744.94 780.894ZM1744.94 879.005L1742.41 881.891L1744.94 884.777L1747.47 881.891L1744.94 879.005ZM1744.94 1075.23L1742.41 1078.11L1744.94 1081L1747.47 1078.11L1744.94 1075.23ZM1744.94 977.117L1742.41 980.003L1744.94 982.888L1747.47 980.003L1744.94 977.117ZM1744.94 486.559L1742.41 489.444L1744.94 492.33L1747.47 489.444L1744.94 486.559ZM1744.94 584.67L1742.41 587.556L1744.94 590.441L1747.47 587.556L1744.94 584.67ZM1744.94 682.782L1742.41 685.668L1744.94 688.553L1747.47 685.668L1744.94 682.782ZM1832.2 879.005L1829.68 881.891L1832.2 884.777L1834.73 881.891L1832.2 879.005ZM1919.47 584.67L1916.94 587.556L1919.47 590.441L1922 587.556L1919.47 584.67ZM1919.47 486.559L1916.94 489.444L1919.47 492.33L1922 489.444L1919.47 486.559ZM1919.47 682.782L1916.94 685.668L1919.47 688.553L1922 685.668L1919.47 682.782ZM1919.47 388.447L1916.94 391.332L1919.47 394.218L1922 391.332L1919.47 388.447ZM1919.47 192.223L1916.94 195.109L1919.47 197.995L1922 195.109L1919.47 192.223ZM1919.47 290.335L1916.94 293.221L1919.47 296.106L1922 293.221L1919.47 290.335ZM1919.47 94.1117L1916.94 96.9973L1919.47 99.883L1922 96.9973L1919.47 94.1117ZM1919.47 780.894L1916.94 783.779L1919.47 786.665L1922 783.779L1919.47 780.894ZM1832.2 486.559L1829.68 489.444L1832.2 492.33L1834.73 489.444L1832.2 486.559ZM1832.2 192.223L1829.68 195.109L1832.2 197.995L1834.73 195.109L1832.2 192.223ZM1832.2 290.335L1829.68 293.221L1832.2 296.106L1834.73 293.221L1832.2 290.335ZM1919.47 879.005L1916.94 881.891L1919.47 884.777L1922 881.891L1919.47 879.005ZM1919.47 977.117L1916.94 980.003L1919.47 982.888L1922 980.003L1919.47 977.117ZM1919.47 1075.23L1916.94 1078.11L1919.47 1081L1922 1078.11L1919.47 1075.23ZM1832.2 -4L1829.68 -1.11436L1832.2 1.77128L1834.73 -1.11436L1832.2 -4ZM1483.14 780.894L1480.61 783.779L1483.14 786.665L1485.67 783.779L1483.14 780.894ZM1483.14 290.335L1480.61 293.221L1483.14 296.106L1485.67 293.221L1483.14 290.335ZM1483.14 -4L1480.61 -1.11436L1483.14 1.77128L1485.67 -1.11436L1483.14 -4ZM1483.14 192.223L1480.61 195.109L1483.14 197.995L1485.67 195.109L1483.14 192.223ZM1570.41 682.782L1567.88 685.668L1570.41 688.553L1572.94 685.668L1570.41 682.782ZM1483.14 94.1117L1480.61 96.9973L1483.14 99.883L1485.67 96.9973L1483.14 94.1117ZM1570.41 780.894L1567.88 783.779L1570.41 786.665L1572.94 783.779L1570.41 780.894ZM1570.41 879.005L1567.88 881.891L1570.41 884.777L1572.94 881.891L1570.41 879.005ZM1570.41 1075.23L1567.88 1078.11L1570.41 1081L1572.94 1078.11L1570.41 1075.23ZM1483.14 388.447L1480.61 391.332L1483.14 394.218L1485.67 391.332L1483.14 388.447ZM1395.88 -4L1393.35 -1.11436L1395.88 1.77128L1398.41 -1.11436L1395.88 -4ZM1483.14 977.117L1480.61 980.003L1483.14 982.888L1485.67 980.003L1483.14 977.117ZM1483.14 1075.23L1480.61 1078.11L1483.14 1081L1485.67 1078.11L1483.14 1075.23ZM1483.14 879.005L1480.61 881.891L1483.14 884.777L1485.67 881.891L1483.14 879.005ZM1483.14 682.782L1480.61 685.668L1483.14 688.553L1485.67 685.668L1483.14 682.782ZM1483.14 486.559L1480.61 489.444L1483.14 492.33L1485.67 489.444L1483.14 486.559ZM1483.14 584.67L1480.61 587.556L1483.14 590.441L1485.67 587.556L1483.14 584.67ZM1657.67 1075.23L1655.14 1078.11L1657.67 1081L1660.2 1078.11L1657.67 1075.23ZM1657.67 486.559L1655.14 489.444L1657.67 492.33L1660.2 489.444L1657.67 486.559ZM1657.67 584.67L1655.14 587.556L1657.67 590.441L1660.2 587.556L1657.67 584.67ZM1657.67 682.782L1655.14 685.668L1657.67 688.553L1660.2 685.668L1657.67 682.782ZM1657.67 780.894L1655.14 783.779L1657.67 786.665L1660.2 783.779L1657.67 780.894ZM1657.67 192.223L1655.14 195.109L1657.67 197.995L1660.2 195.109L1657.67 192.223ZM1657.67 879.005L1655.14 881.891L1657.67 884.777L1660.2 881.891L1657.67 879.005ZM1657.67 290.335L1655.14 293.221L1657.67 296.106L1660.2 293.221L1657.67 290.335ZM1657.67 388.447L1655.14 391.332L1657.67 394.218L1660.2 391.332L1657.67 388.447ZM1570.41 486.559L1567.88 489.444L1570.41 492.33L1572.94 489.444L1570.41 486.559ZM1570.41 290.335L1567.88 293.221L1570.41 296.106L1572.94 293.221L1570.41 290.335ZM1570.41 192.223L1567.88 195.109L1570.41 197.995L1572.94 195.109L1570.41 192.223ZM1570.41 388.447L1567.88 391.332L1570.41 394.218L1572.94 391.332L1570.41 388.447ZM1570.41 584.67L1567.88 587.556L1570.41 590.441L1572.94 587.556L1570.41 584.67ZM1570.41 -4L1567.88 -1.11436L1570.41 1.77128L1572.94 -1.11436L1570.41 -4ZM1657.67 94.1117L1655.14 96.9973L1657.67 99.883L1660.2 96.9973L1657.67 94.1117ZM1657.67 977.117L1655.14 980.003L1657.67 982.888L1660.2 980.003L1657.67 977.117Z" fill="#DEE3EB"/>
<g opacity="0.05">
<path d="M1044.59 405.04V377.626H1047.12V389.89H1057.89V392.776H1047.12V405.04H1044.59Z" fill="#DEE3EB"/>
<path d="M1044.59 699.375V671.961H1047.12V684.225H1057.89V687.111H1047.12V699.375H1044.59Z" fill="#DEE3EB"/>
<path d="M1831.9 405.04V392.776H1821.13V389.89H1831.9V377.626H1834.43V405.04H1831.9Z" fill="#DEE3EB"/>
<path d="M1831.9 699.375V687.111H1821.13V684.225H1831.9V671.961H1834.43V699.375H1831.9Z" fill="#DEE3EB"/>
<path d="M1569.14 109.636V97.3436H1558.39V94.458H1582.42V97.3436H1571.67V109.636H1569.14Z" fill="#DEE3EB"/>
<path d="M1307.35 109.636V97.3436H1296.6V94.458H1320.63V97.3436H1309.88V109.636H1307.35Z" fill="#DEE3EB"/>
<path d="M1044.59 109.636V94.458H1057.89V97.3436H1047.12V109.636H1044.59Z" fill="#DEE3EB"/>
<path d="M1831.9 109.636V97.3436H1821.13V94.458H1834.43V109.636H1831.9Z" fill="#DEE3EB"/>
</g>
<path opacity="0.05" d="M-0.773438 -1.46094V1078.49H959.779V-1.46094H-0.773438ZM785.223 -0.768384H871.856V96.6219H785.223V-0.768384ZM871.881 194.762H785.248V97.3433H871.881V194.762ZM871.881 292.874H785.248V195.455H871.881V292.874ZM871.881 390.986H785.248V293.596H871.881V390.986ZM871.881 489.098H785.248V391.707H871.881V489.098ZM871.881 587.209H785.248V489.819H871.881V587.209ZM871.881 685.321H785.248V587.931H871.881V685.321ZM871.881 783.433H785.248V686.042H871.881V783.433ZM871.881 881.544H785.248V784.154H871.881V881.544ZM871.881 979.656H785.248V882.266H871.881V979.656ZM87.0991 882.237H173.732V979.627H87.0991V882.237ZM87.0991 784.125H173.732V881.516H87.0991V784.125ZM87.0991 686.013H173.732V783.404H87.0991V686.013ZM87.0991 587.902H173.732V685.292H87.0991V587.902ZM87.0991 489.79H173.732V587.18H87.0991V489.79ZM87.0991 391.678H173.732V489.069H87.0991V391.678ZM87.0991 293.567H173.732V390.957H87.0991V293.567ZM87.0991 195.455H173.732V292.845H87.0991V195.455ZM87.0991 97.3433H173.732V194.734H87.0991V97.3433ZM784.616 194.762H697.983V97.3433H784.616V194.762ZM784.616 292.874H697.983V195.455H784.616V292.874ZM784.616 390.986H697.983V293.596H784.616V390.986ZM784.616 489.098H697.983V391.707H784.616V489.098ZM784.616 587.209H697.983V489.819H784.616V587.209ZM784.616 685.321H697.983V587.931H784.616V685.321ZM784.616 783.433H697.983V686.042H784.616V783.433ZM784.616 881.544H697.983V784.154H784.616V881.544ZM174.365 784.125H260.998V881.516H174.365V784.125ZM174.365 686.013H260.998V783.404H174.365V686.013ZM174.365 587.902H260.998V685.292H174.365V587.902ZM174.365 489.79H260.998V587.18H174.365V489.79ZM174.365 391.678H260.998V489.069H174.365V391.678ZM174.365 293.567H260.998V390.957H174.365V293.567ZM174.365 195.455H260.998V292.845H174.365V195.455ZM697.35 292.874H610.717V195.455H697.35V292.874ZM697.35 390.986H610.717V293.596H697.35V390.986ZM697.35 489.098H610.717V391.707H697.35V489.098ZM697.35 587.209H610.717V489.819H697.35V587.209ZM697.35 685.321H610.717V587.931H697.35V685.321ZM697.35 783.433H610.717V686.042H697.35V783.433ZM261.63 686.013H348.263V783.404H261.63V686.013ZM261.63 587.902H348.263V685.292H261.63V587.902ZM261.63 489.79H348.263V587.18H261.63V489.79ZM261.63 391.678H348.263V489.069H261.63V391.678ZM261.63 293.567H348.263V390.957H261.63V293.567ZM610.085 390.986H523.452V293.596H610.085V390.986ZM610.085 489.098H523.452V391.707H610.085V489.098ZM610.085 587.209H523.452V489.819H610.085V587.209ZM610.085 685.321H523.452V587.931H610.085V685.321ZM348.896 587.902H435.529V685.292H348.896V587.902ZM348.896 489.79H435.529V587.18H348.896V489.79ZM348.896 391.678H435.529V489.069H348.896V391.678ZM522.819 489.098H436.186V391.707H522.819V489.098ZM522.819 587.209H436.186V489.819H522.819V587.209ZM436.161 587.902H522.794V685.292H436.161V587.902ZM522.819 390.986H436.186V293.596H522.819V390.986ZM435.554 390.986H348.921V293.596H435.554V390.986ZM348.896 686.013H435.529V783.404H348.896V686.013ZM436.161 686.013H522.794V783.404H436.161V686.013ZM523.426 686.013H610.06V783.404H523.426V686.013ZM610.085 292.874H523.452V195.455H610.085V292.874ZM522.819 292.874H436.186V195.455H522.819V292.874ZM435.554 292.874H348.921V195.455H435.554V292.874ZM348.288 292.874H261.655V195.455H348.288V292.874ZM261.63 784.125H348.263V881.516H261.63V784.125ZM348.896 784.125H435.529V881.516H348.896V784.125ZM436.161 784.125H522.794V881.516H436.161V784.125ZM523.426 784.125H610.06V881.516H523.426V784.125ZM610.692 784.125H697.325V881.516H610.692V784.125ZM697.35 194.762H610.717V97.3433H697.35V194.762ZM610.085 194.762H523.452V97.3433H610.085V194.762ZM522.819 194.762H436.186V97.3433H522.819V194.762ZM435.554 194.762H348.921V97.3433H435.554V194.762ZM348.288 194.762H261.655V97.3433H348.288V194.762ZM261.023 194.762H174.365V97.3433H260.998V194.762H261.023ZM174.365 882.237H260.998V979.627H174.365V882.237ZM261.63 882.237H348.263V979.627H261.63V882.237ZM348.896 882.237H435.529V979.627H348.896V882.237ZM436.161 882.237H522.794V979.627H436.161V882.237ZM523.426 882.237H610.06V979.627H523.426V882.237ZM610.692 882.237H697.325V979.627H610.692V882.237ZM697.957 882.237H784.591V979.627H697.957V882.237ZM697.957 -0.768384H784.591V96.6219H697.957V-0.768384ZM610.692 -0.768384H697.325V96.6219H610.692V-0.768384ZM523.426 -0.768384H610.06V96.6219H523.426V-0.768384ZM436.161 -0.768384H522.794V96.6219H436.161V-0.768384ZM348.896 -0.768384H435.529V96.6219H348.896V-0.768384ZM261.63 -0.768384H348.263V96.6219H261.63V-0.768384ZM174.365 -0.768384H260.998V96.6219H174.365V-0.768384ZM87.0991 -0.768384H173.732V96.6219H87.0991V-0.768384ZM-0.166373 -0.768384H86.4667V96.6219H-0.166373V-0.768384ZM-0.166373 97.3433H86.4667V194.734H-0.166373V97.3433ZM-0.166373 195.455H86.4667V292.845H-0.166373V195.455ZM-0.166373 293.567H86.4667V390.957H-0.166373V293.567ZM-0.166373 391.678H86.4667V489.069H-0.166373V391.678ZM-0.166373 489.79H86.4667V587.18H-0.166373V489.79ZM-0.166373 587.902H86.4667V685.292H-0.166373V587.902ZM-0.166373 686.013H86.4667V783.404H-0.166373V686.013ZM-0.166373 784.125H86.4667V881.516H-0.166373V784.125ZM-0.166373 882.237H86.4667V979.627H-0.166373V882.237ZM86.492 1077.77H-0.166373V980.378H86.4667V1077.77H86.492ZM173.758 1077.77H87.0991V980.378H173.732V1077.77H173.758ZM261.023 1077.77H174.365V980.378H260.998V1077.77H261.023ZM348.288 1077.77H261.655V980.378H348.288V1077.77ZM435.554 1077.77H348.921V980.378H435.554V1077.77ZM522.819 1077.77H436.186V980.378H522.819V1077.77ZM610.085 1077.77H523.452V980.378H610.085V1077.77ZM697.35 1077.77H610.717V980.378H697.35V1077.77ZM784.616 1077.77H697.983V980.378H784.616V1077.77ZM871.881 1077.77H785.248V980.378H871.881V1077.77ZM959.147 1077.77H872.514V980.378H959.147V1077.77ZM959.147 979.656H872.514V882.266H959.147V979.656ZM959.147 881.544H872.514V784.154H959.147V881.544ZM959.147 783.433H872.514V686.042H959.147V783.433ZM959.147 685.321H872.514V587.931H959.147V685.321ZM959.147 587.209H872.514V489.819H959.147V587.209ZM959.147 489.098H872.514V391.707H959.147V489.098ZM959.147 390.986H872.514V293.596H959.147V390.986ZM959.147 292.874H872.514V195.455H959.147V292.874ZM959.147 194.762H872.514V97.3433H959.147V194.762ZM872.488 96.6508V-0.768384H959.122V96.6219H872.488V96.6508Z" fill="#DEE3EB"/>
<path opacity="0.05" d="M351.121 1078.11L348.591 1081L346.062 1078.11L348.591 1075.23L351.121 1078.11ZM261.326 -4L258.796 -1.11436L261.326 1.77128L263.855 -1.11436L261.326 -4ZM174.06 -4L171.531 -1.11436L174.06 1.77128L176.59 -1.11436L174.06 -4ZM261.326 94.1117L258.796 96.9973L261.326 99.883L263.855 96.9973L261.326 94.1117ZM261.326 192.223L258.796 195.109L261.326 197.995L263.855 195.109L261.326 192.223ZM348.591 780.894L346.062 783.779L348.591 786.665L351.121 783.779L348.591 780.894ZM348.591 879.005L346.062 881.891L348.591 884.777L351.121 881.891L348.591 879.005ZM261.326 977.117L258.796 980.003L261.326 982.888L263.855 980.003L261.326 977.117ZM348.591 682.782L346.062 685.668L348.591 688.553L351.121 685.668L348.591 682.782ZM261.326 879.005L258.796 881.891L261.326 884.777L263.855 881.891L261.326 879.005ZM261.326 1075.23L258.796 1078.11L261.326 1081L263.855 1078.11L261.326 1075.23ZM261.326 780.894L258.796 783.779L261.326 786.665L263.855 783.779L261.326 780.894ZM261.326 388.447L258.796 391.332L261.326 394.218L263.855 391.332L261.326 388.447ZM261.326 486.559L258.796 489.444L261.326 492.33L263.855 489.444L261.326 486.559ZM261.326 584.67L258.796 587.556L261.326 590.441L263.855 587.556L261.326 584.67ZM261.326 682.782L258.796 685.668L261.326 688.553L263.855 685.668L261.326 682.782ZM261.326 290.335L258.796 293.221L261.326 296.106L263.855 293.221L261.326 290.335ZM435.857 486.559L433.327 489.444L435.857 492.33L438.386 489.444L435.857 486.559ZM435.857 584.67L433.327 587.556L435.857 590.441L438.386 587.556L435.857 584.67ZM435.857 682.782L433.327 685.668L435.857 688.553L438.386 685.668L435.857 682.782ZM435.857 879.005L433.327 881.891L435.857 884.777L438.386 881.891L435.857 879.005ZM435.857 780.894L433.327 783.779L435.857 786.665L438.386 783.779L435.857 780.894ZM435.857 192.223L433.327 195.109L435.857 197.995L438.386 195.109L435.857 192.223ZM435.857 388.447L433.327 391.332L435.857 394.218L438.386 391.332L435.857 388.447ZM435.857 290.335L433.327 293.221L435.857 296.106L438.386 293.221L435.857 290.335ZM435.857 1075.23L433.327 1078.11L435.857 1081L438.386 1078.11L435.857 1075.23ZM348.591 290.335L346.062 293.221L348.591 296.106L351.121 293.221L348.591 290.335ZM348.591 192.223L346.062 195.109L348.591 197.995L351.121 195.109L348.591 192.223ZM348.591 388.447L346.062 391.332L348.591 394.218L351.121 391.332L348.591 388.447ZM348.591 486.559L346.062 489.444L348.591 492.33L351.121 489.444L348.591 486.559ZM348.591 -4L346.062 -1.11436L348.591 1.77128L351.121 -1.11436L348.591 -4ZM348.591 584.67L346.062 587.556L348.591 590.441L351.121 587.556L348.591 584.67ZM435.857 977.117L433.327 980.003L435.857 982.888L438.386 980.003L435.857 977.117ZM-0.470566 388.447L-3 391.332L-0.470566 394.218L2.05887 391.332L-0.470566 388.447ZM86.7949 1075.23L84.2655 1078.11L86.7949 1081L89.3244 1078.11L86.7949 1075.23ZM-0.470566 290.335L-3 293.221L-0.470566 296.106L2.05887 293.221L-0.470566 290.335ZM-0.470566 94.1117L-3 96.9973L-0.470566 99.883L2.05887 96.9973L-0.470566 94.1117ZM174.06 94.1117L171.531 96.9973L174.06 99.883L176.59 96.9973L174.06 94.1117ZM-0.470566 -4L-3 -1.11436L-0.470566 1.77128L2.05887 -1.11436L-0.470566 -4ZM86.7949 780.894L84.2655 783.779L86.7949 786.665L89.3244 783.779L86.7949 780.894ZM86.7949 879.005L84.2655 881.891L86.7949 884.777L89.3244 881.891L86.7949 879.005ZM959.45 1.77128L961.979 -1.11436L959.45 -4L956.92 -1.11436L959.45 1.77128ZM-0.470566 1075.23L-3 1078.11L-0.470566 1081L2.05887 1078.11L-0.470566 1075.23ZM-0.470566 977.117L-3 980.003L-0.470566 982.888L2.05887 980.003L-0.470566 977.117ZM-0.470566 780.894L-3 783.779L-0.470566 786.665L2.05887 783.779L-0.470566 780.894ZM-0.470566 682.782L-3 685.668L-0.470566 688.553L2.05887 685.668L-0.470566 682.782ZM-0.470566 486.559L-3 489.444L-0.470566 492.33L2.05887 489.444L-0.470566 486.559ZM-0.470566 584.67L-3 587.556L-0.470566 590.441L2.05887 587.556L-0.470566 584.67ZM435.857 94.1117L433.327 96.9973L435.857 99.883L438.386 96.9973L435.857 94.1117ZM-0.470566 192.223L-3 195.109L-0.470566 197.995L2.05887 195.109L-0.470566 192.223ZM174.06 879.005L171.531 881.891L174.06 884.777L176.59 881.891L174.06 879.005ZM174.06 584.67L171.531 587.556L174.06 590.441L176.59 587.556L174.06 584.67ZM174.06 682.782L171.531 685.668L174.06 688.553L176.59 685.668L174.06 682.782ZM174.06 780.894L171.531 783.779L174.06 786.665L176.59 783.779L174.06 780.894ZM174.06 486.559L171.531 489.444L174.06 492.33L176.59 489.444L174.06 486.559ZM86.7949 584.67L84.2655 587.556L86.7949 590.441L89.3244 587.556L86.7949 584.67ZM174.06 290.335L171.531 293.221L174.06 296.106L176.59 293.221L174.06 290.335ZM174.06 388.447L171.531 391.332L174.06 394.218L176.59 391.332L174.06 388.447ZM174.06 192.223L171.531 195.109L174.06 197.995L176.59 195.109L174.06 192.223ZM86.7949 192.223L84.2655 195.109L86.7949 197.995L89.3244 195.109L86.7949 192.223ZM174.06 977.117L171.531 980.003L174.06 982.888L176.59 980.003L174.06 977.117ZM86.7949 486.559L84.2655 489.444L86.7949 492.33L89.3244 489.444L86.7949 486.559ZM86.7949 290.335L84.2655 293.221L86.7949 296.106L89.3244 293.221L86.7949 290.335ZM174.06 1075.23L171.531 1078.11L174.06 1081L176.59 1078.11L174.06 1075.23ZM86.7949 -4L84.2655 -1.11436L86.7949 1.77128L89.3244 -1.11436L86.7949 -4ZM-0.470566 879.005L-3 881.891L-0.470566 884.777L2.05887 881.891L-0.470566 879.005ZM784.919 94.1117L782.389 96.9973L784.919 99.883L787.448 96.9973L784.919 94.1117ZM784.919 290.335L782.389 293.221L784.919 296.106L787.448 293.221L784.919 290.335ZM872.184 1075.23L869.655 1078.11L872.184 1081L874.714 1078.11L872.184 1075.23ZM784.919 192.223L782.389 195.109L784.919 197.995L787.448 195.109L784.919 192.223ZM784.919 -4L782.389 -1.11436L784.919 1.77128L787.448 -1.11436L784.919 -4ZM872.184 584.67L869.655 587.556L872.184 590.441L874.714 587.556L872.184 584.67ZM697.653 -4L695.124 -1.11436L697.653 1.77128L700.183 -1.11436L697.653 -4ZM872.184 780.894L869.655 783.779L872.184 786.665L874.714 783.779L872.184 780.894ZM784.919 388.447L782.389 391.332L784.919 394.218L787.448 391.332L784.919 388.447ZM784.919 780.894L782.389 783.779L784.919 786.665L787.448 783.779L784.919 780.894ZM784.919 879.005L782.389 881.891L784.919 884.777L787.448 881.891L784.919 879.005ZM784.919 1075.23L782.389 1078.11L784.919 1081L787.448 1078.11L784.919 1075.23ZM784.919 977.117L782.389 980.003L784.919 982.888L787.448 980.003L784.919 977.117ZM784.919 486.559L782.389 489.444L784.919 492.33L787.448 489.444L784.919 486.559ZM784.919 584.67L782.389 587.556L784.919 590.441L787.448 587.556L784.919 584.67ZM784.919 682.782L782.389 685.668L784.919 688.553L787.448 685.668L784.919 682.782ZM872.184 879.005L869.655 881.891L872.184 884.777L874.714 881.891L872.184 879.005ZM959.45 584.67L956.92 587.556L959.45 590.441L961.979 587.556L959.45 584.67ZM959.45 486.559L956.92 489.444L959.45 492.33L961.979 489.444L959.45 486.559ZM959.45 682.782L956.92 685.668L959.45 688.553L961.979 685.668L959.45 682.782ZM959.45 388.447L956.92 391.332L959.45 394.218L961.979 391.332L959.45 388.447ZM959.45 192.223L956.92 195.109L959.45 197.995L961.979 195.109L959.45 192.223ZM959.45 290.335L956.92 293.221L959.45 296.106L961.979 293.221L959.45 290.335ZM959.45 94.1117L956.92 96.9973L959.45 99.883L961.979 96.9973L959.45 94.1117ZM959.45 780.894L956.92 783.779L959.45 786.665L961.979 783.779L959.45 780.894ZM872.184 486.559L869.655 489.444L872.184 492.33L874.714 489.444L872.184 486.559ZM872.184 192.223L869.655 195.109L872.184 197.995L874.714 195.109L872.184 192.223ZM872.184 290.335L869.655 293.221L872.184 296.106L874.714 293.221L872.184 290.335ZM959.45 879.005L956.92 881.891L959.45 884.777L961.979 881.891L959.45 879.005ZM959.45 977.117L956.92 980.003L959.45 982.888L961.979 980.003L959.45 977.117ZM959.45 1075.23L956.92 1078.11L959.45 1081L961.979 1078.11L959.45 1075.23ZM872.184 -4L869.655 -1.11436L872.184 1.77128L874.714 -1.11436L872.184 -4ZM523.122 780.894L520.593 783.779L523.122 786.665L525.652 783.779L523.122 780.894ZM523.122 290.335L520.593 293.221L523.122 296.106L525.652 293.221L523.122 290.335ZM523.122 -4L520.593 -1.11436L523.122 1.77128L525.652 -1.11436L523.122 -4ZM523.122 192.223L520.593 195.109L523.122 197.995L525.652 195.109L523.122 192.223ZM610.388 682.782L607.858 685.668L610.388 688.553L612.917 685.668L610.388 682.782ZM523.122 94.1117L520.593 96.9973L523.122 99.883L525.652 96.9973L523.122 94.1117ZM610.388 780.894L607.858 783.779L610.388 786.665L612.917 783.779L610.388 780.894ZM610.388 879.005L607.858 881.891L610.388 884.777L612.917 881.891L610.388 879.005ZM610.388 1075.23L607.858 1078.11L610.388 1081L612.917 1078.11L610.388 1075.23ZM523.122 388.447L520.593 391.332L523.122 394.218L525.652 391.332L523.122 388.447ZM435.857 -4L433.327 -1.11436L435.857 1.77128L438.386 -1.11436L435.857 -4ZM523.122 977.117L520.593 980.003L523.122 982.888L525.652 980.003L523.122 977.117ZM523.122 1075.23L520.593 1078.11L523.122 1081L525.652 1078.11L523.122 1075.23ZM523.122 879.005L520.593 881.891L523.122 884.777L525.652 881.891L523.122 879.005ZM523.122 682.782L520.593 685.668L523.122 688.553L525.652 685.668L523.122 682.782ZM523.122 486.559L520.593 489.444L523.122 492.33L525.652 489.444L523.122 486.559ZM523.122 584.67L520.593 587.556L523.122 590.441L525.652 587.556L523.122 584.67ZM697.653 1075.23L695.124 1078.11L697.653 1081L700.183 1078.11L697.653 1075.23ZM697.653 486.559L695.124 489.444L697.653 492.33L700.183 489.444L697.653 486.559ZM697.653 584.67L695.124 587.556L697.653 590.441L700.183 587.556L697.653 584.67ZM697.653 682.782L695.124 685.668L697.653 688.553L700.183 685.668L697.653 682.782ZM697.653 780.894L695.124 783.779L697.653 786.665L700.183 783.779L697.653 780.894ZM697.653 192.223L695.124 195.109L697.653 197.995L700.183 195.109L697.653 192.223ZM697.653 879.005L695.124 881.891L697.653 884.777L700.183 881.891L697.653 879.005ZM697.653 290.335L695.124 293.221L697.653 296.106L700.183 293.221L697.653 290.335ZM697.653 388.447L695.124 391.332L697.653 394.218L700.183 391.332L697.653 388.447ZM610.388 486.559L607.858 489.444L610.388 492.33L612.917 489.444L610.388 486.559ZM610.388 290.335L607.858 293.221L610.388 296.106L612.917 293.221L610.388 290.335ZM610.388 192.223L607.858 195.109L610.388 197.995L612.917 195.109L610.388 192.223ZM610.388 388.447L607.858 391.332L610.388 394.218L612.917 391.332L610.388 388.447ZM610.388 584.67L607.858 587.556L610.388 590.441L612.917 587.556L610.388 584.67ZM610.388 -4L607.858 -1.11436L610.388 1.77128L612.917 -1.11436L610.388 -4ZM697.653 94.1117L695.124 96.9973L697.653 99.883L700.183 96.9973L697.653 94.1117ZM697.653 977.117L695.124 980.003L697.653 982.888L700.183 980.003L697.653 977.117Z" fill="#DEE3EB"/>
<g opacity="0.05">
<path d="M84.5684 405.04V377.626H87.0978V389.89H97.8732V392.776H87.0978V405.04H84.5684Z" fill="#DEE3EB"/>
<path d="M84.5684 699.375V671.961H87.0978V684.225H97.8732V687.111H87.0978V699.375H84.5684Z" fill="#DEE3EB"/>
<path d="M871.881 405.04V392.776H861.105V389.89H871.881V377.626H874.41V405.04H871.881Z" fill="#DEE3EB"/>
<path d="M871.881 699.375V687.111H861.105V684.225H871.881V671.961H874.41V699.375H871.881Z" fill="#DEE3EB"/>
<path d="M609.123 109.636V97.3436H598.373V94.458H622.403V97.3436H611.653V109.636H609.123Z" fill="#DEE3EB"/>
<path d="M347.325 109.636V97.3436H336.575V94.458H360.605V97.3436H349.855V109.636H347.325Z" fill="#DEE3EB"/>
<path d="M84.5684 109.636V94.458H97.8732V97.3436H87.0978V109.636H84.5684Z" fill="#DEE3EB"/>
<path d="M871.881 109.636V97.3436H861.105V94.458H874.41V109.636H871.881Z" fill="#DEE3EB"/>
</g>
</g>
<defs>
<clipPath id="clip0_2913_4742">
<rect width="1920" height="920" fill="white"/>
</clipPath>
</defs>
</svg>
