<svg width="600" height="623" viewBox="0 0 600 623" fill="none" xmlns="http://www.w3.org/2000/svg">
<path d="M299.371 607.306C243.089 607.306 188.071 590.614 141.274 559.341C94.4778 528.067 58.0042 483.618 36.4661 431.612C14.928 379.606 9.29263 322.381 20.2727 267.172C31.2527 211.963 58.355 161.251 98.1522 121.447C137.949 81.6438 188.654 54.5374 243.855 43.5557C299.055 32.574 356.272 38.2103 408.269 59.7517C460.267 81.2931 504.71 117.772 535.979 164.576C567.247 211.38 583.937 266.406 583.937 322.697C583.845 398.152 553.834 470.49 500.488 523.844C447.141 577.199 374.814 607.214 299.371 607.306V607.306ZM299.371 43.0532C244.071 43.0532 190.013 59.454 144.033 90.1816C98.0529 120.909 62.2158 164.583 41.0535 215.682C19.8912 266.78 14.3542 323.007 25.1427 377.252C35.9311 431.498 62.5605 481.325 101.663 520.434C140.766 559.543 190.586 586.177 244.823 596.967C299.061 607.757 355.279 602.219 406.369 581.053C457.459 559.888 501.127 524.045 531.85 478.058C562.573 432.071 578.971 378.005 578.971 322.697C578.892 248.555 549.409 177.472 496.991 125.046C444.573 72.6197 373.501 43.132 299.371 43.0532V43.0532Z" fill="#FA0339"/>
<path d="M89.2356 536.987C60.7193 509.066 38.0702 475.726 22.6193 438.927C7.16843 402.127 -20.7447 329.167 25.2725 204.104L42.7782 209.606C-3.23819 326.7 31.7743 421.214 48.2215 447.199C62.1749 475.301 80.7377 500.867 103.139 522.833L89.2356 536.987Z" fill="#FA0339"/>
<path d="M299.367 622.851V602.986C368.599 603.075 435.397 577.448 486.81 531.076L500.118 545.975C445.077 595.677 373.523 623.132 299.367 622.999V622.851Z" fill="#FA0339"/>
<path d="M592.473 392.732L572.611 388.73C572.628 373.928 581.969 363.184 576.138 278.498C575.045 271.446 573.655 264.344 572.017 257.441L591.332 252.873C593.07 260.272 600.476 284.644 599.976 325.165C599.476 365.685 592.473 392.732 592.473 392.732Z" fill="#FA0339"/>
<path d="M502.601 129.663C489.8 116.219 475.714 104.06 460.545 93.3604C426.945 69.5972 388.475 53.6167 347.93 46.5793L351.356 27.0127C394.768 34.5049 435.968 51.5709 471.965 76.9721C488.228 88.4095 503.314 101.435 517.001 115.857L502.601 129.663Z" fill="#FA0339"/>
<path d="M299.37 589.628C246.584 589.628 194.984 573.972 151.094 544.642C107.204 515.311 72.9965 473.622 52.7963 424.847C32.5961 376.072 27.3108 322.401 37.6088 270.622C47.9068 218.843 73.3255 171.28 110.651 133.949C147.976 96.6184 195.531 71.1958 247.302 60.8962C299.074 50.5966 352.736 55.8828 401.504 76.0861C450.271 96.2894 491.954 130.503 521.28 174.399C550.606 218.295 566.259 269.904 566.259 322.697C566.18 393.467 538.036 461.316 488.002 511.358C437.967 561.4 370.129 589.549 299.37 589.628V589.628ZM299.37 57.0087C246.83 57.0087 195.469 72.5911 151.784 101.785C108.098 130.98 74.0494 172.475 53.9431 221.023C33.8369 269.571 28.5762 322.992 38.8263 374.531C49.0763 426.069 74.3768 473.41 111.528 510.568C148.68 547.725 196.014 573.029 247.544 583.281C299.075 593.533 352.488 588.271 401.029 568.162C449.57 548.052 491.058 513.998 520.248 470.306C549.438 426.614 565.018 375.246 565.018 322.697C564.912 252.274 536.888 184.766 487.089 134.978C437.29 85.1907 369.782 57.1869 299.37 57.1081V57.0087Z" fill="#FA0339"/>
<path d="M299.37 527.301V526.06C339.656 526.109 379.05 514.203 412.567 491.849C446.084 469.494 472.215 437.697 487.655 400.482C503.094 363.266 507.147 322.306 499.299 282.786C491.452 243.266 472.058 206.964 443.572 178.473C415.085 149.982 378.788 130.585 339.274 122.737C299.76 114.888 258.806 118.941 221.597 134.383C184.387 149.825 152.595 175.961 130.244 209.482C107.893 243.004 95.9889 282.405 96.038 322.696H95.0449C95.0449 282.229 107.043 242.671 129.522 209.024C152.001 175.377 183.951 149.152 221.332 133.666C258.713 118.18 299.845 114.128 339.529 122.023C379.212 129.918 415.664 149.404 444.274 178.019C472.884 206.633 492.368 243.091 500.261 282.78C508.155 322.47 504.104 363.609 488.62 400.995C473.136 438.382 446.916 470.337 413.274 492.819C379.632 515.302 340.079 527.301 299.619 527.301H299.37Z" fill="#FA0339"/>
<path d="M299.367 515.533C248.252 515.467 199.249 495.13 163.106 458.98C126.962 422.831 106.627 373.821 106.562 322.698H116.492C116.545 371.191 135.829 417.682 170.113 451.972C204.398 486.261 250.882 505.548 299.367 505.601V515.533Z" fill="#FA0339"/>
<g style="mix-blend-mode:screen" opacity="0.04">
<path d="M299.367 322.697H545.749C545.766 363.817 535.494 404.287 515.869 440.421C496.244 476.554 467.891 507.201 433.392 529.569C398.894 551.937 359.347 565.316 318.356 568.485C277.364 571.654 236.232 564.513 198.706 547.714C161.18 530.914 128.454 504.989 103.51 472.302C78.5666 439.614 62.198 401.203 55.896 360.569C49.5941 319.935 53.5592 278.37 67.43 239.661C81.3009 200.952 104.636 166.33 135.31 138.95L299.367 322.697Z" fill="#FA0339"/>
</g>
<g style="mix-blend-mode:screen" opacity="0.08">
<path d="M299.367 571.6C250.146 571.6 202.031 557.002 161.105 529.652C120.179 502.302 88.2818 463.429 69.4458 417.948C50.6098 372.467 45.6814 322.421 55.2839 274.138C64.8864 225.856 88.5885 181.505 123.393 146.696C158.197 111.886 202.541 88.1802 250.816 78.5762C299.091 68.9722 349.129 73.9013 394.603 92.7402C440.077 111.579 478.945 143.482 506.29 184.414C533.636 225.345 548.232 273.468 548.232 322.697C548.166 388.69 521.925 451.961 475.268 498.625C428.611 545.289 365.35 571.534 299.367 571.6V571.6ZM299.367 78.7597C251.128 78.7597 203.973 93.0664 163.864 119.87C123.755 146.675 92.4933 184.772 74.0332 229.346C55.573 273.92 50.743 322.967 60.1539 370.286C69.5648 417.605 92.794 461.071 126.904 495.186C161.014 529.301 204.473 552.534 251.785 561.946C299.096 571.359 348.136 566.528 392.703 548.065C437.27 529.602 475.362 498.336 502.162 458.221C528.962 418.106 543.266 370.943 543.266 322.697C543.188 258.025 517.466 196.024 471.743 150.294C426.02 104.564 364.029 78.8386 299.367 78.7597V78.7597Z" fill="#FA0339"/>
</g>
<path d="M299.962 56.3647H298.721V96.1435H299.962V56.3647Z" fill="#FA0339"/>
<path d="M299.61 1H298.369V39.0193H299.61V1Z" fill="#FA0339"/>
<path d="M299.962 549.202H298.721V588.981H299.962V549.202Z" fill="#FA0339"/>
<path d="M279.012 97.0856L275.536 57.4558L276.777 57.3564L280.253 96.9863L279.012 97.0856Z" fill="#FA0339"/>
<path d="M321.915 588.039L318.489 548.409L319.731 548.31L323.157 587.939L321.915 588.039Z" fill="#FA0339"/>
<path d="M259.4 99.7189L252.498 60.536L253.739 60.3374L260.641 99.5203L259.4 99.7189Z" fill="#FA0339"/>
<path d="M344.952 585.059L338.05 545.876L339.291 545.678L346.193 584.861L344.952 585.059Z" fill="#FA0339"/>
<path d="M240.133 104.037L229.805 65.5987L231.046 65.3008L241.324 103.739L240.133 104.037Z" fill="#FA0339"/>
<path d="M221.312 110.048L207.707 72.653L208.849 72.2061L222.454 109.601L221.312 110.048Z" fill="#FA0339"/>
<path d="M187.293 81.1154L186.168 81.6401L202.977 117.692L204.102 117.167L187.293 81.1154Z" fill="#FA0339"/>
<path d="M166.729 91.6971L165.654 92.3179L185.541 126.767L186.616 126.147L166.729 91.6971Z" fill="#FA0339"/>
<path d="M413.1 518.558L412.025 519.179L431.912 553.628L432.987 553.007L413.1 518.558Z" fill="#FA0339"/>
<path d="M147.127 104.199L146.11 104.911L168.923 137.496L169.94 136.783L147.127 104.199Z" fill="#FA0339"/>
<path d="M451.56 541.208L428.769 508.58L429.762 507.885L452.602 540.463L451.56 541.208Z" fill="#FA0339"/>
<path d="M153.285 149.577L127.713 119.085L128.656 118.291L154.228 148.783L153.285 149.577Z" fill="#FA0339"/>
<path d="M470.027 527.104L444.455 496.612L445.399 495.817L470.97 526.309L470.027 527.104Z" fill="#FA0339"/>
<path d="M73.6968 303.577L34.0234 300.102L34.1227 298.86L73.7961 302.336L73.6968 303.577Z" fill="#FA0339"/>
<path d="M564.569 346.535L524.945 343.059L525.045 341.818L564.668 345.294L564.569 346.535Z" fill="#FA0339"/>
<path d="M73.0471 322.053H33.2744V323.295H73.0471V322.053Z" fill="#FA0339"/>
<path d="M299.371 539.669C241.836 539.669 186.657 516.809 145.973 476.119C105.289 435.429 82.4336 380.242 82.4336 322.698C82.4336 265.154 105.289 209.966 145.973 169.276C186.657 128.586 241.836 105.727 299.371 105.727V108.21C256.956 108.21 215.493 120.79 180.226 144.358C144.959 167.926 117.472 201.424 101.241 240.617C85.0091 279.809 80.7622 322.936 89.037 364.542C97.3118 406.149 117.737 444.367 147.729 474.363C177.721 504.36 215.933 524.788 257.533 533.064C299.133 541.34 342.253 537.093 381.439 520.859C420.626 504.624 454.119 477.133 477.684 441.861C501.248 406.588 513.826 365.119 513.826 322.698H516.308C516.243 380.222 493.366 435.371 452.696 476.047C412.027 516.722 356.886 539.603 299.371 539.669Z" fill="#FA0339"/>
<rect x="259.355" y="274.139" width="80.0284" height="80.0407" fill="#FA0339"/>
<path d="M300.204 294.149C289.172 294.149 280.197 303.126 280.197 314.16C280.197 315.609 280.352 317.022 280.647 318.384L281.889 315.713C281.845 315.201 281.823 314.683 281.823 314.16C281.823 309.903 283.278 305.979 285.714 302.859C285.822 302.721 285.932 302.584 286.043 302.45C286.085 302.4 286.126 302.35 286.168 302.301C286.303 302.141 286.443 301.983 286.585 301.827C289.949 298.113 294.809 295.775 300.204 295.775C305.6 295.775 310.46 298.113 313.825 301.827H315.949C312.283 297.156 306.588 294.149 300.204 294.149ZM318.682 306.488L317.708 308.538C318.278 310.311 318.586 312.2 318.586 314.16C318.586 324.297 310.34 332.544 300.204 332.544C294.809 332.544 289.948 330.206 286.584 326.492H284.459C288.124 331.164 293.82 334.17 300.204 334.17C311.236 334.17 320.211 325.194 320.211 314.16C320.211 311.443 319.667 308.853 318.682 306.488ZM282.12 317.465L281.017 319.836C281.627 321.896 282.56 323.819 283.759 325.544H285.78C283.954 323.233 282.67 320.476 282.12 317.465ZM316.65 302.775H314.628C315.705 304.137 316.593 305.653 317.254 307.286L318.17 305.358C317.727 304.457 317.219 303.594 316.65 302.775Z" fill="white"/>
<path d="M286.045 302.452L285.975 302.303H286.17C286.128 302.351 286.087 302.402 286.045 302.452Z" fill="white"/>
<path d="M319.398 302.777L318.17 305.36L317.254 307.288L308.571 325.545H297.552L293.481 316.987L289.379 325.545H278.361L281.017 319.838L282.12 317.467L287.852 305.148L286.723 302.777H297.768L303.061 313.934L308.354 302.777H319.398Z" fill="white"/>
<path d="M190.226 437.213H180.746C180.266 437.213 179.86 437.033 179.526 436.673C179.193 436.313 179.026 435.786 179.026 435.093C179.026 434 179.373 433.24 180.066 432.813L186.246 429.033C186.78 428.7 187.046 428.16 187.046 427.413C187.046 426.88 186.94 426.513 186.726 426.313C186.513 426.113 186.126 426.013 185.566 426.013H179.906V423.213H187.366C188.553 423.213 189.393 423.52 189.886 424.133C190.393 424.746 190.646 425.693 190.646 426.973C190.646 428.12 190.5 428.98 190.206 429.553C189.926 430.126 189.413 430.633 188.666 431.073L183.726 434.073C183.593 434.14 183.526 434.213 183.526 434.293C183.526 434.373 183.573 434.413 183.666 434.413H190.226V437.213ZM192.194 437.213V434.493H198.554C199.5 434.493 199.974 433.96 199.974 432.893C199.974 432.386 199.86 432.013 199.634 431.773C199.42 431.52 199.06 431.393 198.554 431.393H194.594C193.727 431.393 193.087 431.2 192.674 430.813C192.26 430.413 192.054 429.72 192.054 428.733V425.233C192.054 423.886 192.774 423.213 194.214 423.213H203.134V425.933H196.494C196.227 425.933 196.02 425.993 195.874 426.113C195.727 426.233 195.654 426.466 195.654 426.813V427.673C195.654 428.073 195.727 428.36 195.874 428.533C196.034 428.706 196.3 428.793 196.674 428.793H200.274C201.527 428.793 202.4 429.133 202.894 429.813C203.4 430.493 203.654 431.526 203.654 432.913C203.654 434.353 203.414 435.433 202.934 436.153C202.454 436.86 201.567 437.213 200.274 437.213H192.194ZM207.781 437.213L215.421 423.213H217.441L209.801 437.213H207.781ZM205.881 423.873C206.375 423.353 207.255 423.093 208.521 423.093C209.788 423.093 210.661 423.353 211.141 423.873C211.621 424.393 211.861 425.26 211.861 426.473C211.861 427.686 211.621 428.553 211.141 429.073C210.661 429.593 209.788 429.853 208.521 429.853C207.255 429.853 206.375 429.593 205.881 429.073C205.401 428.553 205.161 427.686 205.161 426.473C205.161 425.26 205.401 424.393 205.881 423.873ZM207.461 425.213C207.275 425.466 207.181 425.886 207.181 426.473C207.181 427.06 207.275 427.486 207.461 427.753C207.661 428.006 208.015 428.133 208.521 428.133C209.028 428.133 209.375 428.006 209.561 427.753C209.748 427.486 209.841 427.06 209.841 426.473C209.841 425.886 209.748 425.466 209.561 425.213C209.375 424.946 209.028 424.813 208.521 424.813C208.015 424.813 207.661 424.946 207.461 425.213ZM214.021 431.373C214.515 430.853 215.395 430.593 216.661 430.593C217.928 430.593 218.801 430.853 219.281 431.373C219.761 431.893 220.001 432.76 220.001 433.973C220.001 435.186 219.761 436.053 219.281 436.573C218.801 437.08 217.928 437.333 216.661 437.333C215.395 437.333 214.515 437.08 214.021 436.573C213.541 436.053 213.301 435.186 213.301 433.973C213.301 432.76 213.541 431.893 214.021 431.373ZM215.601 432.693C215.415 432.96 215.321 433.386 215.321 433.973C215.321 434.56 215.415 434.986 215.601 435.253C215.801 435.506 216.155 435.633 216.661 435.633C217.168 435.633 217.515 435.506 217.701 435.253C217.888 434.986 217.981 434.56 217.981 433.973C217.981 433.373 217.888 432.946 217.701 432.693C217.515 432.426 217.168 432.293 216.661 432.293C216.155 432.293 215.801 432.426 215.601 432.693Z" fill="#DEE3EB"/>
<path d="M42.9773 381.186V378.466H48.9773C49.7107 378.466 50.224 378.373 50.5173 378.186C50.824 377.999 50.9773 377.599 50.9773 376.986C50.9773 376.453 50.8507 376.059 50.5973 375.806C50.344 375.553 49.8973 375.426 49.2573 375.426H43.3173V372.826H49.0773C49.6507 372.826 50.064 372.713 50.3173 372.486C50.584 372.246 50.7173 371.859 50.7173 371.326C50.7173 370.846 50.5973 370.493 50.3573 370.266C50.1173 370.026 49.724 369.906 49.1773 369.906H43.1773V367.186H51.0373C52.1973 367.186 53.0373 367.486 53.5573 368.086C54.0907 368.686 54.3573 369.599 54.3573 370.826C54.3573 371.719 54.204 372.446 53.8973 373.006C53.5907 373.553 53.0173 373.886 52.1773 374.006V374.086C53.0707 374.139 53.704 374.439 54.0773 374.986C54.464 375.519 54.6573 376.279 54.6573 377.266C54.6573 378.519 54.3973 379.486 53.8773 380.166C53.3573 380.846 52.4507 381.186 51.1573 381.186H42.9773ZM59.2833 367.266C59.9766 367.133 60.8833 367.066 62.0033 367.066C63.1233 367.066 64.0299 367.133 64.7233 367.266C65.4166 367.399 66.0166 367.659 66.5233 368.046C67.0433 368.433 67.4099 368.979 67.6233 369.686C67.8366 370.379 67.9433 371.286 67.9433 372.406V375.846C67.9433 376.993 67.8366 377.926 67.6233 378.646C67.4099 379.353 67.0433 379.906 66.5233 380.306C66.0166 380.693 65.4166 380.959 64.7233 381.106C64.0299 381.239 63.1233 381.306 62.0033 381.306C60.8833 381.306 59.9766 381.239 59.2833 381.106C58.5899 380.959 57.9833 380.693 57.4633 380.306C56.9566 379.906 56.5966 379.353 56.3833 378.646C56.1699 377.926 56.0633 376.993 56.0633 375.846V372.406C56.0633 371.286 56.1699 370.379 56.3833 369.686C56.5966 368.979 56.9566 368.433 57.4633 368.046C57.9833 367.659 58.5899 367.399 59.2833 367.266ZM62.0033 378.506C62.9099 378.506 63.5233 378.313 63.8433 377.926C64.1766 377.539 64.3433 376.833 64.3433 375.806V372.466C64.3433 371.493 64.1766 370.819 63.8433 370.446C63.5233 370.059 62.9099 369.866 62.0033 369.866C61.1099 369.866 60.4966 370.059 60.1633 370.446C59.8299 370.833 59.6633 371.506 59.6633 372.466V375.806C59.6633 376.819 59.8299 377.526 60.1633 377.926C60.4966 378.313 61.1099 378.506 62.0033 378.506ZM72.0645 381.186L79.7045 367.186H81.7245L74.0845 381.186H72.0645ZM70.1645 367.846C70.6579 367.326 71.5379 367.066 72.8045 367.066C74.0712 367.066 74.9445 367.326 75.4245 367.846C75.9045 368.366 76.1445 369.233 76.1445 370.446C76.1445 371.659 75.9045 372.526 75.4245 373.046C74.9445 373.566 74.0712 373.826 72.8045 373.826C71.5379 373.826 70.6579 373.566 70.1645 373.046C69.6845 372.526 69.4445 371.659 69.4445 370.446C69.4445 369.233 69.6845 368.366 70.1645 367.846ZM71.7445 369.186C71.5579 369.439 71.4645 369.859 71.4645 370.446C71.4645 371.033 71.5579 371.459 71.7445 371.726C71.9445 371.979 72.2979 372.106 72.8045 372.106C73.3112 372.106 73.6579 371.979 73.8445 371.726C74.0312 371.459 74.1245 371.033 74.1245 370.446C74.1245 369.859 74.0312 369.439 73.8445 369.186C73.6579 368.919 73.3112 368.786 72.8045 368.786C72.2979 368.786 71.9445 368.919 71.7445 369.186ZM78.3045 375.346C78.7979 374.826 79.6779 374.566 80.9445 374.566C82.2112 374.566 83.0845 374.826 83.5645 375.346C84.0445 375.866 84.2845 376.733 84.2845 377.946C84.2845 379.159 84.0445 380.026 83.5645 380.546C83.0845 381.053 82.2112 381.306 80.9445 381.306C79.6779 381.306 78.7979 381.053 78.3045 380.546C77.8245 380.026 77.5845 379.159 77.5845 377.946C77.5845 376.733 77.8245 375.866 78.3045 375.346ZM79.8845 376.666C79.6979 376.933 79.6045 377.359 79.6045 377.946C79.6045 378.533 79.6979 378.959 79.8845 379.226C80.0845 379.479 80.4379 379.606 80.9445 379.606C81.4512 379.606 81.7979 379.479 81.9845 379.226C82.1712 378.959 82.2645 378.533 82.2645 377.946C82.2645 377.346 82.1712 376.919 81.9845 376.666C81.7979 376.399 81.4512 376.266 80.9445 376.266C80.4379 376.266 80.0845 376.399 79.8845 376.666Z" fill="#DEE3EB"/>
<path d="M403.746 128.052V117.912C403.746 117.552 403.7 117.285 403.606 117.112C403.526 116.938 403.326 116.852 403.006 116.852H401.406V114.052H405.326C405.98 114.052 406.48 114.225 406.826 114.572C407.173 114.918 407.346 115.418 407.346 116.072V128.052H403.746ZM412.358 114.132C413.051 113.998 413.958 113.932 415.078 113.932C416.198 113.932 417.104 113.998 417.798 114.132C418.491 114.265 419.091 114.525 419.598 114.912C420.118 115.298 420.484 115.845 420.698 116.552C420.911 117.245 421.018 118.152 421.018 119.272V122.712C421.018 123.858 420.911 124.792 420.698 125.512C420.484 126.218 420.118 126.772 419.598 127.172C419.091 127.558 418.491 127.825 417.798 127.972C417.104 128.105 416.198 128.172 415.078 128.172C413.958 128.172 413.051 128.105 412.358 127.972C411.664 127.825 411.058 127.558 410.538 127.172C410.031 126.772 409.671 126.218 409.458 125.512C409.244 124.792 409.138 123.858 409.138 122.712V119.272C409.138 118.152 409.244 117.245 409.458 116.552C409.671 115.845 410.031 115.298 410.538 114.912C411.058 114.525 411.664 114.265 412.358 114.132ZM415.078 125.372C415.984 125.372 416.598 125.178 416.918 124.792C417.251 124.405 417.418 123.698 417.418 122.672V119.332C417.418 118.358 417.251 117.685 416.918 117.312C416.598 116.925 415.984 116.732 415.078 116.732C414.184 116.732 413.571 116.925 413.238 117.312C412.904 117.698 412.738 118.372 412.738 119.332V122.672C412.738 123.685 412.904 124.392 413.238 124.792C413.571 125.178 414.184 125.372 415.078 125.372ZM425.139 128.052L432.779 114.052H434.799L427.159 128.052H425.139ZM423.239 114.712C423.732 114.192 424.612 113.932 425.879 113.932C427.145 113.932 428.019 114.192 428.499 114.712C428.979 115.232 429.219 116.098 429.219 117.312C429.219 118.525 428.979 119.392 428.499 119.912C428.019 120.432 427.145 120.692 425.879 120.692C424.612 120.692 423.732 120.432 423.239 119.912C422.759 119.392 422.519 118.525 422.519 117.312C422.519 116.098 422.759 115.232 423.239 114.712ZM424.819 116.052C424.632 116.305 424.539 116.725 424.539 117.312C424.539 117.898 424.632 118.325 424.819 118.592C425.019 118.845 425.372 118.972 425.879 118.972C426.385 118.972 426.732 118.845 426.919 118.592C427.105 118.325 427.199 117.898 427.199 117.312C427.199 116.725 427.105 116.305 426.919 116.052C426.732 115.785 426.385 115.652 425.879 115.652C425.372 115.652 425.019 115.785 424.819 116.052ZM431.379 122.212C431.872 121.692 432.752 121.432 434.019 121.432C435.285 121.432 436.159 121.692 436.639 122.212C437.119 122.732 437.359 123.598 437.359 124.812C437.359 126.025 437.119 126.892 436.639 127.412C436.159 127.918 435.285 128.172 434.019 128.172C432.752 128.172 431.872 127.918 431.379 127.412C430.899 126.892 430.659 126.025 430.659 124.812C430.659 123.598 430.899 122.732 431.379 122.212ZM432.959 123.532C432.772 123.798 432.679 124.225 432.679 124.812C432.679 125.398 432.772 125.825 432.959 126.092C433.159 126.345 433.512 126.472 434.019 126.472C434.525 126.472 434.872 126.345 435.059 126.092C435.245 125.825 435.339 125.398 435.339 124.812C435.339 124.212 435.245 123.785 435.059 123.532C434.872 123.265 434.525 123.132 434.019 123.132C433.512 123.132 433.159 123.265 432.959 123.532Z" fill="#DEE3EB"/>
<path d="M367.733 557.274V547.134C367.733 546.774 367.686 546.508 367.593 546.334C367.513 546.161 367.313 546.074 366.993 546.074H365.393V543.274H369.313C369.966 543.274 370.466 543.448 370.813 543.794C371.159 544.141 371.333 544.641 371.333 545.294V557.274H367.733ZM376.344 543.354C377.037 543.221 377.944 543.154 379.064 543.154C380.184 543.154 381.09 543.221 381.784 543.354C382.477 543.488 383.077 543.748 383.584 544.134C384.104 544.521 384.47 545.068 384.684 545.774C384.897 546.468 385.004 547.374 385.004 548.494V551.934C385.004 553.081 384.897 554.014 384.684 554.734C384.47 555.441 384.104 555.994 383.584 556.394C383.077 556.781 382.477 557.048 381.784 557.194C381.09 557.328 380.184 557.394 379.064 557.394C377.944 557.394 377.037 557.328 376.344 557.194C375.65 557.048 375.044 556.781 374.524 556.394C374.017 555.994 373.657 555.441 373.444 554.734C373.23 554.014 373.124 553.081 373.124 551.934V548.494C373.124 547.374 373.23 546.468 373.444 545.774C373.657 545.068 374.017 544.521 374.524 544.134C375.044 543.748 375.65 543.488 376.344 543.354ZM379.064 554.594C379.97 554.594 380.584 554.401 380.904 554.014C381.237 553.628 381.404 552.921 381.404 551.894V548.554C381.404 547.581 381.237 546.908 380.904 546.534C380.584 546.148 379.97 545.954 379.064 545.954C378.17 545.954 377.557 546.148 377.224 546.534C376.89 546.921 376.724 547.594 376.724 548.554V551.894C376.724 552.908 376.89 553.614 377.224 554.014C377.557 554.401 378.17 554.594 379.064 554.594ZM389.125 557.274L396.765 543.274H398.785L391.145 557.274H389.125ZM387.225 543.934C387.718 543.414 388.598 543.154 389.865 543.154C391.132 543.154 392.005 543.414 392.485 543.934C392.965 544.454 393.205 545.321 393.205 546.534C393.205 547.748 392.965 548.614 392.485 549.134C392.005 549.654 391.132 549.914 389.865 549.914C388.598 549.914 387.718 549.654 387.225 549.134C386.745 548.614 386.505 547.748 386.505 546.534C386.505 545.321 386.745 544.454 387.225 543.934ZM388.805 545.274C388.618 545.528 388.525 545.948 388.525 546.534C388.525 547.121 388.618 547.548 388.805 547.814C389.005 548.068 389.358 548.194 389.865 548.194C390.372 548.194 390.718 548.068 390.905 547.814C391.092 547.548 391.185 547.121 391.185 546.534C391.185 545.948 391.092 545.528 390.905 545.274C390.718 545.008 390.372 544.874 389.865 544.874C389.358 544.874 389.005 545.008 388.805 545.274ZM395.365 551.434C395.858 550.914 396.738 550.654 398.005 550.654C399.272 550.654 400.145 550.914 400.625 551.434C401.105 551.954 401.345 552.821 401.345 554.034C401.345 555.248 401.105 556.114 400.625 556.634C400.145 557.141 399.272 557.394 398.005 557.394C396.738 557.394 395.858 557.141 395.365 556.634C394.885 556.114 394.645 555.248 394.645 554.034C394.645 552.821 394.885 551.954 395.365 551.434ZM396.945 552.754C396.758 553.021 396.665 553.448 396.665 554.034C396.665 554.621 396.758 555.048 396.945 555.314C397.145 555.568 397.498 555.694 398.005 555.694C398.512 555.694 398.858 555.568 399.045 555.314C399.232 555.048 399.325 554.621 399.325 554.034C399.325 553.434 399.232 553.008 399.045 552.754C398.858 552.488 398.512 552.354 398.005 552.354C397.498 552.354 397.145 552.488 396.945 552.754Z" fill="#DEE3EB"/>
<path d="M526.289 327.157V324.437H532.649C533.596 324.437 534.069 323.903 534.069 322.837C534.069 322.33 533.956 321.957 533.729 321.717C533.516 321.463 533.156 321.337 532.649 321.337H528.689C527.823 321.337 527.183 321.143 526.769 320.757C526.356 320.357 526.149 319.663 526.149 318.677V315.177C526.149 313.83 526.869 313.157 528.309 313.157H537.229V315.877H530.589C530.323 315.877 530.116 315.937 529.969 316.057C529.823 316.177 529.749 316.41 529.749 316.757V317.617C529.749 318.017 529.823 318.303 529.969 318.477C530.129 318.65 530.396 318.737 530.769 318.737H534.369C535.623 318.737 536.496 319.077 536.989 319.757C537.496 320.437 537.749 321.47 537.749 322.857C537.749 324.297 537.509 325.377 537.029 326.097C536.549 326.803 535.663 327.157 534.369 327.157H526.289ZM541.877 327.157L549.517 313.157H551.537L543.897 327.157H541.877ZM539.977 313.817C540.47 313.297 541.35 313.037 542.617 313.037C543.884 313.037 544.757 313.297 545.237 313.817C545.717 314.337 545.957 315.203 545.957 316.417C545.957 317.63 545.717 318.497 545.237 319.017C544.757 319.537 543.884 319.797 542.617 319.797C541.35 319.797 540.47 319.537 539.977 319.017C539.497 318.497 539.257 317.63 539.257 316.417C539.257 315.203 539.497 314.337 539.977 313.817ZM541.557 315.157C541.37 315.41 541.277 315.83 541.277 316.417C541.277 317.003 541.37 317.43 541.557 317.697C541.757 317.95 542.11 318.077 542.617 318.077C543.124 318.077 543.47 317.95 543.657 317.697C543.844 317.43 543.937 317.003 543.937 316.417C543.937 315.83 543.844 315.41 543.657 315.157C543.47 314.89 543.124 314.757 542.617 314.757C542.11 314.757 541.757 314.89 541.557 315.157ZM548.117 321.317C548.61 320.797 549.49 320.537 550.757 320.537C552.024 320.537 552.897 320.797 553.377 321.317C553.857 321.837 554.097 322.703 554.097 323.917C554.097 325.13 553.857 325.997 553.377 326.517C552.897 327.023 552.024 327.277 550.757 327.277C549.49 327.277 548.61 327.023 548.117 326.517C547.637 325.997 547.397 325.13 547.397 323.917C547.397 322.703 547.637 321.837 548.117 321.317ZM549.697 322.637C549.51 322.903 549.417 323.33 549.417 323.917C549.417 324.503 549.51 324.93 549.697 325.197C549.897 325.45 550.25 325.577 550.757 325.577C551.264 325.577 551.61 325.45 551.797 325.197C551.984 324.93 552.077 324.503 552.077 323.917C552.077 323.317 551.984 322.89 551.797 322.637C551.61 322.37 551.264 322.237 550.757 322.237C550.25 322.237 549.897 322.37 549.697 322.637Z" fill="#DEE3EB"/>
<path d="M299.369 1.49938C356.389 0.49951 456.525 20.3089 532.952 101.55" stroke="#FA0339"/>
</svg>
