<svg width="244" height="35" viewBox="0 0 244 35" fill="none" xmlns="http://www.w3.org/2000/svg">
<path d="M0 10.7166H5.672V25.6299H7.07315V10.7166H12.6976V9.31543H0V10.7166Z" fill="black"/>
<path d="M20.0684 10.017V24.9303C20.0684 25.3286 20.3696 25.6299 20.7679 25.6299H31.8622V24.2287H21.4695V18.1722H29.0837V16.7711H21.4695V10.7166H31.8622V9.31543H20.7699C20.3696 9.31543 20.0684 9.61667 20.0684 10.017Z" fill="black"/>
<path d="M49.0929 17.9186C51.0232 17.3042 52.3828 15.6494 52.3828 13.7666C52.3828 11.3111 50.1532 9.31543 47.4104 9.31543L40.8604 9.33723C40.4601 9.33723 40.1608 9.63847 40.1608 10.0368L40.1489 17.4469L40.1152 18.1009L40.1489 18.1048L40.139 24.9283V25.6279H41.5402V18.1722H47.1983C48.5301 19.0958 49.4794 20.1323 51.0054 25.1344L51.2135 25.6279H52.6444L52.3649 24.7182C51.1124 20.707 50.1988 19.0105 49.0929 17.9186ZM45.0817 16.781L41.5382 16.7929V10.7166H47.4123C49.3803 10.7166 50.9816 12.084 50.9816 13.7666C50.9816 15.4234 49.3902 16.7711 47.4341 16.7711H45.0678L45.0817 16.781Z" fill="black"/>
<path d="M69.6144 17.9186C71.5447 17.3042 72.9043 15.6494 72.9043 13.7666C72.9043 11.3131 70.6747 9.31543 67.9319 9.31543L61.3819 9.33723C60.9816 9.33723 60.6823 9.63847 60.6823 10.0368L60.6704 17.4469L60.6348 18.1009L60.6685 18.1048L60.6585 24.9283V25.6279H62.0597V18.1722H67.7178C69.0496 19.0958 69.9989 20.1323 71.5249 25.1344L71.733 25.6279H73.1639L72.8845 24.7182C71.6359 20.707 70.7203 19.0105 69.6144 17.9186ZM65.6329 16.781L62.0597 16.7929V10.7166H67.9338C69.9018 10.7166 71.5031 12.086 71.5031 13.7666C71.5031 15.4234 69.9117 16.7711 67.9556 16.7711H65.621L65.6329 16.781Z" fill="black"/>
<path d="M93.813 24.6466L87.2611 9.73733C87.1561 9.49158 86.9044 9.33105 86.621 9.33105C86.3376 9.33105 86.0879 9.4896 85.9828 9.73337L79.4289 24.6506L79.0107 25.6276H80.5685L80.7151 25.1877L86.621 11.7568L92.5268 25.1877L92.6735 25.6276H94.2312L93.813 24.6466Z" fill="black"/>
<path d="M151.413 9.75537L145.529 23.1862L139.601 9.75537L139.454 9.31738H137.896L138.315 10.2944L144.89 25.2077C144.995 25.4534 145.247 25.614 145.53 25.614C145.814 25.614 146.064 25.4554 146.169 25.2117L152.701 10.2964L153.119 9.31937H151.561L151.413 9.75537Z" fill="black"/>
<path d="M161.779 9.31543H160.378V25.6299H161.779V9.31543Z" fill="black"/>
<path d="M180.117 17.9186C182.048 17.3042 183.407 15.6494 183.407 13.7666C183.407 11.3111 181.178 9.31543 178.435 9.31543L171.883 9.33723C171.485 9.33723 171.183 9.63847 171.183 10.0368L171.171 17.4469L171.138 18.1009L171.171 18.1048L171.161 24.9283V25.6279H172.563V18.1722H178.223C179.555 19.0958 180.504 20.1323 182.028 25.1344L182.236 25.6279H183.665L183.385 24.7182C182.137 20.707 181.223 19.0105 180.117 17.9186ZM176.106 16.781L172.563 16.7929V10.7166H178.437C180.405 10.7166 182.006 12.084 182.006 13.7666C182.006 15.4234 180.415 16.7711 178.459 16.7711H176.092L176.106 16.781Z" fill="black"/>
<path d="M189.874 10.7166H195.546V25.6299H196.947V10.7166H202.574V9.31543H189.874V10.7166Z" fill="black"/>
<path d="M219.884 20.2747C219.884 22.4547 217.866 24.2284 215.387 24.2284C212.908 24.2284 210.89 22.4547 210.89 20.2747L210.912 10.0623L210.986 9.33694H209.489V20.2727C209.489 23.2256 212.135 25.6276 215.387 25.6276C218.639 25.6276 221.285 23.2256 221.285 20.2727L221.307 10.0603L221.38 9.33496H219.884V20.2747Z" fill="black"/>
<path d="M242.648 24.6466L236.098 9.73733C235.993 9.49158 235.741 9.33105 235.458 9.33105C235.174 9.33105 234.925 9.4896 234.82 9.73337L228.266 24.6506L227.846 25.6276H229.405L229.552 25.1877L235.458 11.7568L241.364 25.1877L241.51 25.6276H243.068L242.648 24.6466Z" fill="black"/>
<path d="M115.276 32.4092C115.32 32.4111 115.362 32.4143 115.405 32.4152C115.39 32.4152 115.377 32.4152 115.363 32.4143C115.334 32.4133 115.305 32.4111 115.276 32.4092Z" fill="url(#paint0_linear_4239_5063)"/>
<path d="M128.059 4.65446C127.193 5.1532 124.003 5.31273 123.766 5.36832C123.468 5.43918 117.737 5.42587 117.636 5.36832C117.559 5.32408 116.708 4.75722 116.341 4.51451C116.24 4.44659 116.176 4.40333 116.176 4.40333C116.176 4.40333 116.734 4.25418 117.56 4.04239H117.561C119.687 3.49824 123.584 2.53853 124.319 2.63014C124.776 2.68768 125.415 2.83057 126.063 3.05176C126.063 3.05176 126.063 3.05274 126.065 3.05274H126.066C126.331 3.23542 126.591 3.42542 126.846 3.62273C127.177 3.87719 127.498 4.14633 127.808 4.42525C127.893 4.50042 127.977 4.57714 128.059 4.65446Z" fill="url(#paint1_linear_4239_5063)"/>
<path d="M99.4221 13.0909C104.482 12.1036 109.501 10.9092 114.6 10.0247C119.725 9.13601 125.632 8.05691 131.002 8.62474C131.084 8.63296 131.165 8.64216 131.246 8.65254C131.377 8.87568 131.501 9.10274 131.621 9.33234C132.499 11.0135 133.093 12.8281 133.379 14.7028C133.427 15.0176 133.466 15.3364 133.496 15.6564C133.297 15.8838 133.089 16.107 132.874 16.3261C132.096 16.2961 131.318 16.2807 130.541 16.328C130.447 16.3343 130.354 16.3413 130.26 16.3476C129.459 14.4705 125.174 14.9631 123.313 15.2305C121.063 15.5525 118.828 15.927 116.597 16.3147C116.389 16.3507 116.181 16.3867 115.974 16.4237H115.972C114.82 16.6253 113.67 16.8301 112.518 17.0295C107.633 17.8812 103.978 18.627 101.016 19.0456C100.961 18.8718 100.904 18.7002 100.851 18.5262C100.764 18.2474 100.686 17.9677 100.596 17.69C100.498 17.3856 100.396 17.0832 100.291 16.7808C100.078 16.1624 99.8588 15.5464 99.6664 14.9212C99.5294 14.4738 99.4053 14.0209 99.3096 13.5624" fill="url(#paint2_linear_4239_5063)"/>
<path d="M126.843 3.62293C123.971 2.94391 120.822 3.42856 117.852 4.13616C117.342 4.25751 116.837 4.38513 116.34 4.51471C115.729 4.67306 115.129 4.83553 114.545 4.99094C112.568 5.51767 110.611 6.11311 108.633 6.62947C107.431 6.94265 106.036 7.4134 104.777 7.26307C104.05 7.17577 103.153 7.00294 102.614 6.61107C104.235 4.54836 106.303 2.88125 108.663 1.7359C111.023 0.59054 113.613 -0.00305935 116.236 1.18569e-05C119.883 1.18569e-05 123.267 1.12648 126.062 3.05196C126.062 3.05196 126.062 3.05294 126.064 3.05294H126.065C126.329 3.23511 126.589 3.4251 126.843 3.62293Z" fill="url(#paint3_linear_4239_5063)"/>
<path d="M130.029 27.8492C129.463 28.5912 128.839 29.2864 128.162 29.9281V29.9291C126.065 31.9166 123.506 33.3493 120.716 34.0972H120.715C120.493 34.1559 120.27 34.2113 120.046 34.2606C117.13 34.9128 114.096 34.8055 111.234 33.949H111.23C111.23 33.949 111.23 33.949 111.228 33.949C110.892 33.8492 110.562 33.7382 110.237 33.6162C108.959 33.1444 107.741 32.523 106.608 31.7647C106.178 31.4768 105.761 31.1701 105.357 30.8448C105.436 30.8685 105.514 30.89 105.592 30.9107C108.506 31.6493 111.71 31.1456 114.732 30.4077H114.733C115.875 30.1299 116.991 29.8172 118.054 29.5269C120.039 28.9839 122.006 28.3699 123.994 27.838C125.201 27.5151 126.602 27.0304 127.868 27.1849C128.185 27.2219 128.5 27.2768 128.81 27.3493C129.267 27.4564 129.709 27.6147 130.029 27.8492Z" fill="#61C0E2"/>
<path d="M116.446 16.341C116.289 16.3935 116.131 16.445 115.974 16.4955H115.972L115.885 16.5232C112.988 17.4252 110.086 18.2692 107.113 18.8864C105.107 19.3029 103.007 19.7462 100.983 19.198C100.238 18.9939 99.5367 18.6532 98.9161 18.1931C98.903 17.9112 98.8962 17.6273 98.8955 17.3414C98.8949 16.0707 99.0336 14.8037 99.3091 13.5631C99.3441 13.4046 99.3811 13.2472 99.4213 13.0898C99.632 13.0205 99.8463 12.9622 100.063 12.915C103.083 12.2536 106.395 13.0775 109.267 13.9992C111.645 14.7616 114.037 15.6148 116.446 16.341Z" fill="url(#paint4_linear_4239_5063)"/>
<path d="M133.496 15.6556C133.549 16.2108 133.576 16.7728 133.577 17.3415C133.577 18.039 133.536 18.7359 133.453 19.4284C133.038 19.5169 132.581 19.4942 132.136 19.4654C126.841 19.1188 121.679 17.9136 116.597 16.3861C116.546 16.3716 116.496 16.3561 116.445 16.3409L116.854 16.2019C120.366 15.0026 123.902 13.5044 127.637 13.194C129.281 13.0581 131.1 13.1251 132.55 14.0077C132.772 14.1435 133.117 14.4011 133.377 14.7019C133.426 15.0167 133.465 15.3355 133.496 15.6556Z" fill="url(#paint5_linear_4239_5063)"/>
<path d="M133.048 21.6149C132.237 24.7912 130.544 27.6734 128.165 29.9284C128.414 29.5283 128.629 29.1219 128.77 28.7711C128.902 28.4419 128.987 28.1002 128.937 27.7384C128.917 27.5959 128.866 27.4679 128.812 27.3495C128.079 25.7141 125.169 26.18 123.878 26.4372C121.266 26.9557 118.679 27.6116 116.091 28.2352C110.907 29.4879 107.644 30.5117 105.069 30.6052C103.379 29.1826 101.976 27.4509 100.935 25.5029C101.995 25.3569 103.271 25.1091 104.81 24.7199C109.093 23.6389 113.296 22.2636 117.593 21.2309C121.586 20.2702 126.24 19.0883 130.351 20.0007C131.457 20.2459 132.368 20.8333 133.048 21.6149Z" fill="url(#paint6_linear_4239_5063)"/>
<path d="M125.99 31.6786C124.38 32.7766 122.597 33.5942 120.715 34.097H120.714C120.493 34.1557 120.269 34.2111 120.045 34.2604L111.233 33.9488H111.229C111.229 33.9488 111.229 33.9488 111.227 33.9488C110.892 33.849 110.561 33.7381 110.236 33.6161C111.768 33.4691 113.612 33.2026 115.697 32.7352C116.28 32.6047 116.88 32.4596 117.498 32.296C122.131 31.0748 124.777 30.8507 125.99 31.6786Z" fill="url(#paint7_linear_4239_5063)"/>
<path d="M120.716 34.0978C120.495 34.1565 120.272 34.2119 120.047 34.2612C117.132 34.9134 114.097 34.8061 111.235 33.9496H111.231C111.231 33.9496 111.231 33.9496 111.229 33.9496C110.894 33.8498 110.563 33.7389 110.238 33.6169C108.96 33.1451 107.742 32.5236 106.609 31.7654C108.131 31.5145 110.852 31.5783 115.7 32.7364C117.157 33.0835 118.842 33.5299 120.716 34.0978Z" fill="url(#paint8_linear_4239_5063)"/>
<path d="M131.241 8.65164C131.372 8.87479 131.496 9.10184 131.616 9.33144C131.423 9.084 131.216 8.84775 130.997 8.62385C125.824 3.32952 115.686 6.92347 113.913 7.35351C111.98 7.82328 104.673 10.0938 100.343 10.3849C101.264 8.28856 102.59 6.3946 104.245 4.81151C105.899 3.22841 107.85 1.98727 109.985 1.15918C111.957 1.78554 113.892 2.59414 115.678 3.34186C116.302 3.60284 116.927 3.83636 117.555 4.0424H117.556C117.654 4.07431 117.75 4.10504 117.848 4.13597C119.677 4.70478 121.547 5.02775 123.529 5.04947C124.774 5.06376 126.599 5.09352 127.802 4.42507C127.886 4.50121 127.971 4.57716 128.053 4.65448C129.307 5.82233 130.381 7.1693 131.241 8.65164Z" fill="url(#paint9_linear_4239_5063)"/>
<defs>
<linearGradient id="paint0_linear_4239_5063" x1="115.276" y1="32.4123" x2="115.405" y2="32.4123" gradientUnits="userSpaceOnUse">
<stop stop-color="#804C88"/>
<stop offset="0.26" stop-color="#6C5F8B"/>
<stop offset="0.66" stop-color="#51788F"/>
<stop offset="0.89" stop-color="#61C1E3"/>
</linearGradient>
<linearGradient id="paint1_linear_4239_5063" x1="116.176" y1="4.02027" x2="128.059" y2="4.02027" gradientUnits="userSpaceOnUse">
<stop offset="0.21" stop-color="#61BFE1"/>
<stop offset="1" stop-color="#736C94"/>
</linearGradient>
<linearGradient id="paint2_linear_4239_5063" x1="91.233" y1="13.7568" x2="133.497" y2="13.7568" gradientUnits="userSpaceOnUse">
<stop offset="0.38" stop-color="#078B7B"/>
<stop offset="0.91" stop-color="#4DB0B7"/>
</linearGradient>
<linearGradient id="paint3_linear_4239_5063" x1="102.613" y1="3.64603" x2="126.843" y2="3.64603" gradientUnits="userSpaceOnUse">
<stop stop-color="#F1E931"/>
<stop offset="0.11" stop-color="#ECE735"/>
<stop offset="0.25" stop-color="#DCE242"/>
<stop offset="0.41" stop-color="#C3D957"/>
<stop offset="0.57" stop-color="#9FCD74"/>
<stop offset="0.74" stop-color="#72BD99"/>
<stop offset="0.87" stop-color="#4DB0B7"/>
</linearGradient>
<linearGradient id="paint4_linear_4239_5063" x1="99.0926" y1="16.0905" x2="134.207" y2="15.8397" gradientUnits="userSpaceOnUse">
<stop stop-color="#61BFE1"/>
<stop offset="0.09" stop-color="#63B4D7"/>
<stop offset="0.26" stop-color="#6A97BC"/>
<stop offset="0.45" stop-color="#736C94"/>
</linearGradient>
<linearGradient id="paint5_linear_4239_5063" x1="31360.7" y1="5982.28" x2="13950.8" y2="10071.4" gradientUnits="userSpaceOnUse">
<stop stop-color="#804C88"/>
<stop offset="0.26" stop-color="#6C5F8B"/>
<stop offset="0.66" stop-color="#51788F"/>
<stop offset="0.89" stop-color="#61C1E3"/>
</linearGradient>
<linearGradient id="paint6_linear_4239_5063" x1="100.935" y1="25.1386" x2="133.048" y2="25.1386" gradientUnits="userSpaceOnUse">
<stop stop-color="#F1E931"/>
<stop offset="0.14" stop-color="#EDE834"/>
<stop offset="0.28" stop-color="#E1E33E"/>
<stop offset="0.42" stop-color="#CCDC4F"/>
<stop offset="0.56" stop-color="#AFD267"/>
<stop offset="0.71" stop-color="#8AC585"/>
<stop offset="0.85" stop-color="#5EB6A9"/>
<stop offset="0.9" stop-color="#4DB0B7"/>
</linearGradient>
<linearGradient id="paint7_linear_4239_5063" x1="110.236" y1="32.7235" x2="125.99" y2="32.7235" gradientUnits="userSpaceOnUse">
<stop offset="0.2" stop-color="#F1E931"/>
<stop offset="0.93" stop-color="#4DB0B7"/>
</linearGradient>
<linearGradient id="paint8_linear_4239_5063" x1="7274.8" y1="5522.75" x2="17441" y2="5522.75" gradientUnits="userSpaceOnUse">
<stop stop-color="#804C88"/>
<stop offset="0.26" stop-color="#6C5F8B"/>
<stop offset="0.66" stop-color="#51788F"/>
<stop offset="0.89" stop-color="#61C1E3"/>
</linearGradient>
<linearGradient id="paint9_linear_4239_5063" x1="115.979" y1="0.726794" x2="115.979" y2="12.8211" gradientUnits="userSpaceOnUse">
<stop offset="0.17" stop-color="#44518C"/>
<stop offset="0.98" stop-color="#008181"/>
</linearGradient>
</defs>
</svg>
