<svg width="43" height="42" viewBox="0 0 43 42" fill="none" xmlns="http://www.w3.org/2000/svg">
<path opacity="0.5" d="M41 1H1V41H41V1Z" stroke="white" stroke-miterlimit="10"/>
<rect x="4" y="4" width="34" height="34" fill="white"/>
<path d="M37.2598 1H41.0033V4.74356" stroke="white" stroke-width="2" stroke-miterlimit="10"/>
<path d="M1 4.74356V1H4.74356" stroke="white" stroke-width="2" stroke-miterlimit="10"/>
<path d="M1 37.2546V40.9982H4.74356" stroke="white" stroke-width="2" stroke-miterlimit="10"/>
<path d="M41.0033 37.2546V40.9982H37.2598" stroke="white" stroke-width="2" stroke-miterlimit="10"/>
<path d="M31.3961 15.0119C30.6441 15.3543 29.838 15.5842 28.9906 15.6885C29.8555 15.157 30.5201 14.3157 30.8317 13.3147C30.024 13.8054 29.1257 14.1625 28.1734 14.3548C27.4102 13.5201 26.3227 13 25.1192 13C22.8075 13 20.933 14.9206 20.933 17.2912C20.933 17.627 20.9711 17.9547 21.0427 18.2694C17.564 18.0901 14.4812 16.3814 12.4159 13.7842C12.055 14.4201 11.8499 15.157 11.8499 15.9428C11.8499 17.4314 12.5876 18.7455 13.7116 19.5166C13.0248 19.4938 12.3793 19.2998 11.8149 18.9786C11.8149 18.9965 11.8149 19.0145 11.8149 19.0324C11.8149 21.1128 13.2585 22.8459 15.1712 23.2421C14.8214 23.3399 14.4509 23.3921 14.0694 23.3921C13.7991 23.3921 13.5368 23.366 13.2808 23.3138C13.815 25.0176 15.3604 26.2615 17.1903 26.2958C15.7594 27.4468 13.9549 28.1316 11.993 28.1316C11.6543 28.1316 11.322 28.112 10.9961 28.0713C12.8467 29.2908 15.0472 30 17.4113 30C25.1096 30 29.3197 23.4605 29.3197 17.7901C29.3197 17.6042 29.3149 17.4167 29.3086 17.2341C30.1258 16.6292 30.8349 15.8727 31.3961 15.0119Z" fill="#141F32"/>
</svg>
