<svg width="27" height="22" viewBox="0 0 27 22" fill="none" xmlns="http://www.w3.org/2000/svg">
<path d="M27 2.60362C26.0047 3.04671 24.9378 3.3442 23.8162 3.47924C24.961 2.79141 25.8405 1.70269 26.253 0.407212C25.184 1.04229 23.9951 1.50436 22.7346 1.75333C21.7246 0.67306 20.2852 0 18.6923 0C15.6327 0 13.1517 2.48547 13.1517 5.55327C13.1517 5.98792 13.2022 6.41201 13.2969 6.81922C8.69278 6.58713 4.61258 4.37595 1.87912 1.01487C1.40145 1.83773 1.13 2.79141 1.13 3.80838C1.13 5.73473 2.10638 7.43531 3.59411 8.4333C2.68506 8.40376 1.83072 8.15268 1.0837 7.73703C1.0837 7.76024 1.0837 7.78345 1.0837 7.80666C1.0837 10.4989 2.99439 12.7417 5.52584 13.2544C5.06289 13.381 4.5726 13.4485 4.06757 13.4485C3.70984 13.4485 3.36264 13.4148 3.02385 13.3473C3.73089 15.5521 5.77625 17.162 8.19827 17.2063C6.30442 18.6959 3.91606 19.582 1.31938 19.582C0.871171 19.582 0.431377 19.5567 0 19.504C2.44938 21.0822 5.3617 22 8.49076 22C18.6797 22 24.2518 13.5372 24.2518 6.19891C24.2518 5.95838 24.2455 5.71574 24.2371 5.47943C25.3187 4.69665 26.2572 3.71766 27 2.60362Z" fill="#D0D3D7"/>
</svg>
