<svg width="17" height="16" viewBox="0 0 17 16" fill="none" xmlns="http://www.w3.org/2000/svg">
    <path d="M12.8938 15.8252L8.98403 12.5618L6.7928 14.905C6.66759 15.0192 6.53925 15.0762 6.40464 15.0762C6.101 15.0762 5.89753 14.93 5.79736 14.634L4.24785 9.29469L0.403812 7.93223C0.169038 7.85734 0.0344336 7.66474 0 7.358C0 7.05127 0.134604 6.84084 0.403812 6.72314C10.9217 2.23986 16.2151 0 16.2839 0C16.406 0 16.5344 0.0641998 16.6627 0.192599C16.7911 0.320999 16.8505 0.488631 16.8411 0.691931L14.1616 15.251C14.0708 15.7503 13.8079 16 13.3696 16C13.1974 16 13.0409 15.9429 12.8938 15.8252ZM6.59246 10.486C11.4006 5.54258 13.811 3.05662 13.8141 3.02452C13.8204 2.99242 13.8235 2.97102 13.8235 2.95676C13.8235 2.84262 13.7515 2.78556 13.6044 2.78556C13.57 2.78556 10.7621 4.82211 5.17756 8.89166L6.35456 13.2929L6.59246 10.486Z" fill="white"/>
</svg>
